<?xml version="1.0" encoding="UTF-8"?>
<svg id="Camada_1" data-name="Camada 1" xmlns="http://www.w3.org/2000/svg" viewBox="0 0 1000.11 1000.11">
  <defs>
    <style>
      .cls-1 {
        fill: #fbeee5;
      }

      .cls-2 {
        fill: #fff;
      }

      .cls-3 {
        fill: none;
        stroke: #38160f;
        stroke-linecap: round;
        stroke-linejoin: round;
        stroke-width: 1.87px;
      }

      .cls-4 {
        fill: #ffa7be;
      }

      .cls-5 {
        fill: #624185;
      }

      .cls-6 {
        fill: #38160f;
      }

      .cls-7 {
        fill: #bc644d;
      }
    </style>
  </defs>
  <path class="cls-2" d="m500.03,1000.11c-3.8,0-7.6-.05-11.4-.14-1.45,0-2.86-.06-4.26-.11-5.37-.16-11.26-.45-18.28-.93l-3.9-.27c-6.66-.5-12.63-1.05-18.27-1.67l-1-.12c-6.01-.69-11.71-1.46-17.38-2.31l-3.58-.54c-5.93-.92-11.88-1.96-17.59-3.07l-2.7-.55c-5.17-1.03-10.29-2.14-15.38-3.33l-3.61-.84c-5.57-1.34-11.07-2.77-16.53-4.29l-4.4-1.26c-4.35-1.25-8.68-2.56-12.99-3.93l-4.44-1.4c-5.04-1.65-9.97-3.37-14.87-5.15-2.03-.73-4.04-1.5-6.05-2.25-3.58-1.36-6.94-2.68-10.28-4.03-3.02-1.22-6.03-2.46-9.03-3.74-3.27-1.39-6.55-2.82-9.79-4.29-2.66-1.2-5.3-2.43-7.94-3.68l-1.96-.91c-.52-.25-2.31-1.16-2.31-1.16-4.7-2.28-9.37-4.62-13.99-7.04-1.41-.73-2.87-1.52-4.34-2.31l-1.41-.76c-3.79-2.05-7.47-4.09-11.13-6.19l-1.02-.56c-.89-.48-1.77-.97-2.64-1.48-.68-.4-1.34-.83-1.98-1.28-19.2-11.38-37.5-23.87-54.4-37.17-10.06-7.92-19.88-16.28-29.2-24.87-6.52-5.95-12.75-11.96-18.43-17.79C51.02,756.69,0,632.14,0,500.08,0,224.34,224.31,0,500.03,0s500.08,224.34,500.08,500.08c0,69.58-14.04,136.93-41.74,200.19-.03.06-.05.12-.08.17-20.69,47.21-40.48,80.58-62.22,104.88-95.53,123.8-239.81,194.79-396.04,194.79Z"/>
  <g>
    <path class="cls-5" d="m971.21,501.19c0,67.14-14.05,131.05-39.37,188.89-17.62,40.31-40.74,77.72-68.41,111.22-.94,1.17-1.93,2.3-2.91,3.43-28.95,34.46-90.2-2.25-127.81,22.74-52.74,35.05-85.52,126.73-150.3,138.19-9.3,1.69-18.75,3.1-28.24,4.18-6.3.75-12.64,1.36-19.03,1.83-11.84.89-23.78,1.36-35.8,1.36-2.11,0-4.23,0-6.34-.09-1.55.05-3.1,0-4.65-.05-1.22,0-2.4-.05-3.57-.09-67.47-2.02-131.33-18.23-188.79-45.77-11.89-5.69-23.54-11.84-34.86-18.47-18.56-10.9-36.37-23.02-53.19-36.27-9.49-7.47-18.65-15.27-27.53-23.45-5.92-5.4-11.75-10.99-17.34-16.73-74.94-76.12-124.23-177.56-133.77-290.33-1.22-13.39,210.97-26.96,210.97-40.63,0-54.93-203.36-107.66-186.07-156.67C118.73,160.87,293.66,29.31,499.32,29.31c38.15,0,75.23,4.51,110.75,13.11,155.24,37.2-105.67,257.3-54.32,408.36,2.31,6.81,137.16,47.08,139.16,53.98,9.4,32.19,273.01-69.44,275.27-34.81.7,10.34,1.03,20.77,1.03,31.25Z"/>
    <g>
      <g>
        <path class="cls-6" d="m970.17,469.95l-212,109.15-3.76,1.93-.61.28-93.36,48.07s-2.82,1.5-2.87,1.5l-145.56,74.94-251.43,129.4c-24.29,12.55-54.18,3.95-68.18-19.55L29.27,541.79c-1.22-13.39-1.79-26.92-1.79-40.6,0-54.93,9.4-107.69,26.69-156.7,0,0,555.9-302.08,555.9-302.08,27.9,6.68,54.95,15.98,80.86,27.61,69.74,31.3,32.58,127.54,79.95,187.2,34.18,43.05,159.66,44.04,176.95,96.98,1.66,5.08,3.23,10.19,4.72,15.33,9.4,32.19,15.36,65.78,17.62,100.41Z"/>
        <polygon class="cls-1" points="75.83 400.42 76.46 401.51 75.83 401.85 75.83 400.42"/>
        <path class="cls-1" d="m952.55,369.54l-16.21,9.12-5.03,2.82-39.75,22.27-5.03,2.77-40.97,22.98-5.03,2.82-37.78,21.19-5.03,2.77-32.98,18.51-5.03,2.82-34.63,19.36-4.04,2.3-.94.52-2.4,1.36-1.17.66-37.59,21.05-.19.09-.23.14-2.96,1.64-1.64.94-35.71,19.97-5.03,2.82-19.45,10.95-1.27.7-1.93,1.08-10.38,5.78-5.03,2.82-26.74,14.99-1.13.61-2.07,1.17-5.31,3.01-5.03,2.82-2.11,1.17-1.6.85-1.6.94-37.59,21.05-5.03,2.82-7.42,4.13-3.2,1.79-26.41,14.8-8.97,5.03-4.98,2.82-60.05,33.6-4.98,2.82-56.67,31.72-5.03,2.82-48.77,27.35L76.49,401.49l54.13-29.13.52-.28,26.59-14.38.56-.28,35.29-18.98.56-.33,26.59-14.28.56-.33,35.24-19.03.56-.28,12.36-6.63,5.03-2.73,9.26-4.98.52-.28,36.65-19.73,2.77-1.5.56-.28,1.74-.94,24.81-13.39.56-.28,17.85-9.68h.05l5.03-2.73,17.57-9.49.56-.28,16.49-8.88,5.07-2.73,5.03-2.73.56-.28,28.71-15.46,5.07-2.73,7.85-4.23,9.87-5.31,17.2-9.3,1.08-.56,5.07-2.77,3.76-2.02,23.63-12.73,9.16-4.93,4.93-2.68,5.07-2.73,7.99-4.28,9.16-4.93,17.81-9.54,5.12-2.77,2.02-1.08,12.22-6.63,14.94-8.08,4.04-2.16,5.07-2.73,3.1-1.69,24.1-12.97,7.66-4.09,3.24-1.74,5.07-2.73,11.23-6.06,7.61-4.13,10.2-5.45c7.19,3.2,14.24,6.58,21.24,10.15h.05c3.05,1.55,6.06,3.1,9.07,4.75,13.3,7.09,26.17,14.85,38.67,23.21h.05c14.57,9.63,28.52,20.11,41.87,31.39l.05.05c4.09,3.34,8.18,6.91,12.12,10.48l.05.05c1.6,1.36,3.15,2.82,4.65,4.28l.05.05c16.59,15.27,32.04,31.72,46.23,49.24l.05.05c1.32,1.55,2.49,3.05,3.71,4.6,37.4,47.22,65.97,101.77,83.12,161.12Z"/>
        <g>
          <polygon class="cls-6" points="245.92 527.48 218.54 541.69 127.92 367.25 155.08 352.64 245.92 527.48"/>
          <polygon class="cls-6" points="309.15 493.94 281.77 508.15 190.92 333.31 218.08 318.69 309.15 493.94"/>
          <polygon class="cls-6" points="372.32 460.4 344.94 474.61 253.92 299.36 281.08 284.75 372.32 460.4"/>
          <polygon class="cls-6" points="439.01 423.41 411.62 437.62 321.06 263.23 348.16 248.62 439.01 423.41"/>
          <polygon class="cls-6" points="509.31 390.67 481.98 404.94 389.24 226.47 416.4 211.85 509.31 390.67"/>
          <polygon class="cls-6" points="586.76 344.75 559.38 358.96 467.79 182.56 494.88 167.95 586.76 344.75"/>
          <polygon class="cls-6" points="646.02 311.2 618.64 325.42 526.47 147.92 553.62 133.31 646.02 311.2"/>
          <polygon class="cls-6" points="713.23 282.09 685.9 296.36 591.66 114.96 618.81 100.29 713.23 282.09"/>
          <polygon class="cls-6" points="772.77 251.42 745.38 265.63 648.26 78.77 675.48 64.15 772.77 251.42"/>
          <path class="cls-6" d="m849.61,212.6l-1.32.66-5.12,2.68-20.96,10.85-61.55-118.55c14.57,9.63,28.52,20.11,41.87,31.39l.05.05c4.09,3.34,8.18,6.91,12.12,10.48l.05.05c1.6,1.36,3.15,2.82,4.65,4.28l.05.05,30.17,58.08Z"/>
        </g>
        <rect class="cls-6" x="240.51" y="340.03" width="5.75" height="414.16" transform="translate(-224.67 173.63) rotate(-27.43)"/>
        <rect class="cls-6" x="301.39" y="309.49" width="5.75" height="404.09" transform="translate(-201.78 198.23) rotate(-27.49)"/>
        <rect class="cls-6" x="361.37" y="264.19" width="5.75" height="410.5" transform="translate(-177.89 226.26) rotate(-28.03)"/>
        <rect class="cls-6" x="414.25" y="239.22" width="5.75" height="410.5" transform="translate(-159.95 248.18) rotate(-28.03)"/>
        <rect class="cls-6" x="461.99" y="212.05" width="5.75" height="410.5" transform="translate(-141.58 267.43) rotate(-28.03)"/>
        <rect class="cls-6" x="498.35" y="177.84" width="5.75" height="421.37" transform="translate(-124.08 282.84) rotate(-28.19)"/>
        <rect class="cls-6" x="541.31" y="169.94" width="5.75" height="410.5" transform="translate(-112.48 299.77) rotate(-28.03)"/>
        <rect class="cls-6" x="578.53" y="140.56" width="5.75" height="410.5" transform="translate(-94.31 313.81) rotate(-28.03)"/>
        <rect class="cls-6" x="626.51" y="118.03" width="5.75" height="410.5" transform="translate(-78.1 333.72) rotate(-28.03)"/>
        <rect class="cls-6" x="665.19" y="94.04" width="5.75" height="410.5" transform="translate(-62.28 349.08) rotate(-28.03)"/>
        <rect class="cls-6" x="708.28" y="82.29" width="5.75" height="410.5" transform="translate(-51.7 367.95) rotate(-28.03)"/>
        <rect class="cls-6" x="744.52" y="46.06" width="5.75" height="410.5" transform="translate(-30.42 380.73) rotate(-28.03)"/>
        <path class="cls-6" d="m897.3,414.46l-5.07,2.73-5.69-10.67-173.66-326.23c3.05,1.55,6.06,3.1,9.07,4.75l169.62,318.71,5.73,10.71Z"/>
        <path class="cls-6" d="m937.94,381.66l-5.07,2.73-1.55-2.91-88.15-165.53-40.6-76.26c4.09,3.34,8.18,6.91,12.12,10.48l.05.05,33.55,63.06,88.05,165.39,1.6,3.01Z"/>
      </g>
      <g>
        <g>
          <path class="cls-7" d="m790.08,786.98l-140.19,45.92s-9.91-57.09-52.09-70.75c-42.18-13.65-55.83-16.13-73.18-38.44-17.4-22.35-71.96-111.66-71.96-111.66l-1.51-76.77-.05-3.64-.68-34.6c0-1.22.15-2.33.58-3.4.34-1.21.97-2.28,1.8-3.16,2.92-3.35,7.97-4.62,12.29-1.99,7.34,4.42,15.74,13.46,21.04,31.73l1.8-7.87c.05-.1.05-.19.05-.24l9.52-41.35c.53-2.24,1.7-4.08,3.3-5.39,1.07-.87,2.28-1.51,3.6-1.85,2.58-.73,5.39-.39,7.87,1.26,5.98,3.94,12.54,11.71,16.03,26.92,7.43,32.26,2.48,74.44,2.48,74.44l50.44,70.07v.05l3.45,4.81,3.21,4.47-1.99-5.69v-.05l-.05-.19-29.01-84.65,8.6-52.14.58-3.64,5.25-31.73c.39-2.53,1.75-4.66,3.6-6.07.49-.39.97-.73,1.51-.97.05-.05.1-.05.15-.05,2.48-1.36,5.54-1.55,8.36-.19,8.02,3.99,17.64,12.88,20.36,32.8,4.96,35.96,2.48,60.79,2.48,60.79l23.81,32.12.1.15,22.49,35.12s36.3-24.77,42.18-45.96c.58-2.19.87-4.37.78-6.56-1.07-20.21-38.78-68.85-29.74-99.47,1.31-4.47,5.44-6.95,9.57-6.85h.1c1.17.05,2.33.29,3.45.78t.1.05h.05c1.31.58,2.53,1.46,3.55,2.72,3.26,3.89,7.19,8.65,11.52,13.61,3.99,4.57,8.26,9.33,12.49,13.85,1.31,1.36,2.62,2.72,3.89,4.03,3.4,3.45,6.71,6.61,9.82,9.28,7.09,6.17,12.93,10.16,17.54,14.33.05.1.1.15.19.19,5.93,5.39,9.86,11.27,12,22.64,0,.1.05.15.05.19.49,2.87.92,6.12,1.21,9.77.63,7.39.87,20.46,1.07,36.35v.24c.05.49.05.97.05,1.46-.05.05,0,.05,0,.05v1.07c.63,48.15,1.26,120.02,11.32,141.98.1.19.19.44.29.63,0,0,.05,0,0,.05,13.51,29.45,24.49,51.41,24.49,51.41Z"/>
          <g>
            <path class="cls-6" d="m689.53,606.58c-.25,0-.53-.06-.85-.21-1.15-.52-1.29-1.16-.83-2.47l-.04-.02.26-.55c.19-.46.42-.98.7-1.6.1-.23.2-.46.3-.68.03-.11.06-.22.11-.32.15-.34.31-.66.46-.96.07-.15.11-.26.14-.31h.03c.04-.05.08-.12.12-.18,3.67-8.11,7.18-17.05,6.26-26.15-.51-5.05-2.42-9.98-4.41-14.56-2.69-6.18-5.8-12.44-8.81-18.49-9.41-18.93-19.14-38.51-18.17-59.81.42-9.22,4.48-20.69,14.54-22.66.64-.11,1.28.09,1.71.57,13.04,14.52,28.42,31.26,45.84,46.23l1.75,1.5c6.2,5.3,12.6,10.78,17.47,17.56,13.36,18.62,13.02,42.82,11.41,68.06-.06,1.01-.96,1.75-1.93,1.7-1-.06-1.77-.93-1.7-1.93,1.57-24.56,1.92-48.06-10.74-65.71-4.61-6.43-10.85-11.76-16.88-16.92l-1.76-1.5c-17.26-14.83-32.49-31.33-45.45-45.75-6.83,2.05-10.25,10.86-10.62,19.01-.93,20.36,8.59,39.51,17.8,58.02,3.03,6.1,6.16,12.4,8.89,18.67,2.11,4.85,4.13,10.1,4.69,15.65,1.15,11.34-3.97,22.44-8.1,31.35-.15.33-.3.65-.46.95-.07.16-.12.28-.14.32h-.03c-.41.7-.88,1.19-1.57,1.19Z"/>
            <path class="cls-6" d="m781.42,763.36c-.66,0-1.3-.36-1.62-.99-.1-.19-9.98-19.33-16.1-30.35-4.78-8.6-4.99-11.85-6.02-27.46-.37-5.54-.84-12.7-1.65-22.27-3.07-36.27-2.5-87.74-2.49-88.26.01-1,.83-1.8,1.82-1.8h.02c1.01.01,1.81.84,1.8,1.84,0,.52-.58,51.82,2.47,87.91.81,9.61,1.29,16.78,1.65,22.34,1.03,15.65,1.19,18.05,5.57,25.93,6.15,11.06,16.06,30.25,16.16,30.45.46.89.11,1.99-.78,2.45-.27.14-.55.2-.83.2Z"/>
            <path class="cls-6" d="m533.29,683.96c-.6,0-1.18-.29-1.53-.83-2.19-3.38-53.61-83.08-54.87-99.48-1.25-16.2,19.62-113.03,20.51-117.14.07-.28,1.24-4.3,5.37-5.64,4.19-1.35,9.62.61,16.16,5.84,16.33,13.07,17.42,62.55,16.81,74.09-.54,10.17-2.47,21.84-2.99,24.9l56.62,78.78c.59.82.4,1.95-.42,2.54-.81.59-1.95.4-2.54-.42l-57.07-79.4c-.29-.4-.4-.9-.31-1.39.03-.14,2.47-13.67,3.07-25.2.79-15.04-1.4-59.82-15.45-71.06-6.84-5.48-10.7-5.88-12.72-5.23-2.27.71-2.97,2.98-3,3.07-.19.88-21.61,100.3-20.4,115.98.95,12.39,35.94,69.38,54.3,97.78.55.84.3,1.97-.54,2.52-.31.2-.65.29-.99.29Z"/>
            <path class="cls-6" d="m584.15,641.16c-.77,0-1.49-.49-1.73-1.26l-27.29-84.36c-.09-.28-.11-.57-.06-.85l14.89-91.81c.14-.48,1.72-5.07,6.46-6.24,4.78-1.18,10.73,1.62,17.69,8.32,14.96,14.4,15.14,33.2,15.31,49.79.03,2.68.05,5.32.14,7.91.54,16.18.14,27.83.02,30.56l50.53,75.18c.56.84.34,1.97-.5,2.53-.83.57-1.96.34-2.53-.5l-50.87-75.68c-.22-.32-.33-.71-.31-1.11,0-.12.61-12.56,0-30.87-.09-2.61-.11-5.29-.14-8-.16-16.64-.33-33.86-14.19-47.2-7.47-7.19-11.89-8-14.29-7.41-2.77.68-3.8,3.54-3.81,3.57l-14.75,91.09,27.16,83.94c.31.96-.22,1.98-1.17,2.29-.19.06-.38.09-.56.09Z"/>
            <path class="cls-6" d="m711.56,497.39c-.16,0-.32-.02-.47-.06-.33-.08-.65-.28-.91-.54-9.65,1.2-19.47-2.2-25.97-9.01-6.94-7.28-9.61-18.07-6.8-27.5.29-.97,1.28-1.52,2.27-1.22.96.29,1.51,1.3,1.22,2.27-2.45,8.19-.11,17.59,5.95,23.94,5.93,6.21,15.02,9.18,23.74,7.78,1.7-.3,2.52.54,2.85,1.05.4.63.35,1.74-.08,2.35-.43.6-1.11.95-1.8.95Z"/>
            <path class="cls-6" d="m568.08,503.14c-1.03,0-2.08-.14-3.13-.46-.97-.29-1.51-1.3-1.22-2.27.29-.97,1.3-1.52,2.27-1.22,4.17,1.25,8.77-1.69,11.47-5.16,3.43-4.41,5.16-10.13,4.74-15.7-.42-5.57-2.97-10.98-7.01-14.83-.73-.69-.75-1.85-.06-2.58.69-.73,1.85-.76,2.58-.06,4.68,4.47,7.64,10.74,8.13,17.2.48,6.46-1.53,13.1-5.5,18.21-2.66,3.43-7.22,6.88-12.26,6.88Z"/>
            <path class="cls-6" d="m493.74,507.7c-.64,0-1.3-.03-1.96-.09-1-.09-1.74-.98-1.64-1.99.09-1,.94-1.71,1.99-1.64,2.04.19,3.9.03,5.53-.48,6.02-1.89,9.18-8.67,10.06-13.92,1.21-7.28-.4-15.04-4.34-21.29-.95.35-1.96-.25-2.33-1.19-.49-1.26-.16-2.73.81-3.66.37-.36.87-.52,1.39-.5.52.04.99.29,1.31.7,5.77,7.38,8.29,17.3,6.75,26.54-1.1,6.56-4.97,14.42-12.56,16.79-1.54.48-3.22.72-4.99.72Z"/>
            <path class="cls-6" d="m461.31,527.89c-2.48,4.62-6.03,7.29-9.77,7.39h-.39l-.05-3.64h.34c3.4-.1,5.78-3.84,6.66-5.44,3.16-5.93,3.94-13.02,1.99-19.44-1.55-5.25-4.76-9.86-9.09-13.12.34-1.21.97-2.28,1.8-3.16,5.15,3.69,8.99,9.09,10.79,15.26,2.19,7.34,1.36,15.4-2.28,22.16Z"/>
          </g>
        </g>
        <g>
          <path class="cls-4" d="m860.51,804.73c-69.54,82.79-167.13,141.29-278.11,160.93-1.69-14.1-1.83-25.18.56-31.06,12.36-31.01,57.04-62.02,57.04-62.02l-14.89-62.02,15.32-6.39,131.56-54.79.85-.38,3.34-1.41,12.69-5.26,23.59,48.35s21.9-6.11,48.07,14.05Z"/>
          <path class="cls-3" d="m639.98,872.59s79.82.35,172.45-81.92"/>
        </g>
      </g>
    </g>
    <g>
      <g>
        <g>
          <path class="cls-1" d="m375.58,848.29c-.75,0-1.42-.51-1.6-1.27l-24.7-104.98c-.12-.51,0-1.05.35-1.44.34-.4.82-.62,1.37-.58l85.89,5.61c.91.06,1.6.84,1.54,1.75-.06.91-.83,1.56-1.75,1.54l-83.67-5.47,24.19,102.81c.21.89-.34,1.77-1.23,1.98-.13.03-.25.04-.38.04Z"/>
          <path class="cls-1" d="m377.27,846.08s-29.47-17.12-43.23-4.77c-13.75,12.35-1.68,32.84,17.96,26.95,19.65-5.89,25.26-22.18,25.26-22.18Z"/>
        </g>
        <g>
          <path class="cls-1" d="m461.48,853.91c-.75,0-1.43-.51-1.6-1.27l-24.7-104.98c-.21-.89.34-1.77,1.23-1.98.89-.21,1.77.34,1.98,1.23l24.7,104.98c.21.89-.34,1.78-1.23,1.98-.13.03-.25.04-.38.04Z"/>
          <path class="cls-1" d="m463.16,851.7s-29.47-17.12-43.23-4.77c-13.75,12.35-1.68,32.84,17.96,26.95,19.65-5.89,25.26-22.18,25.26-22.18Z"/>
        </g>
        <path class="cls-1" d="m441.83,771.94s-.07,0-.11,0l-84.77-5.61c-.91-.06-1.6-.85-1.54-1.76.06-.91.86-1.59,1.76-1.54l84.77,5.61c.91.06,1.6.85,1.54,1.76-.06.87-.78,1.54-1.64,1.54Z"/>
      </g>
      <g>
        <g>
          <path class="cls-1" d="m349.24,185.84c-.65.38-1.49.27-2.03-.29l-74.12-78.35c-.36-.38-.52-.91-.43-1.42.09-.51.4-.95.89-1.19l77.08-38.31c.82-.41,1.81-.07,2.21.74.4.81.06,1.77-.74,2.21l-75.08,37.32,72.58,76.73c.63.66.6,1.71-.06,2.33-.1.09-.2.17-.31.23Z"/>
          <path class="cls-1" d="m349.58,183.08s-34.09,0-39.77,17.6c-5.68,17.59,15.05,29.24,29.07,14.27,14.02-14.97,10.7-31.87,10.7-31.87Z"/>
        </g>
        <g>
          <path class="cls-1" d="m426.32,147.52c-.65.38-1.49.27-2.03-.29l-74.12-78.35c-.63-.66-.6-1.71.06-2.33.66-.63,1.71-.6,2.33.06l74.12,78.35c.63.66.6,1.71-.06,2.33-.1.09-.2.16-.31.23Z"/>
          <path class="cls-1" d="m426.66,144.76s-34.09,0-39.77,17.6c-5.68,17.59,15.05,29.24,29.07,14.27,14.02-14.97,10.7-31.87,10.7-31.87Z"/>
        </g>
        <path class="cls-1" d="m368.14,86.53s-.06.04-.1.05l-76.11,37.75c-.82.4-1.8.07-2.21-.75-.41-.82-.05-1.81.75-2.21l76.11-37.75c.82-.4,1.8-.07,2.21.75.39.78.1,1.72-.65,2.16Z"/>
      </g>
      <g>
        <path class="cls-1" d="m874.59,517.72c-.95.04-1.79.72-1.98,1.69l-26.5,134.8c-.22,1.14.52,2.24,1.66,2.47,1.13.23,2.24-.52,2.47-1.66l26.5-134.8c.22-1.14-.52-2.24-1.66-2.47-.16-.03-.33-.04-.49-.04Z"/>
        <path class="cls-1" d="m876.84,520.45s-36.71,23.18-54.8,8.11c-18.09-15.07-3.69-41.73,21.6-35.15,25.29,6.58,33.2,27.04,33.2,27.04Z"/>
      </g>
    </g>
  </g>
</svg>