<?xml version="1.0" encoding="UTF-8"?>
<svg id="Camada_1" data-name="Camada 1" xmlns="http://www.w3.org/2000/svg" viewBox="0 0 877.29 941.75">
  <defs>
    <style>
      .cls-1 {
        fill: #f8412b;
      }

      .cls-2 {
        fill: #4b4b4b;
      }

      .cls-3 {
        fill: #ed756c;
      }

      .cls-4 {
        fill: #a755dd;
      }

      .cls-5 {
        fill: none;
        stroke: #000;
        stroke-linecap: round;
        stroke-linejoin: round;
        stroke-width: 2.34px;
      }

      .cls-6 {
        fill: #ffeae2;
      }
    </style>
  </defs>
  <path class="cls-4" d="m877.29,433.33v508.43H89.22v-508.43c0-49.11,9.61-95.95,27.03-138.8,33.54-82.55,96.09-150.26,175.06-190.3,50.09-25.48,106.72-39.8,166.76-39.8h50.38c203.69,0,368.85,165.16,368.85,368.9Z"/>
  <g>
    <path d="m369.41,489.13s46.63,20.98,72.28,62.17c25.65,41.19,170.2,146.88,170.2,146.88l173.31-55.18,14.77-80.83-5.44-148.44-34.2-165.54-67.61-41.97s-121.24,43.52-125.12,45.85c-3.89,2.33-138.34,119.68-138.34,119.68l-39.64,52.85-19.43,61.4"/>
    <g>
      <path class="cls-3" d="m516.59,509.57c14.51,26.01,23.7,54.64,37.12,81.22,13.43,26.58,32.32,52.05,59.4,64.42,35.67,16.29,78.56,6.42,112.23-13.66,13.55-8.08,26.32-17.88,35.87-30.44,10.82-14.23,17.08-31.44,20.99-48.88,4.53-20.23,6.08-41.27,3-61.78-4.25-28.34-17.07-54.65-31.18-79.59-11.86-20.97-24.76-41.36-38.62-61.06-6.43-9.14-13.25-18.31-22.45-24.65-17.73-12.23-41.06-11.96-62.46-9.51-36.85,4.21-73.63,13.71-105.44,32.76-23.48,14.06-44.46,33.75-57.99,57.7-5.19,9.18-10.14,19.92-5.76,30.38,4.72,11.27,17.58,17.16,26.14,25.05,11.8,10.87,21.34,24.08,29.13,38.05Z"/>
      <path class="cls-5" d="m603.22,383.77c8.22,5.32,15.3,12.21,22.01,19.33,43.67,46.37,73.99,105.09,86.91,167.46"/>
      <g>
        <path class="cls-6" d="m715.92,343.71c-7.31,7.9-15.2,15.25-23.56,22.01-1,.82-2.01,1.64-3.01,2.37-6.67,5.25-13.61,10.14-20.82,14.57-7.31,4.47-14.84,8.54-22.51,12.37-1.05.5-2.05,1-3.1,1.55-3.47,1.64-6.94,3.33-10.46,4.93-14.66,6.76-29.72,13.06-45.07,18.77-1.05.41-2.1.82-3.2,1.19-24.88,9.22-50.54,17.03-76.39,23.29-1.1.27-2.24.55-3.33.78-19.04,4.52-38.22,8.17-57.3,10.91-11.64-12.42-21.28-26.66-28.54-42.05l-14.88-24.02c-8.31-9.82-3.88-24.88,2.47-36.07,22.28-39.31,61.91-65.93,103.14-84.51,57.99-26.16,126.15-38.9,188.07-24.2,11.6,31.64,18.26,64.42,18.49,98.12Z"/>
        <g>
          <path d="m507.81,444.75c-1.1.27-2.24.55-3.33.78-9.27-29.86-20.96-59.04-34.79-86.98l3.06-1.51c13.97,28.22,25.71,57.62,35.07,87.71Z"/>
          <path d="m587.39,420.28c-1.05.41-2.1.82-3.2,1.19-8.68-26.8-19.09-53.19-31.05-78.62l3.1-1.46c12.01,25.52,22.46,52.01,31.14,78.9Z"/>
          <path d="m646.02,395.03c-1.05.5-2.05,1-3.1,1.55-7.72-28.72-18.13-56.71-31-83.51l3.06-1.51c12.92,26.8,23.33,54.74,31.05,83.46Z"/>
          <path d="m692.36,365.72c-1,.82-2.01,1.64-3.01,2.37-6.16-32.51-15.48-64.38-27.76-95.15l3.15-1.28c12.15,30.41,21.41,61.96,27.62,94.06Z"/>
        </g>
      </g>
    </g>
    <path class="cls-1" d="m767.88,266.34c-8.67-37.04-28.12-71.49-55.36-98.04-17.76-17.31-40.39-31.82-65.19-31.75-20.35.06-39.54,9.99-55.34,22.81-15.79,12.83-28.91,28.58-43.34,42.92-9,8.94-18.83,17.55-30.74,21.91-11.68,4.28-24.42,4.17-36.74,5.92-40.63,5.78-77.38,33.77-93.75,71.4-25.45,58.49-1.93,128.27-21.91,188.85,43.48-34.29,67.34-94.18,118.98-114.14,27.2-10.52,57.58-7.65,86.26-12.93,39.38-7.25,75.53-30.69,98.22-63.68,5.22-7.59,9.85-15.77,16.7-21.92,19.15-17.2,57.4-18.21,82.2-11.35Z"/>
    <path class="cls-1" d="m365.51,490.37s26.44,3.42,41.6,62.88c15.15,59.45,157.38,254.13,320.58,173.7,163.21-80.44,93.26-273.95,76.94-329.91-16.32-55.96-40.51-143.39-40.51-143.39,0,0-6.21-10.84-3.79,7.87,4.23,32.63,17.85,107.93,22.54,170.1,7.77,102.97-3.89,140.67-47.41,177.97-40.07,34.35-112.69,67.23-188.46,10.1-71.34-53.78-116.91-113.56-175.25-134.06-3.62-1.27-3.5,2.53-6.23,4.74Z"/>
    <g>
      <g>
        <path class="cls-6" d="m475.44,259.21c-11.41,9.53-21.14,21.08-28.59,33.94-2.49,4.29-4.76,8.83-5.44,13.75-1.4,10.1,4.57,20.4,13.36,25.57,8.79,5.17,19.84,5.61,29.61,2.71,9.77-2.9,18.39-8.89,25.84-15.85,13.99-13.09,28.59-38.06,17.2-57.25-11.2-18.86-37.78-14.73-51.98-2.86Z"/>
        <path class="cls-6" d="m403.59,367.9c-.66,8.94,3.23,19.25,11.78,21.96,5.21,1.65,11.1.01,15.38-3.39,4.28-3.4,7.09-8.37,8.82-13.56,2.06-6.16,2.71-12.83,1.54-19.22-5.26-28.67-36.19-3.58-37.52,14.21Z"/>
      </g>
      <g>
        <path class="cls-6" d="m738.09,642.56c-3.72,5.4-6.14,11.86-5.87,18.41.27,6.55,3.5,13.13,9.08,16.56,5.53,3.41,12.68,3.4,18.8,1.23,6.12-2.17,11.38-6.26,16.13-10.68,10.63-9.88,30.53-39.74,7.22-48.34-14.54-5.36-37.78,11.78-45.37,22.81Z"/>
        <path class="cls-6" d="m683.75,705.18c2.6,1.35,5.51,2,8.42,2.32,4.29.47,8.81.18,12.59-1.9,15.54-8.55,5.21-35.7-10.79-36.01-18.37-.35-27.21,26.78-10.21,35.59Z"/>
      </g>
    </g>
  </g>
  <g>
    <path d="m397.59,699.87c-2.33-1.89-4.81-3.69-7.38-5.29l-2.52,4.13c1.99,1.26,3.93,2.57,5.73,4.08,24.9,19.61,35.23,58.24,23,89.59-12.57,32.03-45.86,55.57-82.89,58.48-11.36.92-22.96-.05-34.46-2.72,17.71-22.86,26.35-49.89,23.83-74.55-3.01-28.83-22.66-54.4-47.8-62.17-28-8.64-59.94,6.7-68.33,32.81-7.33,22.62,2.43,49.75,25.96,72.56,16.7,16.16,36.84,27.86,57.85,34.07-9.27,10.68-20.09,20.19-30.58,29.36-2.82,2.52-5.68,5-8.49,7.52-20.34,18.2-36.06,36.2-47.12,54.02h5.73c10.73-16.6,25.62-33.44,44.65-50.43,2.77-2.48,5.63-4.95,8.44-7.43,11.21-9.85,22.76-20,32.52-31.59,12.67,3.2,25.58,4.42,38.2,3.4,38.83-3.06,73.82-27.81,87.02-61.59,13.06-33.34,2.77-72.94-23.34-94.25Zm-103.52,146.76s-.1.1-.15.19c-20.97-5.87-41.16-17.42-57.8-33.54-17.18-16.6-32.66-43.1-24.75-67.61,6.07-18.88,26.84-31.79,47.85-31.79,4.85,0,9.71.68,14.41,2.14,23.34,7.23,41.64,31.11,44.41,58.09,2.52,23.93-6.26,50.38-23.98,72.51Zm564.19,2.23c-6.94-14.56-14.07-29.6-23.98-42.47-32.86-42.61-90.27-54.65-132.64-57.22-40.96-2.52-70.18,3.69-91.92,19.56-23.34,16.99-38.78,46.06-47.27,88.86-3.59,17.91-5.97,36.55-8.3,54.55-1.26,9.85-2.57,19.75-4.03,29.61h4.85c1.46-9.66,2.72-19.36,3.98-28.97,2.33-17.96,4.71-36.5,8.25-54.21,8.25-41.59,23.05-69.69,45.33-85.9,20.82-15.14,48.97-21.06,88.81-18.64,41.35,2.52,97.31,14.17,129.05,55.33,9.61,12.47,16.65,27.28,23.49,41.59,6.79,14.32,13.78,28.93,23.39,41.4v-8.11c-7.23-10.73-13.06-22.86-19.02-35.38Z"/>
    <g>
      <polygon points="349 657.17 382.46 710.45 407.24 693.1 375.03 636.1 349 657.17"/>
      <g>
        <path class="cls-2" d="m298.18,149.14c0,34.85-11.99,66.93-32.03,92.31-27.28,34.6-69.6,56.78-117.06,56.78-6.12,0-12.18-.39-18.1-1.12-45.57-5.48-84.79-31.55-108.13-68.63-.87-1.41-1.75-2.81-2.57-4.22C7.38,202.19,0,176.51,0,149.14,0,66.78,66.73,0,149.09,0c59.6,0,110.99,34.94,134.87,85.47.68,1.46,1.36,2.96,2.04,4.47,7.81,18.15,12.18,38.19,12.18,59.21Z"/>
        <g>
          <path d="m407.67,668l-51.35,29.51-14.56-26.35-2.14-3.83-182.24-323.37-2.38-4.22-7.76-13.78-2.38-4.22-13.88-24.61-.05-.1c71.97-36.79,128.42-53.63,135.21-55.57.44-.15.68-.19.68-.19l8.2,24.95,1.55,4.61,5.78,17.52,1.5,4.61,113.13,343.22,1.46,4.22,9.22,27.62Z"/>
          <g>
            <path class="cls-6" d="m284.56,451.19l-43.48-95.17c-1.46-3.15-3.98-5.48-7.28-6.6-3.25-1.12-6.75-.83-9.76.78l-3.93,2.04c-5.92,3.15-8.35,10.58-5.29,16.6l24.99,49.16,7.57,14.71,14.85,29.27c2.43,4.85,7.72,7.52,13.06,6.6,2.23-.34,4.22-1.31,5.87-2.67,1.26-1.07,2.28-2.28,3.06-3.74,1.84-3.45,1.94-7.47.34-10.97Zm-4.22,8.93c-1.21,2.18-3.3,3.69-5.78,4.08-3.45.58-6.84-1.12-8.44-4.22l-47.37-93.13c-1.7-3.4-.78-7.47,2.04-9.8.39-.34.87-.68,1.36-.92l3.93-2.04c1.94-1.07,4.17-1.21,6.31-.49,2.09.73,3.74,2.23,4.66,4.22l43.49,95.22c1.02,2.28.97,4.85-.19,7.09Z"/>
            <polygon class="cls-6" points="397.02 636.17 398.44 640.36 341.75 671.16 339.64 667.31 397.02 636.17"/>
          </g>
        </g>
        <path class="cls-6" d="m286,89.93c-55.28,16.74-113.32,42.81-175.54,78.67-28.15,16.26-59.45,35.57-87.6,59.89-.87-1.41-1.75-2.81-2.57-4.22,28.29-24.27,59.55-43.63,87.75-59.84,62.32-35.91,120.46-62.07,175.93-78.96.68,1.46,1.36,2.96,2.04,4.47Z"/>
        <path class="cls-6" d="m276.59,270.81c-46.25,9.61-90.37,28.39-129.34,55.13l-2.38-4.22c39.31-26.89,83.67-45.81,130.16-55.52l1.55,4.61Z"/>
        <path class="cls-6" d="m283.87,292.94c-21.84,5.34-44.65,11.99-66.93,20.77-21.94,8.64-41.84,18.73-59.55,30.24l-2.38-4.22c17.91-11.6,38-21.84,60.13-30.53,22.37-8.83,45.28-15.48,67.22-20.87l1.5,4.61Z"/>
      </g>
    </g>
  </g>
  <g>
    <g>
      <path d="m708.94,911.88c-.2,0-.41-.04-.6-.13-.72-.33-1.03-1.18-.7-1.9l52.81-114.14-73.74-27.71-38.51,87.38c-.32.72-1.16,1.04-1.89.73-.72-.32-1.05-1.16-.73-1.89l39.06-88.62c.31-.69,1.11-1.04,1.81-.76l76.45,28.73c.37.14.67.43.82.8.15.37.14.78-.03,1.14l-53.46,115.54c-.24.52-.76.83-1.3.83Z"/>
      <path d="m644.99,857.12c2.27.29,3.94-2.06,2.92-4.11-5.35-10.81-19.79-35.5-33.37-19.52-13.76,16.19,17.68,21.99,30.45,23.63Z"/>
      <path d="m707.46,912.13c2.27.29,3.94-2.06,2.92-4.1-5.35-10.81-19.79-35.5-33.37-19.52-13.76,16.19,17.68,21.99,30.45,23.63Z"/>
      <path d="m752.82,817.13c-.17,0-.34-.03-.51-.09l-74.91-28.52c-.74-.28-1.11-1.11-.83-1.85.28-.74,1.12-1.09,1.85-.83l74.91,28.52c.74.28,1.11,1.11.83,1.85-.22.57-.76.92-1.34.92Z"/>
    </g>
    <g>
      <path d="m458.69,241.06c-.14.15-.31.27-.5.36-.73.31-1.57-.04-1.87-.77l-48.75-115.93-70.16,35.82,38.62,87.33c.32.72-.01,1.56-.73,1.89-.72.32-1.57,0-1.89-.73l-39.16-88.57c-.31-.7-.02-1.52.66-1.85l72.74-37.13c.36-.18.77-.21,1.14-.07.37.14.67.42.83.79l49.35,117.35c.22.53.1,1.12-.26,1.52Z"/>
      <path d="m375.13,251.42c1.74-1.48,1.13-4.29-1.06-4.92-11.59-3.33-39.57-9.3-36.91,11.5,2.69,21.08,28.16,1.75,37.98-6.58Z"/>
      <path d="m457.88,242.32c1.74-1.48,1.13-4.29-1.06-4.92-11.6-3.33-39.57-9.3-36.91,11.5,2.69,21.08,28.16,1.75,37.98-6.58Z"/>
      <path d="m418.25,144.79c-.11.13-.25.23-.41.31l-71.55,36.14c-.71.36-1.57.07-1.92-.63-.35-.71-.05-1.56.63-1.92l71.55-36.14c.71-.36,1.57-.07,1.92.63.27.55.17,1.18-.22,1.61Z"/>
    </g>
    <g>
      <path d="m239.02,637.08c-.05.27-.17.51-.36.68-.5.58-1.39.6-1.97.1l-2.98-2.76-86.84-80.36,2.04-1.88,89.65,82.94c.38.37.51.88.46,1.3Z"/>
      <path d="m238.76,638.7c.94-2.02-.74-4.28-2.93-3.94-11.6,1.76-38.74,7.82-27.98,25.24,10.9,17.64,25.6-9.9,30.91-21.29Z"/>
    </g>
  </g>
</svg>