<?xml version="1.0" encoding="UTF-8"?>
<svg id="Illustration" xmlns="http://www.w3.org/2000/svg" xmlns:xlink="http://www.w3.org/1999/xlink" viewBox="0 0 3710 3710">
  <defs>
    <style>
      .cls-1 {
        fill: url(#linear-gradient-75);
      }

      .cls-2 {
        fill: url(#linear-gradient-2);
      }

      .cls-3 {
        fill: url(#linear-gradient-51);
      }

      .cls-4 {
        fill: url(#_5);
      }

      .cls-5, .cls-6 {
        fill: #fff;
      }

      .cls-7 {
        fill: url(#linear-gradient-17);
      }

      .cls-8 {
        fill: #6200a8;
      }

      .cls-9 {
        fill: url(#linear-gradient-80);
      }

      .cls-10 {
        fill: url(#linear-gradient-43);
      }

      .cls-11 {
        fill: url(#linear-gradient-15);
      }

      .cls-12 {
        fill: url(#linear-gradient-58);
      }

      .cls-13 {
        fill: url(#linear-gradient-69);
      }

      .cls-14 {
        fill: url(#linear-gradient-81);
      }

      .cls-15 {
        fill: url(#linear-gradient-18);
      }

      .cls-16 {
        fill: url(#linear-gradient-56);
      }

      .cls-17 {
        fill: url(#linear-gradient-40);
      }

      .cls-18 {
        fill: url(#linear-gradient-52);
      }

      .cls-19 {
        fill: url(#linear-gradient-28);
      }

      .cls-20 {
        fill: url(#linear-gradient-14);
      }

      .cls-21 {
        fill: url(#linear-gradient-36);
      }

      .cls-22 {
        fill: url(#linear-gradient-78);
      }

      .cls-23 {
        fill: url(#linear-gradient-20);
      }

      .cls-24 {
        fill: url(#linear-gradient-6);
      }

      .cls-25 {
        fill: url(#linear-gradient-53);
      }

      .cls-26 {
        fill: url(#linear-gradient-60);
      }

      .cls-27 {
        fill: url(#linear-gradient-84);
      }

      .cls-28 {
        fill: url(#linear-gradient-35);
      }

      .cls-29 {
        fill: url(#linear-gradient-48);
      }

      .cls-30 {
        fill: url(#linear-gradient-32);
      }

      .cls-31 {
        fill: url(#linear-gradient-11);
      }

      .cls-32 {
        fill: url(#linear-gradient-50);
      }

      .cls-33 {
        fill: url(#linear-gradient-63);
      }

      .cls-34 {
        fill: url(#linear-gradient-67);
      }

      .cls-35 {
        fill: #1f5aa9;
      }

      .cls-36 {
        fill: url(#linear-gradient-39);
      }

      .cls-37 {
        fill: url(#linear-gradient-10);
      }

      .cls-38 {
        fill: url(#linear-gradient-59);
      }

      .cls-39 {
        fill: url(#linear-gradient-49);
      }

      .cls-40 {
        fill: url(#linear-gradient-37);
      }

      .cls-41 {
        fill: url(#linear-gradient-82);
      }

      .cls-42 {
        fill: url(#linear-gradient-16);
      }

      .cls-43 {
        fill: url(#linear-gradient-31);
      }

      .cls-44 {
        fill: url(#Gradiente_sem_nome_283);
      }

      .cls-45 {
        fill: url(#linear-gradient-61);
      }

      .cls-46 {
        fill: url(#linear-gradient-68);
      }

      .cls-47 {
        fill: url(#linear-gradient-62);
      }

      .cls-48 {
        fill: url(#linear-gradient-41);
      }

      .cls-49 {
        fill: url(#linear-gradient-76);
      }

      .cls-50 {
        fill: url(#linear-gradient-21);
      }

      .cls-51 {
        fill: url(#linear-gradient-72);
      }

      .cls-52 {
        fill: url(#linear-gradient-25);
      }

      .cls-53 {
        fill: url(#linear-gradient-5);
      }

      .cls-54 {
        fill: url(#linear-gradient-64);
      }

      .cls-55 {
        fill: url(#linear-gradient-83);
      }

      .cls-56 {
        fill: url(#linear-gradient-54);
      }

      .cls-57 {
        fill: url(#linear-gradient-45);
      }

      .cls-58 {
        fill: url(#linear-gradient-55);
      }

      .cls-59 {
        clip-path: url(#clippath);
      }

      .cls-60 {
        fill: url(#linear-gradient-34);
      }

      .cls-61 {
        fill: url(#linear-gradient-65);
      }

      .cls-62 {
        fill: url(#linear-gradient-70);
      }

      .cls-63 {
        fill: none;
      }

      .cls-64 {
        fill: url(#Gradiente_sem_nome_871);
      }

      .cls-65 {
        fill: url(#linear-gradient-79);
      }

      .cls-66 {
        fill: url(#linear-gradient-7);
      }

      .cls-67 {
        fill: url(#linear-gradient-66);
      }

      .cls-68 {
        fill: url(#Gradiente_sem_nome_1055);
      }

      .cls-69 {
        fill: url(#Gradiente_sem_nome_536);
      }

      .cls-70 {
        fill: url(#linear-gradient-24);
      }

      .cls-71 {
        fill: url(#linear-gradient-73);
      }

      .cls-72 {
        fill: url(#linear-gradient-9);
      }

      .cls-73 {
        fill: url(#linear-gradient-22);
      }

      .cls-74 {
        fill: url(#linear-gradient-74);
      }

      .cls-75 {
        fill: url(#linear-gradient-42);
      }

      .cls-76 {
        fill: url(#linear-gradient-3);
      }

      .cls-6 {
        opacity: .58;
      }

      .cls-77 {
        fill: url(#linear-gradient);
      }

      .cls-78 {
        fill: url(#linear-gradient-27);
      }

      .cls-79 {
        fill: url(#linear-gradient-33);
      }

      .cls-80 {
        fill: url(#linear-gradient-38);
      }

      .cls-81 {
        fill: url(#linear-gradient-29);
      }

      .cls-82 {
        fill: url(#linear-gradient-30);
      }

      .cls-83 {
        fill: url(#linear-gradient-23);
      }

      .cls-84 {
        fill: url(#linear-gradient-19);
      }

      .cls-85 {
        fill: url(#linear-gradient-71);
      }

      .cls-86 {
        fill: url(#linear-gradient-4);
      }

      .cls-87 {
        fill: url(#linear-gradient-77);
      }

      .cls-88 {
        fill: url(#linear-gradient-8);
      }

      .cls-89 {
        fill: url(#linear-gradient-44);
      }

      .cls-90 {
        fill: url(#linear-gradient-57);
      }

      .cls-91 {
        fill: url(#linear-gradient-47);
      }

      .cls-92 {
        fill: url(#linear-gradient-46);
      }

      .cls-93 {
        fill: url(#linear-gradient-12);
      }

      .cls-94 {
        fill: url(#linear-gradient-13);
      }

      .cls-95 {
        fill: url(#linear-gradient-26);
      }
    </style>
    <linearGradient id="Gradiente_sem_nome_536" data-name="Gradiente sem nome 536" x1="1877.51" y1="548.3" x2="1843.77" y2="2023.96" gradientUnits="userSpaceOnUse">
      <stop offset="0" stop-color="#3a154f"/>
      <stop offset=".99" stop-color="#81557b"/>
    </linearGradient>
    <linearGradient id="linear-gradient" x1="3288.4" y1="1364.62" x2="2525.82" y2="2572.59" gradientUnits="userSpaceOnUse">
      <stop offset="0" stop-color="#b37cff"/>
      <stop offset="1" stop-color="#f895e7"/>
    </linearGradient>
    <linearGradient id="linear-gradient-2" x1="3259.76" y1="1225.12" x2="3467.8" y2="1225.12" gradientTransform="translate(279.6 -471.86) rotate(22.17)" gradientUnits="userSpaceOnUse">
      <stop offset="0" stop-color="#a737d5"/>
      <stop offset="1" stop-color="#ef497a"/>
    </linearGradient>
    <linearGradient id="linear-gradient-3" x1="480.94" y1="1070.08" x2="811.61" y2="1839.41" xlink:href="#linear-gradient"/>
    <linearGradient id="linear-gradient-4" x1="261.42" y1="3564.2" x2="747.36" y2="2065.89" gradientTransform="matrix(1,0,0,1,0,0)" xlink:href="#linear-gradient-2"/>
    <linearGradient id="linear-gradient-5" x1="1734.97" y1="2661.83" x2="1887.71" y2="1490.88" gradientTransform="translate(2880.31 329.52) rotate(173.44) scale(1 -1)" xlink:href="#linear-gradient"/>
    <linearGradient id="linear-gradient-6" x1="584.49" y1="3686.9" x2="1394.34" y2="535.21" gradientTransform="translate(776.68 231.02) rotate(15.61)" xlink:href="#linear-gradient-2"/>
    <linearGradient id="linear-gradient-7" x1="2954.2" y1="692.1" x2="2872.74" y2="1064.21" gradientUnits="userSpaceOnUse">
      <stop offset="0" stop-color="#2b3582"/>
      <stop offset="1" stop-color="#150e42"/>
    </linearGradient>
    <linearGradient id="linear-gradient-8" x1="2975.15" y1="696.67" x2="2893.56" y2="1069.39" xlink:href="#linear-gradient-7"/>
    <linearGradient id="linear-gradient-9" x1="1661.43" y1="-52.66" x2="1585.54" y2="294.02" gradientTransform="translate(-241.33 606.79) rotate(2.95)" xlink:href="#linear-gradient-7"/>
    <linearGradient id="linear-gradient-10" x1="1682.49" y1="-48.47" x2="1606.49" y2="298.73" gradientTransform="translate(-241.33 606.79) rotate(2.95)" xlink:href="#linear-gradient-7"/>
    <linearGradient id="linear-gradient-11" x1="3438.81" y1="1959.68" x2="3383.66" y2="2211.59" gradientTransform="translate(-1262.19 799.15) rotate(-25.5)" xlink:href="#linear-gradient-7"/>
    <linearGradient id="linear-gradient-12" x1="3454.11" y1="1962.72" x2="3398.88" y2="2215.02" gradientTransform="translate(-1262.19 799.15) rotate(-25.5)" xlink:href="#linear-gradient-7"/>
    <linearGradient id="linear-gradient-13" x1="1186.68" y1="347.42" x2="1110.03" y2="693.33" gradientTransform="translate(1646.01 -294.15) rotate(28.24)" xlink:href="#linear-gradient-7"/>
    <linearGradient id="linear-gradient-14" x1="1184.06" y1="346.33" x2="1107.4" y2="692.26" gradientTransform="translate(1646.01 -294.15) rotate(28.24)" xlink:href="#linear-gradient-7"/>
    <linearGradient id="linear-gradient-15" x1="1340.01" y1="380.63" x2="1263.36" y2="726.55" gradientTransform="translate(1646.01 -294.15) rotate(28.24)" xlink:href="#linear-gradient-7"/>
    <linearGradient id="linear-gradient-16" x1="1333.96" y1="379.55" x2="1257.31" y2="725.48" gradientTransform="translate(1646.01 -294.15) rotate(28.24)" xlink:href="#linear-gradient-7"/>
    <linearGradient id="linear-gradient-17" x1="1252.15" y1="361.25" x2="1175.61" y2="706.66" gradientTransform="translate(1646.01 -294.15) rotate(28.24)" xlink:href="#linear-gradient-7"/>
    <linearGradient id="linear-gradient-18" x1="366.91" y1="1300.25" x2="300.32" y2="1600.79" gradientTransform="translate(884.53 -785.67) rotate(16.09)" xlink:href="#linear-gradient-7"/>
    <linearGradient id="linear-gradient-19" x1="364.63" y1="1299.3" x2="298.03" y2="1599.85" gradientTransform="translate(884.53 -785.67) rotate(16.09)" xlink:href="#linear-gradient-7"/>
    <linearGradient id="linear-gradient-20" x1="500.14" y1="1329.11" x2="433.54" y2="1629.66" gradientTransform="translate(884.53 -785.67) rotate(16.09)" xlink:href="#linear-gradient-7"/>
    <linearGradient id="linear-gradient-21" x1="494.87" y1="1328.17" x2="428.27" y2="1628.72" gradientTransform="translate(884.53 -785.67) rotate(16.09)" xlink:href="#linear-gradient-7"/>
    <linearGradient id="linear-gradient-22" x1="423.81" y1="1312.27" x2="357.31" y2="1612.35" gradientTransform="translate(884.53 -785.67) rotate(16.09)" xlink:href="#linear-gradient-7"/>
    <linearGradient id="linear-gradient-23" x1="2087.84" y1="813.25" x2="2044.66" y2="1008.12" gradientTransform="translate(-995.05 669.6) rotate(-11.03)" xlink:href="#linear-gradient-7"/>
    <linearGradient id="linear-gradient-24" x1="2086.37" y1="812.63" x2="2043.18" y2="1007.52" gradientTransform="translate(-995.05 669.6) rotate(-11.03)" xlink:href="#linear-gradient-7"/>
    <linearGradient id="linear-gradient-25" x1="2174.23" y1="831.96" x2="2131.04" y2="1026.84" gradientTransform="translate(-995.05 669.6) rotate(-11.03)" xlink:href="#linear-gradient-7"/>
    <linearGradient id="linear-gradient-26" x1="2170.82" y1="831.35" x2="2127.63" y2="1026.23" gradientTransform="translate(-995.05 669.6) rotate(-11.03)" xlink:href="#linear-gradient-7"/>
    <linearGradient id="linear-gradient-27" x1="2124.73" y1="821.04" x2="2081.61" y2="1015.63" gradientTransform="translate(-995.05 669.6) rotate(-11.03)" xlink:href="#linear-gradient-7"/>
    <linearGradient id="linear-gradient-28" x1="1621.59" y1="1070.22" x2="1754.45" y2="2110.94" gradientUnits="userSpaceOnUse">
      <stop offset="0" stop-color="#3f2bf3"/>
      <stop offset="1" stop-color="#3522cb"/>
    </linearGradient>
    <linearGradient id="Gradiente_sem_nome_1055" data-name="Gradiente sem nome 1055" x1="2036.9" y1="2229.91" x2="1109.79" y2="4192.08" gradientUnits="userSpaceOnUse">
      <stop offset="0" stop-color="#774092"/>
      <stop offset="1" stop-color="#ee7402"/>
    </linearGradient>
    <linearGradient id="linear-gradient-29" x1="1022.11" y1="1753.03" x2="1082.12" y2="3147.32" gradientUnits="userSpaceOnUse">
      <stop offset="0" stop-color="#53d8ff"/>
      <stop offset="1" stop-color="#3840f7"/>
    </linearGradient>
    <linearGradient id="linear-gradient-30" x1="1081.36" y1="2377.48" x2="1024.98" y2="2882.71" xlink:href="#linear-gradient-7"/>
    <linearGradient id="linear-gradient-31" x1="863.59" y1="2619.18" x2="2240.23" y2="2407.39" xlink:href="#linear-gradient-29"/>
    <linearGradient id="linear-gradient-32" x1="1066.24" y1="2517.97" x2="1046.44" y2="2695.39" xlink:href="#linear-gradient-7"/>
    <linearGradient id="linear-gradient-33" x1="2522.48" y1="1844.9" x2="2762.5" y2="3613.35" xlink:href="#linear-gradient-29"/>
    <linearGradient id="linear-gradient-34" x1="2646.06" y1="2375.17" x2="2589.68" y2="2880.4" xlink:href="#linear-gradient-7"/>
    <linearGradient id="linear-gradient-35" x1="2193.95" y1="2602.13" x2="3591.77" y2="2552.71" xlink:href="#linear-gradient-29"/>
    <linearGradient id="linear-gradient-36" x1="2630.95" y1="2515.66" x2="2611.15" y2="2693.08" xlink:href="#linear-gradient-7"/>
    <linearGradient id="linear-gradient-37" x1="1846.85" y1="3064.63" x2="1800.27" y2="2376.61" xlink:href="#linear-gradient-29"/>
    <linearGradient id="linear-gradient-38" x1="1728.38" y1="1639.07" x2="1918.42" y2="2983.96" xlink:href="#linear-gradient-29"/>
    <linearGradient id="linear-gradient-39" x1="1623.47" y1="2448.47" x2="1509.92" y2="2649.44" xlink:href="#linear-gradient-7"/>
    <linearGradient id="linear-gradient-40" x1="1677.37" y1="2492.49" x2="1586.67" y2="2653.02" xlink:href="#linear-gradient-7"/>
    <linearGradient id="linear-gradient-41" x1="1747.08" y1="2467.02" x2="1641.57" y2="2653.77" xlink:href="#linear-gradient-7"/>
    <linearGradient id="linear-gradient-42" x1="1806.74" y1="2482.46" x2="1709.83" y2="2653.97" xlink:href="#linear-gradient-7"/>
    <linearGradient id="linear-gradient-43" x1="1862.81" y1="2517.45" x2="1787.19" y2="2651.3" xlink:href="#linear-gradient-7"/>
    <linearGradient id="linear-gradient-44" x1="1932.09" y1="2495.07" x2="1842.67" y2="2653.33" xlink:href="#linear-gradient-7"/>
    <linearGradient id="linear-gradient-45" x1="1997.42" y1="2479.79" x2="1899.06" y2="2653.89" xlink:href="#linear-gradient-7"/>
    <linearGradient id="linear-gradient-46" x1="2055.83" y1="2505.12" x2="1973.32" y2="2651.15" xlink:href="#linear-gradient-7"/>
    <linearGradient id="linear-gradient-47" x1="2171.27" y1="2504.48" x2="2090.04" y2="2648.23" xlink:href="#linear-gradient-7"/>
    <linearGradient id="linear-gradient-48" x1="2129.07" y1="2467.02" x2="2023.54" y2="2653.79" xlink:href="#linear-gradient-7"/>
    <linearGradient id="_5" data-name="  5" x1="1406.31" y1="1728.18" x2="1507.36" y2="2738.71" gradientUnits="userSpaceOnUse">
      <stop offset="0" stop-color="#53d8ff"/>
      <stop offset=".7" stop-color="#406df9"/>
      <stop offset="1" stop-color="#3840f7"/>
    </linearGradient>
    <linearGradient id="linear-gradient-49" x1="1565.05" y1="1711.97" x2="1666.11" y2="2722.51" xlink:href="#linear-gradient-29"/>
    <linearGradient id="linear-gradient-50" x1="1721.59" y1="1696.05" x2="1822.65" y2="2706.58" xlink:href="#linear-gradient-29"/>
    <linearGradient id="linear-gradient-51" x1="1880.34" y1="1679.84" x2="1981.39" y2="2690.37" xlink:href="#linear-gradient-29"/>
    <linearGradient id="linear-gradient-52" x1="2034.17" y1="1664.14" x2="2135.22" y2="2674.67" xlink:href="#linear-gradient-29"/>
    <linearGradient id="linear-gradient-53" x1="2192.92" y1="1647.93" x2="2293.97" y2="2658.46" xlink:href="#linear-gradient-29"/>
    <linearGradient id="linear-gradient-54" x1="1913.72" y1="2071.62" x2="1938.67" y2="1672.39" xlink:href="#linear-gradient-29"/>
    <linearGradient id="linear-gradient-55" x1="1922.57" y1="1540.58" x2="1922.57" y2="1691.5" xlink:href="#linear-gradient-7"/>
    <clipPath id="clippath">
      <path class="cls-63" d="m2387.15,1973.48h-905.57c-15.53,1.24-34.16-96.79-34.16-127.32l-21.12-1077.61h978.86l-3.73,1111.15c0,9.95-11.18,89.44-14.28,93.78Z"/>
    </clipPath>
    <linearGradient id="linear-gradient-56" x1="1389.54" y1="1626.72" x2="2323.97" y2="1626.72" gradientTransform="translate(28.22 -27.65) rotate(-1.25)" xlink:href="#linear-gradient-7"/>
    <linearGradient id="Gradiente_sem_nome_871" data-name="Gradiente sem nome 871" x1="1549.93" y1="1049.35" x2="3515.98" y2="3807.34" gradientTransform="translate(5.32 -4.86) rotate(-.24)" gradientUnits="userSpaceOnUse">
      <stop offset="0" stop-color="#fdf53f"/>
      <stop offset="0" stop-color="#fcf33f"/>
      <stop offset="0" stop-color="#fbec40"/>
      <stop offset="0" stop-color="#f8e043"/>
      <stop offset="0" stop-color="#f8dd44"/>
      <stop offset="0" stop-color="#f6d345"/>
      <stop offset=".02" stop-color="#f0b34c"/>
      <stop offset=".04" stop-color="#eb9a51"/>
      <stop offset=".06" stop-color="#e78855"/>
      <stop offset=".08" stop-color="#e57d57"/>
      <stop offset=".11" stop-color="#e57a58"/>
      <stop offset=".28" stop-color="#a8584f"/>
      <stop offset=".44" stop-color="#753b48"/>
      <stop offset=".59" stop-color="#4d2543"/>
      <stop offset=".73" stop-color="#30153f"/>
      <stop offset=".85" stop-color="#1f0b3c"/>
      <stop offset=".94" stop-color="#19083c"/>
    </linearGradient>
    <linearGradient id="linear-gradient-57" x1="1764.54" y1="1741.45" x2="1914.93" y2="999.88" xlink:href="#linear-gradient-29"/>
    <linearGradient id="linear-gradient-58" x1="1905.74" y1="1732.19" x2="1978.69" y2="1732.19" gradientTransform="translate(3181.84 -556.04) rotate(76.72)" gradientUnits="userSpaceOnUse">
      <stop offset="0" stop-color="#ce1567"/>
      <stop offset="1" stop-color="#7a1dbc"/>
    </linearGradient>
    <linearGradient id="linear-gradient-59" x1="1922.09" y1="3138.76" x2="2048.34" y2="3138.76" gradientTransform="translate(2861.66) rotate(-180) scale(1 -1)" xlink:href="#linear-gradient-7"/>
    <linearGradient id="linear-gradient-60" x1="2240.24" y1="2985.04" x2="1775.88" y2="3349.65" gradientTransform="translate(2861.66) rotate(-180) scale(1 -1)" xlink:href="#linear-gradient-29"/>
    <linearGradient id="linear-gradient-61" x1="2709.98" y1="2990.61" x2="2684.78" y2="3210.58" gradientTransform="translate(-1811.84)" gradientUnits="userSpaceOnUse">
      <stop offset="0" stop-color="#c4421b"/>
      <stop offset="1" stop-color="#5c0e16"/>
    </linearGradient>
    <linearGradient id="linear-gradient-62" x1="3137.9" y1="3093.25" x2="2688.84" y2="3445.84" gradientTransform="translate(-1811.84)" xlink:href="#linear-gradient-29"/>
    <linearGradient id="linear-gradient-63" x1="2937.07" y1="3140.55" x2="3114.75" y2="3140.55" gradientTransform="translate(-1811.84)" xlink:href="#linear-gradient-7"/>
    <linearGradient id="linear-gradient-64" x1="2975.5" y1="3018.75" x2="2951.92" y2="3224.52" xlink:href="#linear-gradient-61"/>
    <linearGradient id="linear-gradient-65" x1="1242.2" y1="2402.19" x2="346.13" y2="3567.08" gradientUnits="userSpaceOnUse">
      <stop offset="0" stop-color="#cb236d"/>
      <stop offset="1" stop-color="#4c246d"/>
    </linearGradient>
    <linearGradient id="linear-gradient-66" x1="916.11" y1="1596.11" x2="1029.14" y2="1596.11" gradientTransform="matrix(1,0,0,1,0,0)" xlink:href="#linear-gradient-61"/>
    <linearGradient id="linear-gradient-67" x1="495.38" y1="783.51" x2="655.58" y2="744.52" gradientTransform="translate(133.67 1095.14) rotate(-28.87)" xlink:href="#linear-gradient-61"/>
    <linearGradient id="linear-gradient-68" x1="482.62" y1="694.1" x2="686.56" y2="694.1" gradientTransform="translate(133.67 1095.14) rotate(-28.87)" xlink:href="#linear-gradient-7"/>
    <linearGradient id="linear-gradient-69" x1="475.94" y1="757.86" x2="519.5" y2="747.26" gradientTransform="translate(133.67 1095.14) rotate(-28.87)" xlink:href="#linear-gradient-61"/>
    <linearGradient id="linear-gradient-70" x1="-142.42" y1="7674.58" x2="-206.25" y2="7884.3" gradientTransform="translate(-1278.36 9672.25) rotate(14.96) scale(1 -1)" xlink:href="#linear-gradient-61"/>
    <linearGradient id="linear-gradient-71" x1="615.57" y1="1278.6" x2="551.74" y2="1488.32" gradientTransform="translate(1897.03) rotate(-180) scale(1 -1)" xlink:href="#linear-gradient-61"/>
    <linearGradient id="linear-gradient-72" x1="3087.63" y1="2424.3" x2="2871.67" y2="1823.68" xlink:href="#linear-gradient-7"/>
    <linearGradient id="linear-gradient-73" x1="-2905.25" y1="1267.72" x2="-3166.14" y2="2158.5" gradientTransform="translate(-457.74) rotate(-180) scale(1 -1)" gradientUnits="userSpaceOnUse">
      <stop offset="0" stop-color="#f9b776"/>
      <stop offset="1" stop-color="#f47960"/>
    </linearGradient>
    <linearGradient id="linear-gradient-74" x1="-2942.37" y1="1283.21" x2="-3154.69" y2="2008.15" xlink:href="#linear-gradient-73"/>
    <linearGradient id="linear-gradient-75" x1="-3227.34" y1="2008.82" x2="-3178.3" y2="1748.16" xlink:href="#linear-gradient-73"/>
    <linearGradient id="linear-gradient-76" x1="-3121.51" y1="1719.5" x2="-3291.48" y2="1570.52" xlink:href="#linear-gradient-73"/>
    <linearGradient id="linear-gradient-77" x1="3069.15" y1="2430.94" x2="2853.2" y2="1830.32" xlink:href="#linear-gradient-7"/>
    <linearGradient id="linear-gradient-78" x1="-3165.74" y1="1769.97" x2="-3335.71" y2="1620.98" xlink:href="#linear-gradient-73"/>
    <linearGradient id="linear-gradient-79" x1="-3590.58" y1="1475.65" x2="-3209.91" y2="2020.12" xlink:href="#linear-gradient-73"/>
    <linearGradient id="linear-gradient-80" x1="-3609.12" y1="1488.61" x2="-3228.45" y2="2033.09" xlink:href="#linear-gradient-73"/>
    <linearGradient id="linear-gradient-81" x1="1776.03" y1="3198.93" x2="1869.44" y2="3198.93" gradientTransform="translate(1381.77)" xlink:href="#linear-gradient-2"/>
    <linearGradient id="linear-gradient-82" x1="1381.32" y1="3567.29" x2="1515.74" y2="1996.2" gradientTransform="translate(1381.77)" xlink:href="#linear-gradient-73"/>
    <linearGradient id="linear-gradient-83" x1="1342.05" y1="3181.87" x2="1493.2" y2="3181.87" gradientTransform="translate(1381.77)" xlink:href="#linear-gradient-2"/>
    <linearGradient id="linear-gradient-84" x1="1651.72" y1="3590.67" x2="1786.18" y2="2019.16" gradientTransform="translate(1381.77)" xlink:href="#linear-gradient-73"/>
    <linearGradient id="Gradiente_sem_nome_283" data-name="Gradiente sem nome 283" x1="1556.41" y1="2337.65" x2="1220.1" y2="2875.74" gradientTransform="translate(1381.77)" gradientUnits="userSpaceOnUse">
      <stop offset="0" stop-color="#391650"/>
      <stop offset="1" stop-color="#502583"/>
    </linearGradient>
  </defs>
  <path class="cls-69" d="m3115.7,2350.11c-280.84,656.44-1022.18,938.39-1603.03,890.32-158.6-13.13-477.69-39.54-726.85-275.15-478.48-452.49-404.79-1398.31,53.25-1955.16,58.99-71.71,467.28-552.16,1103.54-545.73,465.83,4.71,792.79,267.85,832.55,300.63,50.22,41.41,161,139.82,260.83,295.95,234.58,366.83,255.2,878.93,79.7,1289.14Z"/>
  <g>
    <path class="cls-77" d="m3171.11,2072.86c34.89-110.18,14.24-246.23,12.54-368.82-.9-64.82,3.94-128.24,24.08-190.23,20.02-61.63,60.48-125.34,42.99-192.63-35.23-135.57-175.51-98.46-265.68-14.75-104.64,97.14-156.97,274.53-212.02,408.81-33.19,80.95-76.84,162.47-100.84,246.5-39.77,139.21-23.18,242.8,34.26,320.04,55.09,74.08,152.2,102.91,238.85,71.07,78.28-28.77,169.55-102.24,225.83-279.99Z"/>
    <path class="cls-2" d="m2789.3,2550.01h.05c2.73-.03,4.92-2.27,4.89-5-.02-1.75-1.46-177.75,35.06-414.7,33.68-218.53,107.45-535.1,267.64-802.16,1.41-2.34.65-5.38-1.7-6.78-2.34-1.41-5.38-.65-6.78,1.7-161.05,268.49-235.16,586.46-268.97,805.93-36.62,237.71-35.16,414.37-35.15,416.12.03,2.71,2.24,4.89,4.94,4.89Z"/>
  </g>
  <g>
    <path class="cls-76" d="m553.28,1994.13c-40.87-129.1-16.68-288.49-14.69-432.11,1.06-75.94-4.62-150.25-28.21-222.88-23.46-72.21-70.86-146.85-50.37-225.69,41.28-158.84,205.63-115.35,311.28-17.28,122.6,113.81,183.91,321.65,248.41,478.97,38.89,94.84,90.02,190.35,118.15,288.8,46.6,163.1,27.15,284.47-40.14,374.96-64.54,86.79-178.32,120.58-279.85,83.27-91.71-33.7-198.65-119.79-264.59-328.05Z"/>
    <path class="cls-86" d="m1000.63,2557.49h-.11c-5.58-.06-10.07-4.64-10.01-10.22.09-8.19,4.6-825.54-354.04-1423.44-2.87-4.79-1.32-11,3.47-13.88,4.8-2.88,11-1.32,13.87,3.47,189.06,315.17,276.03,688.3,315.7,945.81,42.95,278.85,41.25,486.19,41.23,488.25-.06,5.54-4.58,10-10.11,10Z"/>
  </g>
  <g>
    <path class="cls-53" d="m952.66,2450.35c-4.64-135.33,61.54-282.34,102.1-420.13,21.45-72.86,35.97-145.95,32.79-222.25-3.16-75.86-28.74-160.5,12.2-230.92,82.49-141.88,229.08-55.78,304.45,67.1,87.46,142.6,90.59,359.26,110.4,528.14,11.94,101.81,35.49,207.55,36.1,309.94,1,169.62-50.38,281.29-139.54,350.34-85.51,66.23-204.18,68.16-291.93,4.91-79.26-57.13-159.1-168.82-166.58-387.13Z"/>
    <path class="cls-24" d="m1231.95,3113.28s-.07-.02-.11-.03c-5.36-1.56-8.45-7.17-6.89-12.54,2.29-7.87,226.53-793.87,41.96-1466.2-1.48-5.38,1.69-10.95,7.07-12.43,5.4-1.49,10.95,1.69,12.43,7.08,97.3,354.41,80.68,737.18,49.61,995.87-33.65,280.13-91.07,479.36-91.65,481.34-1.55,5.32-7.1,8.4-12.43,6.91Z"/>
  </g>
  <g>
    <path class="cls-66" d="m2934.82,939.22c0,16.47-15.54,29.83-34.71,29.83s-34.71-13.35-34.71-29.83,15.54-29.83,34.71-29.83,34.71,13.35,34.71,29.83Z"/>
    <path class="cls-88" d="m2960.36,767.36c-20.19-12.77-23.58-26.37-38.83-28.84-15.25-2.47-13.69,24.72-13.69,24.72v169.34c0,6.14,7.55,11.12,13.69,11.12s12,1.65,12-4.49l1.05-160.95c41.96,7.29,64.18,59.55,64.18,59.55,3.71-29.25-20.42-59.08-38.41-70.46Z"/>
  </g>
  <g>
    <path class="cls-72" d="m1390.78,868.6c-.79,15.33-15.89,27.01-33.73,26.09-17.84-.92-31.66-14.09-30.87-29.42s15.89-27.01,33.73-26.09c17.84.92,31.66,14.09,30.87,29.42Z"/>
    <path class="cls-37" d="m1422.78,709.92c-18.17-12.85-18.77-25.57-32.84-28.6-14.07-3.03-12.02,22.44-12.02,22.44l-8.11,157.57c-.29,5.72,4.58,10.61,10.3,10.91,5.72.29,10.13,2.06,10.42-3.65l8.21-149.73c38.69,8.79,56.63,58.47,56.63,58.47,4.85-27.04-16.41-55.96-32.6-67.41Z"/>
  </g>
  <g>
    <path class="cls-31" d="m2745.71,1243.86c4.8,10.07-.8,22.76-12.52,28.35-11.71,5.59-25.1,1.96-29.91-8.11s.8-22.76,12.52-28.35c11.71-5.59,25.1-1.96,29.91,8.11Z"/>
    <path class="cls-93" d="m2711.22,1131.4c-16.06-1.92-20.84-9.84-30.88-6.9-10.04,2.93.09,18.5.09,18.5l49.37,103.48c1.79,3.75,6.6,5.19,10.36,3.4,3.75-1.79,7.19-2.19,5.39-5.94l-46.59-98.51c27.76-7.78,56.42,17.75,56.42,17.75-6.26-18.96-29.86-30.07-44.17-31.78Z"/>
  </g>
  <g>
    <g>
      <path class="cls-94" d="m2372.46,785.63c-5.74-3.08-7.58-10.07-4.5-15.81l84.95-158.16c3.08-5.74,9.92-8.06,15.66-4.97,5.74,3.08,7.58,10.07,4.5,15.8l-88.04,163.9c-3.08,5.74-6.84,2.32-12.58-.76Z"/>
      <path class="cls-20" d="m2387.1,788.08c-8.26,15.39-29.82,19.88-48.15,10.03-18.33-9.85-26.49-30.3-18.23-45.69,8.26-15.39,29.82-19.88,48.15-10.03,18.33,9.85,26.49,30.3,18.23,45.69Z"/>
    </g>
    <g>
      <path class="cls-11" d="m2529.8,843.36c-5.74-3.08-7.58-10.07-4.5-15.81l84.95-158.16c3.08-5.74,9.92-8.06,15.66-4.98,5.74,3.08,7.58,10.07,4.5,15.81l-88.04,163.9c-3.08,5.74-6.84,2.32-12.58-.76Z"/>
      <path class="cls-42" d="m2541.41,844.2c-8.26,15.39-29.82,19.88-48.15,10.03-18.33-9.85-26.49-30.3-18.23-45.69,8.26-15.39,29.82-19.88,48.16-10.03,18.33,9.85,26.49,30.3,18.23,45.69Z"/>
    </g>
    <path class="cls-7" d="m2437.47,664.6l174.34,50.26,21.83-40.65c1.65-3.08,1.49-6.93.19-10.17-1.31-3.24-3.43-5.44-6.76-6.51l-158.49-50.84-31.11,57.91Z"/>
  </g>
  <g>
    <g>
      <path class="cls-15" d="m784.28,773.91c-5.44-1.57-8.28-7.16-6.71-12.6l43.23-149.87c1.57-5.44,6.96-8.66,12.39-7.09,5.44,1.57,8.28,7.16,6.71,12.6l-44.8,155.31c-1.57,5.44-5.39,3.22-10.82,1.65Z"/>
      <path class="cls-84" d="m797.16,773.32c-4.21,14.58-21.7,22.34-39.07,17.33-17.37-5.01-28.04-20.89-23.84-35.47,4.21-14.58,21.7-22.34,39.07-17.33,17.37,5.01,28.04,20.89,23.84,35.47Z"/>
    </g>
    <g>
      <path class="cls-23" d="m928.48,794.17c-5.44-1.57-8.28-7.16-6.71-12.6l43.23-149.87c1.57-5.44,6.96-8.66,12.39-7.09,5.44,1.57,8.28,7.16,6.71,12.6l-44.8,155.31c-1.57,5.44-5.39,3.22-10.82,1.65Z"/>
      <path class="cls-50" d="m938.49,792.75c-4.21,14.58-21.7,22.34-39.07,17.33-17.37-5.01-28.04-20.89-23.84-35.47,4.21-14.58,21.7-22.34,39.07-17.33,17.37,5.01,28.04,20.89,23.84,35.47Z"/>
    </g>
    <path class="cls-73" d="m817.36,659.22l157.28,10.8,11.11-38.52c.84-2.92,0-6.16-1.7-8.68-1.7-2.52-3.91-3.99-6.93-4.29l-143.92-14.2-15.83,54.88Z"/>
  </g>
  <g>
    <g>
      <path class="cls-83" d="m1218.27,1215.95c-3.6.7-6.9-1.69-7.6-5.29l-19.36-99.28c-.7-3.6,1.45-7.05,5.06-7.76,3.6-.7,6.9,1.69,7.6,5.29l20.06,102.88c.7,3.6-2.16,3.45-5.76,4.15Z"/>
      <path class="cls-70" d="m1225.53,1211.8c1.88,9.66-5.92,19.31-17.42,21.55-11.51,2.24-22.36-3.77-24.24-13.43-1.88-9.66,5.92-19.31,17.42-21.55,11.51-2.24,22.36,3.77,24.24,13.43Z"/>
    </g>
    <g>
      <path class="cls-52" d="m1307.48,1185.01c-3.6.7-6.9-1.69-7.6-5.29l-19.36-99.28c-.7-3.6,1.45-7.05,5.06-7.76s6.9,1.69,7.6,5.29l20.06,102.88c.7,3.6-2.16,3.45-5.76,4.15Z"/>
      <path class="cls-95" d="m1312.84,1181.24c1.88,9.66-5.92,19.31-17.42,21.55-11.51,2.24-22.36-3.77-24.24-13.42-1.88-9.66,5.92-19.31,17.42-21.55,11.51-2.24,22.36,3.77,24.24,13.43Z"/>
    </g>
    <path class="cls-78" d="m1203.46,1139.98l93.96-40.26-4.97-25.51c-.38-1.93-1.82-3.56-3.55-4.5-1.73-.95-3.44-1.15-5.27-.43l-87.26,34.35,7.09,36.35Z"/>
  </g>
  <g>
    <path class="cls-19" d="m2993.97,3166.85H571.67c-51.45,0-93.17-41.71-93.17-93.17v-1053.85c0-60.85,49.33-110.17,110.17-110.17h2405.29c161.49,5.44,151.55,125.41,151.55,176.87l-58.38,987.16c0,51.45-41.71,93.17-93.17,93.17Z"/>
    <rect class="cls-68" x="559.25" y="2039.32" width="2598.69" height="1135.93" rx="25" ry="25"/>
    <g>
      <path class="cls-81" d="m1383.12,2592.99c-5.19,181.84-151.83,325.96-327.72,325.65-175.98-.31-320.52-145.09-322.79-327.12-2.33-186.31,144.61-340.18,328.15-339.67,183.44.51,327.67,155.03,322.36,341.14Z"/>
      <path class="cls-82" d="m1332.24,2592.87c-3.89,153.65-127.6,275.82-276.43,275.55-148.9-.27-270.79-123-272.22-276.79-1.46-156.84,122.46-285.94,276.74-285.52,154.2.42,275.88,130.07,271.91,286.76Z"/>
      <path class="cls-43" d="m1269.47,2592.73c-2.54,118.75-97.94,213.53-213.16,213.3-115.26-.22-209.23-95.43-209.86-214.26-.64-120.64,94.89-219.54,213.34-219.23,118.41.31,212.25,99.64,209.67,220.19Z"/>
      <path class="cls-30" d="m1154.38,2592.47c-.77,54.33-44.25,98.01-97.14,97.9-52.89-.11-95.69-43.99-95.59-98.34.11-54.72,43.62-99.26,97.18-99.13,53.55.13,96.32,44.86,95.55,99.57Z"/>
      <path class="cls-5" d="m997.71,2592.81c-2.25,0-4.06-1.87-4.05-4.18.15-37.24,29.89-67.6,66.3-67.51,2.17,0,4.36.12,6.5.34,2.24.23,3.87,2.29,3.63,4.6-.24,2.31-2.23,3.98-4.49,3.76-1.88-.19-3.8-.29-5.7-.3-31.89-.08-57.95,26.51-58.1,59.13-.01,2.3-1.84,4.16-4.08,4.16Z"/>
    </g>
    <g>
      <path class="cls-79" d="m2947.83,2590.68c-5.19,181.84-151.83,325.96-327.72,325.65-175.98-.31-320.52-145.09-322.79-327.12-2.33-186.31,144.61-340.18,328.15-339.67,183.44.51,327.67,155.03,322.36,341.14Z"/>
      <path class="cls-60" d="m2896.95,2590.56c-3.89,153.65-127.6,275.82-276.43,275.55-148.9-.27-270.79-123-272.22-276.79-1.46-156.84,122.46-285.94,276.74-285.52,154.21.42,275.88,130.07,271.91,286.76Z"/>
      <path class="cls-28" d="m2834.18,2590.42c-2.54,118.75-97.94,213.53-213.16,213.3-115.26-.22-209.23-95.43-209.86-214.26-.64-120.64,94.89-219.54,213.34-219.23,118.41.31,212.25,99.64,209.67,220.19Z"/>
      <path class="cls-21" d="m2719.08,2590.16c-.77,54.33-44.25,98.01-97.14,97.9-52.89-.11-95.69-43.99-95.59-98.34.11-54.72,43.62-99.26,97.18-99.13,53.55.13,96.32,44.86,95.55,99.57Z"/>
      <path class="cls-5" d="m2562.42,2590.5c-2.25,0-4.06-1.87-4.05-4.18.15-37.24,29.89-67.6,66.3-67.51,2.17,0,4.36.12,6.5.34,2.24.23,3.87,2.29,3.63,4.6-.24,2.31-2.23,3.99-4.49,3.76-1.88-.19-3.8-.29-5.7-.3-31.89-.08-57.95,26.51-58.1,59.13,0,2.3-1.84,4.16-4.08,4.16Z"/>
    </g>
    <path class="cls-5" d="m596.49,2314.32c-1.86,0-3.37-1.51-3.37-3.37v-174.03c0-45.24,42.34-68.91,84.16-68.91h185.78c1.86,0,3.37,1.51,3.37,3.37s-1.51,3.37-3.37,3.37h-185.78c-38.47,0-77.41,21.35-77.41,62.16v174.03c0,1.87-1.51,3.37-3.37,3.37Z"/>
    <path class="cls-5" d="m3046.62,3136.84h-.26l-174.41-.66c-1.86,0-3.37-1.52-3.36-3.39,0-1.86,1.52-3.36,3.37-3.36h.01l174.41.66h.23c40.24,0,61.43-38.7,61.57-77.01l.69-183.87c0-1.86,1.52-3.36,3.37-3.36h.01c1.86,0,3.37,1.52,3.36,3.39l-.69,183.87c-.15,41.65-23.67,83.73-68.32,83.73Z"/>
    <rect class="cls-40" x="1380.34" y="2958.55" width="924.2" height="81.99" rx="6.5" ry="6.5"/>
    <g>
      <rect class="cls-80" x="1527.54" y="2407.01" width="650.3" height="223.6" rx="16" ry="16"/>
      <path class="cls-36" d="m1594.62,2630.61h-25.98c-9.32,0-16.87-7.55-16.87-16.87v-169.46h42.86v186.33Z"/>
      <rect class="cls-17" x="1616.98" y="2492.26" width="42.86" height="138.35"/>
      <rect class="cls-48" x="1680.34" y="2464.78" width="42.86" height="164.9"/>
      <rect class="cls-75" x="1743.69" y="2481.38" width="42.86" height="149.48"/>
      <rect class="cls-10" x="1808.9" y="2519.27" width="42.86" height="111.33"/>
      <rect class="cls-89" x="1872.26" y="2495.01" width="42.86" height="136.06"/>
      <rect class="cls-57" x="1933.75" y="2478.52" width="42.86" height="152.09"/>
      <rect class="cls-92" x="1998.96" y="2506.01" width="42.86" height="123.67"/>
      <path class="cls-91" d="m2140.4,2628.75h-22.19v-121.37h42.86v100.7c0,11.41-9.25,20.67-20.67,20.67Z"/>
      <rect class="cls-29" x="2062.32" y="2464.78" width="42.86" height="164.92"/>
    </g>
    <g>
      <rect class="cls-4" x="1382.89" y="2136.21" width="136.64" height="81.99" rx="4.33" ry="4.33"/>
      <rect class="cls-39" x="1543.13" y="2134.97" width="136.64" height="81.99" rx="4.33" ry="4.33"/>
      <rect class="cls-32" x="1700.89" y="2131.24" width="136.64" height="81.99" rx="4.33" ry="4.33"/>
      <rect class="cls-3" x="1861.14" y="2130" width="136.64" height="81.99" rx="4.33" ry="4.33"/>
      <rect class="cls-18" x="2016.41" y="2128.76" width="136.64" height="81.99" rx="4.33" ry="4.33"/>
      <rect class="cls-25" x="2176.66" y="2127.52" width="136.64" height="81.99" rx="4.33" ry="4.33"/>
    </g>
    <rect class="cls-56" x="1335.63" y="1924.42" width="1168.29" height="100.62" rx="5.5" ry="5.5"/>
    <rect class="cls-58" x="1384.07" y="1941.19" width="1076.99" height="63.35" rx="5.5" ry="5.5"/>
    <g class="cls-59">
      <g>
        <path class="cls-16" d="m1520.57,871.66c-36.23,3.15-64.01,33.49-64.11,69.86-.63,222.4-1.67,989.51,12.82,1261.02,1.54,28.76,25.12,51.36,53.92,51.67,142.46,1.53,552.26,4.35,784.9-10.53,48.46-3.1,86.16-43.23,86.1-91.79-.28-233.41-4.01-889.86-35.99-1189.91-3.83-35.95-32.73-64.01-68.78-66.82-155.38-12.11-567.99-40.98-768.88-23.51Z"/>
        <path class="cls-64" d="m1513.65,999.8c-2.8,190.24-10.76,823.1,3.14,1056.67,2.03,34.14,28.55,61.09,61.3,62.24,134.82,4.7,480.55,13.79,677.56-7.89,35.47-3.9,62.59-34.65,63.53-71.88,4.93-194.14,18.24-783.57,4.72-1014.54-2.16-36.85-30.31-66.25-65.59-68.62-145.98-9.84-520.84-32.52-688.37-18.57-31.45,2.62-55.81,29.66-56.29,62.59Z"/>
        <path class="cls-35" d="m1839.39,904.74c.12,5.26,4.31,9.5,9.56,9.66,25.94.79,99.02,3.03,131.69,4.2,6.44.23,11.36-5.66,10-11.96-.11-.2-.95-8.28-9.2-8.85-22.1-1.54-88.76-5.68-132.81-3.14-9.05.52-9.54,10.81-9.24,10.08Z"/>
      </g>
    </g>
    <path class="cls-5" d="m1848.1,1320.08v183.78c0,8.17,9.03,13.1,15.9,8.68l165.99-106.71c6.84-4.4,6.14-14.62-1.23-18.04l-165.99-77.07c-6.84-3.18-14.67,1.82-14.67,9.36Z"/>
    <g>
      <rect class="cls-6" x="1576.29" y="1709.84" width="674.2" height="56.48" rx="8" ry="8"/>
      <path class="cls-90" d="m1949.56,1710.33h-345.04c-15.6,0-28.24,11.4-28.24,26.99s12.64,26.99,28.24,26.99h345.04v-53.99Z"/>
      <circle class="cls-12" cx="1942.21" cy="1732.19" r="36.48" transform="translate(-189.87 3224.47) rotate(-76.72)"/>
    </g>
  </g>
  <g>
    <path class="cls-8" d="m928.52,1658.17s-559.35,2.59-397.98,436.79l24.14-20.12s-11.94-268.07,252.74-222.51c0,0,113.05-154.72,121.1-194.16Z"/>
    <path class="cls-38" d="m813.32,3181.06c-.01-.95.05-1.91.29-2.88,14.38-57,73.16-86.21,73.16-86.21l28.28,2.22c16.26,50.24,26.74,74.76,24.13,88.48-.07.38-.19.75-.29,1.12-23.32,2.08-71.33,3.44-125.56-2.73Z"/>
    <path class="cls-26" d="m938.88,3183.79c-1.26,4.58-4.64,8.15-8.97,9.06-33.18,6.98-85.91,1.36-108.05-1.53-4.88-.64-8.45-5.16-8.54-10.25,54.23,6.17,102.24,4.81,125.56,2.73Z"/>
    <path class="cls-45" d="m863.49,3047.97l12.38,59.59c.91,4.37,4.26,7.64,8.33,8.02,4.98.47,12.06.74,19.18-.31,6.39-.94,10.83-7.43,9.7-14.39l-8.61-52.91h-40.98Z"/>
    <path class="cls-47" d="m1179.13,3183.3c-30.2-.84-45.82-4.4-53.89-7.7-.02,3,0,6.06.1,9.22.1,3.38,2.61,6.08,5.69,6.06l165.8-1.07c5.29-.03,8.38-6.17,6.09-11.02-21.74,1.8-77.11,5.81-123.79,4.51Z"/>
    <path class="cls-33" d="m1302.92,3178.79c-.2-.42-.37-.85-.66-1.25-14.64-20.46-51.94-61.2-125.63-78.87l-35.35-1.11s-15.74,27.36-16.04,78.04c8.07,3.3,23.69,6.86,53.89,7.7,46.68,1.31,102.05-2.71,123.79-4.51Z"/>
    <path class="cls-54" d="m1134.72,3043.97c.39,2.63,5.24,42.69,7.11,58.21.45,3.69,3.12,6.55,6.49,6.95,6.02.72,15.76,1.37,24.28-.37,4.6-.94,7.93-5.36,7.93-10.5v-62.87l-45.81,8.57Z"/>
    <path class="cls-61" d="m887.12,2265.39s-56.57,502.86-25.14,817.15c0,0,37.71,0,56.57-6.28,0,0,58.79-491.67,77.8-632.36.72-5.3,8.29-5.54,9.33-.3,23.46,118.37,115.62,582.54,126.58,626.37,0,0,31.43,12.57,56.57,0,0,0-50.29-672.58-88-792.01l-213.71-12.57Z"/>
    <path class="cls-8" d="m773.97,1680.82s238.86-37.71,427.43,12.57l-12.57,194.86s-50.29,270.29-88,389.72c0,0-144.57,25.14-213.71-12.57,0,0-56.57-339.43-88-389.72,0,0-31.43-132-25.14-194.86Z"/>
    <path class="cls-67" d="m939.9,1509.06l-23.8,160.92s66.48,30.54,113.03-1.31l-10.02-113.56-79.21-46.04Z"/>
    <g>
      <path class="cls-34" d="m1042.35,1404.28c.75,1.36,15.09,82.5,23.92,132.73,3.65,20.75-11.61,40.03-32.64,41.28l-19.26,1.14c-35.39,2.1-66.56-23.1-71.92-58.15l-13.93-90.99s95.64-59.01,113.83-26.01Z"/>
      <path class="cls-46" d="m907.76,1430.52c-7.38-9.18-13.82-24.03,1.9-39.65,15.92-15.81,33.98-11.87,45.44-6.57,5.07,2.35,11.32,1.31,14.93-2.96,1.6-1.9,3.99-3.19,7.52-2.79,6.66.75,12.61-3.65,13.4-10.31,1.35-11.41,7.43-24.85,27.61-28.74,37-7.15,55.46,29.88,54.8,55.91-.66,26.03-41.22,31.5-64.23,27.18-16.9-3.17-31.52,11.68-38.09,19.79-2.38,2.94-3.27,6.8-2.42,10.49l5.85,25.14c-4.05,7.82-8.03,15.8-13.72,22.47-4.1,4.8-8.59,7.45-13.35,8.58-6.9-12.84-26.2-15.02-35.16-15.31-3.43-.11-6.64-1.62-8.89-4.21-6.77-7.76-17.36-25.07,2.91-42.07,5.04-4.23,5.61-11.83,1.49-16.96Z"/>
      <path class="cls-13" d="m954.07,1535.98s-.8-45.4-19.17-49.67c-18.38-4.26-38.2,9.02-22.49,36.2,19.55,33.81,41.66,13.46,41.66,13.46Z"/>
    </g>
    <path class="cls-62" d="m529.28,2092.61s-24.71,68.9,8.96,84.19c33.67,15.29,54.83-16.81,65.41-32.86,10.58-16.05-38.73-66.98-50.48-70.12-11.75-3.14-23.9,18.78-23.9,18.78Z"/>
    <path class="cls-8" d="m1076.19,1916.1s539.72-146.91,271.73-524.73l-18.13,25.67s80.74,255.9-186.73,280.21c0,0-69.27,178.66-66.87,218.84Z"/>
    <path class="cls-85" d="m1349.74,1393.31s6.08-72.95-30.39-79.03c-36.47-6.08-48.63,30.39-54.71,48.63-6.08,18.24,54.71,54.71,66.87,54.71s18.24-24.32,18.24-24.32Z"/>
    <path class="cls-5" d="m1041.66,1406.33c-.42,0-.78-.31-.83-.73-.06-.46.26-.88.72-.95.07,0,6.87-1.01,11.49-7.62,4.62-6.61,5.58-16.36,2.84-28.96-2.01-9.26-6.31-15.59-12.76-18.82-12.61-6.3-29.51,1.28-29.68,1.36-.42.19-.92,0-1.12-.42-.19-.43,0-.93.42-1.12.72-.33,17.78-8.02,31.13-1.33,6.93,3.46,11.53,10.19,13.66,19.97,2.85,13.1,1.8,23.31-3.13,30.32-5.06,7.21-12.32,8.25-12.62,8.29-.04,0-.08,0-.11,0Z"/>
  </g>
  <g>
    <path class="cls-51" d="m3038.32,1899.29c94.74,51.02,177.71,229.45,110.23,341.92-89.3,148.84-212.36,36.03-321.68-40.49-109.32-76.52,33.69-357.89-71.98-339.67-105.67,18.22-125.42-148.09-103.55-228.26,21.86-80.17,79.4-138,177.79-97.92,98.39,40.08,114.46,313.4,209.2,364.42Z"/>
    <path class="cls-71" d="m2549.07,1366.51c0,3.63-29.58,392.13,133.56,464.64l-47.13,87.01s-221.92-133.56-117.4-543.9l30.97-7.74Z"/>
    <path class="cls-74" d="m2542.76,1379.51l5.74-11.48s-5.74-37.3-63.12-86.07c-57.38-48.78-34.43,40.17-20.08,48.78,14.35,8.61,51.64,54.51,51.64,54.51l25.82-5.74Z"/>
    <path class="cls-8" d="m2821.99,1798.15s-125.57,24.94-167.31,12.47c0,0-41.74,80.44-37.86,153.99,3.72,70.68,59.27,103.83,91.09,236.84,2.78,11.6,11.78,20.73,23.43,23.32,20.4,4.53,54.97,6.27,95.68-15.97,10.02-5.47,16.21-16.05,16.15-27.46-.27-52.53-.48-208.79,5.92-263.19,7.74-65.81-27.1-120.01-27.1-120.01Z"/>
    <path class="cls-1" d="m2744.57,1724.6l26.39,79.17c3.29,9.86.33,20.91-7.81,27.37-11.44,9.08-30.79,17.16-58.06,4.07-6.61-3.17-11-9.69-11.31-17.02l-3.4-78.12,54.2-15.49Z"/>
    <path class="cls-49" d="m2705.7,1589.29s-79.26,79.25-42.78,162.77c1.24,2.83,3.68,4.94,6.62,5.91,13.69,4.52,54.83,12.37,95.96-36.48,50.36-59.8,18.88-103.87,18.88-103.87l-78.69-28.33Z"/>
    <path class="cls-87" d="m2804.38,1720.25l-25.51-3.64s32.8-76.52-3.64-91.1c-36.44-14.58-83.81,3.64-72.88-43.73,10.93-47.37,109.32-21.86,134.83,14.58,25.51,36.44-32.79,123.89-32.79,123.89Z"/>
    <path class="cls-22" d="m2759.21,1702.6s25.18-31.48,40.92-9.44c15.74,22.03-28.33,40.92-44.07,31.48l3.15-22.03Z"/>
    <g>
      <path class="cls-65" d="m3129.75,1515.96s-103.82,197.26-314.92,283.77c0,0-33.41,22.28-10.32,94.3,4.72,14.72,21.88,21.34,35.38,13.82,68.81-38.31,258.6-162.26,303.7-384.97l-13.84-6.92Z"/>
      <path class="cls-9" d="m3129.75,1529.81v-13.84l18.65-77.72c1.3-5.42,5.46-9.69,10.84-11.14l81.25-21.88s3.46,27.69-34.61,41.53c-38.07,13.84-34.61,24.22-34.61,34.61s-3.46,41.53-41.53,48.45Z"/>
    </g>
    <path class="cls-14" d="m3157.91,3176.53l5.31,43.68c1.01,8.29,7.53,14.84,15.83,15.79,14,1.6,36.47,3.24,58.46.92,9.65-1.02,15.91-10.79,12.97-20.04-5.36-16.86-15.16-42.17-29.3-57.07h-48.45c-8.96,0-15.9,7.84-14.82,16.73Z"/>
    <path class="cls-41" d="m2778.41,2664.86l-8.18,48.11s27.39,277.4,32.26,388.36c.76,17.4-3.74,34.59-12.87,49.42l-47.62,77.33,121.03-71.42,2.41-14.77-19.81-27.24,25.95-310.76c1.52-18.26-2.24-36.56-10.85-52.74l-25.03-47.03-57.28-39.27Z"/>
    <path class="cls-55" d="m2734.03,3239.29h38.62c7.23,0,14.05-3.32,18.46-9.05,12.04-15.65,36.99-46.17,48.91-46.96,16.06-1.07,14,56.01,14,56.01h9l11.4-70.94c2.87-17.85-6.01-35.53-22.03-43.89h0s-3.67,27.15-23.57,39.15c-19.9,12.01-80.99,55.01-80.99,55.01,0,0-7.48-1.07-15.7.42-12.19,2.2-10.48,20.25,1.9,20.25Z"/>
    <path class="cls-27" d="m2944.18,2687.71s160.44,304.34,185.94,373.82c25.5,69.49,34.44,127.45,34.78,132.94.53,8.58,11.2,16.8,40.61,16.8,15.18,0,22.61-6.08,26.25-11.97,3.11-5.02,3.26-11.31.65-16.6-9.28-18.78-38.73-78.81-49.64-106.03-13.02-32.5-41.04-179.81-56.4-231.02-15.36-51.21-32.73-106.77-99.63-157.94,0,0-45.93-44.98-82.56,0Z"/>
    <path class="cls-44" d="m2934.58,2275.86c-15.19-51.26-91.76-86.82-91.76-86.82-76.4,45.88-134.72,12.57-134.72,12.57,0,0-24.14,59.17-13.71,112.83,10.43,53.66,75.84,398.53,75.84,398.53,103.07,20.88,261.6-21.01,261.6-21.01-65.65-116.56-72-330.92-97.24-416.1Z"/>
  </g>
</svg>