<?xml version="1.0" encoding="UTF-8"?>
<svg xmlns="http://www.w3.org/2000/svg" xmlns:xlink="http://www.w3.org/1999/xlink" viewBox="0 0 2605.23 2693.75">
  <defs>
    <style>
      .cls-1 {
        fill: url(#linear-gradient-2);
      }

      .cls-2 {
        fill: #fff;
      }

      .cls-3 {
        fill: url(#linear-gradient-17);
      }

      .cls-4 {
        fill: url(#linear-gradient-12);
      }

      .cls-4, .cls-5, .cls-6 {
        mix-blend-mode: multiply;
        opacity: .6;
      }

      .cls-5 {
        fill: url(#linear-gradient-9);
      }

      .cls-7 {
        fill: url(#linear-gradient-15);
      }

      .cls-8 {
        fill: url(#linear-gradient-14);
      }

      .cls-9 {
        fill: url(#linear-gradient-6);
      }

      .cls-10 {
        clip-path: url(#clippath-2);
      }

      .cls-11 {
        isolation: isolate;
      }

      .cls-12 {
        fill: url(#Gradiente_sem_nome_50);
      }

      .cls-13 {
        fill: url(#Gradiente_sem_nome_18);
      }

      .cls-14 {
        fill: url(#linear-gradient-11);
      }

      .cls-6 {
        fill: url(#linear-gradient-4);
      }

      .cls-15 {
        clip-path: url(#clippath-1);
      }

      .cls-16 {
        fill: url(#linear-gradient-10);
      }

      .cls-17 {
        mix-blend-mode: soft-light;
        opacity: .5;
      }

      .cls-18 {
        fill: url(#linear-gradient-16);
      }

      .cls-19 {
        fill: url(#linear-gradient-5);
      }

      .cls-20 {
        fill: #624185;
      }

      .cls-21 {
        clip-path: url(#clippath);
      }

      .cls-22 {
        fill: none;
      }

      .cls-23 {
        mix-blend-mode: overlay;
        opacity: .3;
      }

      .cls-24 {
        fill: #beb8f2;
      }

      .cls-25 {
        fill: url(#linear-gradient-7);
      }

      .cls-26 {
        fill: url(#linear-gradient-3);
      }

      .cls-27 {
        fill: url(#linear-gradient);
      }

      .cls-28 {
        fill: url(#linear-gradient-8);
      }

      .cls-29 {
        fill: #fcfdfe;
      }

      .cls-30 {
        fill: url(#linear-gradient-13);
      }
    </style>
    <clipPath id="clippath">
      <path class="cls-22" d="m1154.1,1462.98l200.57-96.44s-11.72-121.04-95.78-170.02c-171.52-99.92-72.03-243.17-39.34-309.4,49.3-99.88,49.19-209.4-85.67-192.26-134.87,17.15-104.68-219.16-1.81-369,100.67-146.62-101.88-410.18-348.9-112.84-147.52,177.57-21.45,363.89,19.84,473.11s-110.46,192.88,4.49,295.29c98.19,87.48,223.15,125.61,193.22,232.6-29.93,106.99,3.78,194.61,153.38,248.95Z"/>
    </clipPath>
    <linearGradient id="linear-gradient" x1="2699.67" y1="-351.02" x2="2256.63" y2="908.16" gradientTransform="translate(-1333.14 1611.36) rotate(-25.68)" gradientUnits="userSpaceOnUse">
      <stop offset="0" stop-color="#e38ddd"/>
      <stop offset="1" stop-color="#9571f6"/>
    </linearGradient>
    <linearGradient id="Gradiente_sem_nome_18" data-name="Gradiente sem nome 18" x1="-.2" y1="382.71" x2="901.88" y2="1607.8" gradientUnits="userSpaceOnUse">
      <stop offset="0" stop-color="#cea5f5"/>
      <stop offset="1" stop-color="#3b2747"/>
    </linearGradient>
    <clipPath id="clippath-1">
      <path class="cls-22" d="m1078.9,1429.87l-155.92,165.96s-163.37-23.42-158.95-113.34c4.42-89.92-140.89-132.61-215.08-164.72-201.3-87.11-57.95-297.36-306.23-431.01-66.03-35.55-205.38-79.97-224.23-167.17-21.47-99.34,65.44-116.77,40.05-186.87-39.68-109.56-5.03-234.15,113.03-256.11,116.52-21.67,230.09,141.68,245.9,404.64,32.56,185.73,63.24,204.83,146.54,236.32,58.35,22.06,231.16,43.22,242.95,151.49,11.78,108.28,38.65,200.62,117.17,203.51,119.48,4.4,154.77,157.28,154.77,157.28Z"/>
    </clipPath>
    <linearGradient id="Gradiente_sem_nome_50" data-name="Gradiente sem nome 50" x1="299.39" y1="662.62" x2="1040.87" y2="662.62" gradientUnits="userSpaceOnUse">
      <stop offset="0" stop-color="#472151"/>
      <stop offset="1" stop-color="#870ad6"/>
    </linearGradient>
    <clipPath id="clippath-2">
      <path class="cls-22" d="m970.11,1008.91l-142.37,223.23c-38.41-5.64-104.56-23.43-88.47-78.61,22.37-76.72-86.31-144.94-136.35-150.59-61.94-6.99-205.66-26.3-172.89-145.34,27.28-99.11,64.6-158.56-34.56-226.91-99.16-68.35-126.4-166.2-58.92-260.28,71-99.01-6.7-262.78,89.9-320.55,168.32-100.65,311.45,170.15,265.01,388.72-46.44,218.57,79.26,153.38,166.45,199.7,119.03,63.23-7.71,211.19,10.44,281.64,14.23,55.23,66.98,78.64,101.77,88.98Z"/>
    </clipPath>
    <linearGradient id="linear-gradient-2" x1="1380.75" y1="2773.82" x2="1235.85" y2="1790.6" gradientUnits="userSpaceOnUse">
      <stop offset="0" stop-color="#311944"/>
      <stop offset="1" stop-color="#893976"/>
    </linearGradient>
    <linearGradient id="linear-gradient-3" x1="283.03" y1="636.3" x2="1699.32" y2="636.3" gradientUnits="userSpaceOnUse">
      <stop offset="0" stop-color="#444b8c"/>
      <stop offset="1" stop-color="#26264f"/>
    </linearGradient>
    <linearGradient id="linear-gradient-4" x1="174.07" y1="210.35" x2="58.09" y2="595.31" gradientTransform="translate(755.81 55.71) rotate(-17.49)" xlink:href="#linear-gradient-3"/>
    <linearGradient id="linear-gradient-5" x1="1186.78" y1="1357.73" x2="878.67" y2="1797.16" gradientTransform="translate(755.81 55.71) rotate(-17.49)" gradientUnits="userSpaceOnUse">
      <stop offset="0" stop-color="#fcb148"/>
      <stop offset=".05" stop-color="#fdb946"/>
      <stop offset=".14" stop-color="#fec144"/>
      <stop offset=".32" stop-color="#ffc444"/>
      <stop offset=".48" stop-color="#fdb946"/>
      <stop offset=".78" stop-color="#f99c4c"/>
      <stop offset=".87" stop-color="#f8924f"/>
      <stop offset="1" stop-color="#f8924f"/>
    </linearGradient>
    <linearGradient id="linear-gradient-6" x1="626.25" y1="2053.93" x2="1223.09" y2="827.1" gradientTransform="translate(755.81 55.71) rotate(-17.49)" gradientUnits="userSpaceOnUse">
      <stop offset="0" stop-color="#aa80f9"/>
      <stop offset="1" stop-color="#6165d7"/>
    </linearGradient>
    <linearGradient id="linear-gradient-7" x1="1061.96" y1="1547.84" x2="1163.26" y2="1484.69" gradientTransform="translate(1245.3 -249.84)" gradientUnits="userSpaceOnUse">
      <stop offset="0" stop-color="#444b8c"/>
      <stop offset="1" stop-color="#3e4177"/>
    </linearGradient>
    <linearGradient id="linear-gradient-8" x1="1154.31" y1="1219.08" x2="844.51" y2="1586.11" gradientTransform="translate(1246.99 -238.88)" xlink:href="#linear-gradient-6"/>
    <linearGradient id="linear-gradient-9" x1="523.53" y1="1743.46" x2="899.89" y2="1743.46" gradientTransform="translate(1246.99 -238.87)" gradientUnits="userSpaceOnUse">
      <stop offset="0" stop-color="#6165d7"/>
      <stop offset="1" stop-color="#aa80f9"/>
    </linearGradient>
    <linearGradient id="linear-gradient-10" x1="954.14" y1="2469.02" x2="1995.91" y2="716.65" xlink:href="#linear-gradient-3"/>
    <linearGradient id="linear-gradient-11" x1="1803.82" y1="1259.43" x2="1384.01" y2="1892.11" gradientTransform="matrix(1,0,0,1,0,0)" xlink:href="#linear-gradient"/>
    <linearGradient id="linear-gradient-12" x1="1747.17" y1="1350.63" x2="1403.06" y2="1869.21" gradientTransform="matrix(1,0,0,1,0,0)" xlink:href="#linear-gradient"/>
    <linearGradient id="linear-gradient-13" x1="1512.91" y1="1704.53" x2="1475.43" y2="1771.77" xlink:href="#linear-gradient-3"/>
    <linearGradient id="linear-gradient-14" x1="-975.63" y1="1826.32" x2="-275.81" y2="1826.32" gradientTransform="translate(1333.76 159.34)" xlink:href="#linear-gradient-6"/>
    <linearGradient id="linear-gradient-15" x1="-908.07" y1="1950.57" x2="-1469.8" y2="2277.39" gradientTransform="translate(1336.94 180.02)" xlink:href="#linear-gradient-6"/>
    <linearGradient id="linear-gradient-16" x1="-1307.3" y1="1826.32" x2="-537.87" y2="1826.32" xlink:href="#linear-gradient-5"/>
    <linearGradient id="linear-gradient-17" x1="-1307.3" y1="1816.45" x2="-844.6" y2="1816.45" gradientTransform="translate(1351.61 295.13)" xlink:href="#linear-gradient-5"/>
  </defs>
  <g class="cls-11">
    <g id="Illustration">
      <g>
        <g>
          <g class="cls-21">
            <path class="cls-27" d="m1154.1,1462.98l200.57-96.44s-11.72-121.04-95.78-170.02c-171.52-99.92-72.03-243.17-39.34-309.4,49.3-99.88,45.7-196.57-74.3-202.71-135.78-6.95-116.06-208.71-13.18-358.54,100.67-146.62-101.88-410.18-348.9-112.84-147.52,177.57-21.45,363.89,19.84,473.11s-110.46,192.88,4.49,295.29c98.19,87.48,223.15,125.61,193.22,232.6-29.93,106.99,3.78,194.61,153.38,248.95Z"/>
            <g class="cls-17">
              <path class="cls-24" d="m1249.85,1439.85l3.8-2.77c-1.71-2.35-172.39-238.47-271-523.55-90.86-262.64-137.36-621.8,157.03-841.32l-2.81-3.77c-131.05,97.72-206.6,230.75-224.57,395.39-14.35,131.52,7.83,283.37,65.94,451.32,98.86,285.73,269.9,522.33,271.62,524.69Z"/>
              <path class="cls-24" d="m907.76,532.96l3.95-2.55c-84.66-131.47-126.9-355.74-127.32-357.99l-4.62.85c.42,2.26,42.83,227.44,127.99,359.68Z"/>
              <path class="cls-24" d="m922.73,423.59c99.83-157.34,253.49-178.77,255.03-178.96l-.6-4.66c-1.56.2-157.34,21.83-258.4,181.1l3.97,2.52Z"/>
              <path class="cls-24" d="m1057.27,1096.4c-48.65-222.39,199.32-401.91,201.88-403.45l-2.16-4.17c-2.66,1.28-253.39,184.26-204.31,408.62l4.59-1Z"/>
              <path class="cls-24" d="m1015.29,1012.44l3.73-2.86c-88.29-115.36-269.74-136.7-271.56-136.9l-.52,4.67c1.81.2,181.29,21.34,268.35,135.09Z"/>
              <path class="cls-24" d="m1227.61,1399.34c-31.26-80.64,50.09-195.5,50.92-196.65l-3.82-2.74c-3.43,4.78-83.66,118.07-51.48,201.09l4.38-1.7Z"/>
              <path class="cls-24" d="m1186.44,1343.97l3.83-2.72c-39.58-55.76-163.94-79.28-204.8-87-5.78-1.09-10.76-2.04-11.62-2.38l-1.81,4.34c1.2.5,4.51,1.14,12.55,2.66,40.4,7.64,163.36,30.89,201.85,85.11Z"/>
            </g>
          </g>
          <g>
            <path class="cls-13" d="m955.59,1265.82c68.69,2.53,76.52,63.14,98.85,106.56-3.25,5.75-3.66,9.88-5.64,16.39-17.94,58.71-38.1,79.94-64.92,135.01-5.77,11.86-33.3,41.5-45.32,52.89l-22.76,20.88s-156.19-25.14-151.77-115.06c4.42-89.92-140.89-132.61-215.08-164.72-45.56-19.71-60.08-43.33-75.66-53.26-164.9-105.13-244.07-81.9-276.69-149.02-36.01-74.1,50.16-123.63,15.25-206.31-39.43-93.36-175.78-92.9-193.35-189.59-3.01-16.58-5.66-33.69-.67-55.61,12.31-54.09,60.46-76.75,40.72-131.26-39.68-109.56-5.03-234.15,113.03-256.11,116.52-21.67,230.09,141.68,245.9,404.64,32.56,185.73,63.23,204.83,146.54,236.32,58.35,22.06,231.16,43.22,242.95,151.49,11.79,108.28,70.11,193.85,148.64,196.74Z"/>
            <g class="cls-15">
              <g class="cls-17">
                <path class="cls-29" d="m1001.75,1497.21l-2.68,3.63c-20.19-14.61-40.36-29.61-59.94-44.59-144.97-110.9-273.44-232.34-381.84-360.95-91.85-108.97-170.6-224.61-234.08-343.68-51.05-95.76-92.54-194.26-123.31-292.77-21.63-69.25-37.79-137.78-48.02-203.7-1.78-11.49-2.97-23.38-4.11-34.89-1.52-15.33-3.1-31.18-6.11-46.18l4.24-1.18c3.06,15.21,4.64,31.17,6.18,46.6,1.14,11.45,2.31,23.29,4.08,34.66,10.2,65.71,26.3,134.04,47.88,203.09,30.7,98.26,72.09,196.53,123.02,292.07,63.35,118.83,141.95,234.23,233.62,343,108.21,128.39,236.48,249.64,381.23,360.37,19.55,14.96,39.69,29.94,59.86,44.53Z"/>
                <path class="cls-29" d="m410.42,890.46l-3.6,2.7C304.12,744.81,3.03,664.96,0,664.17l1.36-4.25c3.04.79,305.53,81.01,409.06,230.54Z"/>
                <path class="cls-29" d="m735.61,1277.08l-3.29,3.08c-82.08-91.62-44.68-338.11-44.29-340.59l4.27.36c-.38,2.46-37.48,246.96,43.32,337.15Z"/>
                <path class="cls-29" d="m786.93,1324.63l-2.75,3.58c-63.91-48.42-179.21-77.77-324.68-82.62q-7.31-.24-7.95-.71l2.71-3.61-1.35,1.81.62-2.13c.48.07,3.24.17,6.44.27,146.29,4.88,262.41,34.51,326.96,83.42Z"/>
                <path class="cls-29" d="m965.31,1469.98l-3.59,2.71c-50.83-72.75-10.67-206.54-10.26-207.88l4.12,1.01c-.41,1.32-39.95,133.08,9.72,204.16Z"/>
                <path class="cls-29" d="m998.65,1503.27c-69.79-18.21-148.54-16.24-240.76,6.03l-.7-4.26c92.93-22.44,172.36-24.41,242.83-6.02l-1.37,4.25Z"/>
                <path class="cls-29" d="m223.11,514.88l-3.72,2.5c-52.32-86.07-127.92-162.64-152.77-187.8-6.01-6.09-8.12-8.24-8.72-9.13l3.63-2.65c.46.67,3.9,4.15,8.26,8.56,24.92,25.24,100.77,102.06,153.33,188.52Z"/>
                <path class="cls-29" d="m286.77,669.18l-4.2,1.33c-22.3-93.62,79.98-267.81,84.34-275.18l3.66,2.05c-1.06,1.79-105.68,179.93-83.8,271.81Z"/>
              </g>
            </g>
          </g>
          <g>
            <path class="cls-12" d="m1034.05,1264.41c-7.25,8.85,39.28,41.96-41.75,30.11-20.24-2.96,47.18-69.63,0,0-9.16,13.52-184.87-83.26-194.03-69.74-38.51-7.58-73.4-21.85-59-71.25,22.37-76.72-86.31-144.94-136.35-150.59-61.94-6.99-205.66-26.3-172.89-145.34,27.28-99.11,64.6-158.56-34.56-226.91-99.16-68.35-126.4-166.2-58.92-260.28,71-99.01-6.7-262.78,89.9-320.55,168.32-100.65,311.45,170.16,265.01,388.72-46.44,218.57,79.26,153.38,166.45,199.7,7.85,4.76,19.65,12.74,31.8,24.81,74.75,74.29,32.75,174.61,63.29,284.35,41.65,149.66,93.27,302.07,81.06,316.98Z"/>
            <g class="cls-10">
              <g class="cls-17">
                <path class="cls-29" d="m869.61,1093.3l-3.92,4.2C578.55,824.46,431.82,403.93,482.75,0l5.5.4c-50.72,402.23,95.41,821,381.36,1092.9Z"/>
                <path class="cls-29" d="m726.44,930.12l-3.06,4.85c-132.85-81.39-311.79-25.54-313.58-24.96l-1.4-5.35c1.81-.58,183.09-57.21,318.04,25.46Z"/>
                <path class="cls-29" d="m818.23,1041.53l-4.89,2.92c-76.15-139.69,69.28-406.65,70.76-409.33l4.81,2.52c-1.46,2.65-145.37,266.85-70.67,403.89Z"/>
                <path class="cls-29" d="m547.51,581.58l-4.65,3.32c-69.84-104.65-263.08-129.95-265.02-130.19l.98-5.57c1.97.25,197.56,25.86,268.69,132.44Z"/>
                <path class="cls-29" d="m489.26,331.31l-5.55.13c5-147.84,146.7-294.77,148.13-296.24l3.84,3.83c-1.42,1.45-141.5,146.74-146.42,292.28Z"/>
              </g>
            </g>
          </g>
        </g>
        <g>
          <path class="cls-1" d="m457.75,1519.94l-67.92,20.74-60.69-197.9c-104.65-341.28,58.01-698.85,370.31-814.05l334.31-123.32c174.8-64.48,364.58-49.74,534.47,41.45,169.89,91.2,296.52,246.35,356.58,436.87l49.73,157.77-67.73,21.35-49.73-157.77c-53.74-170.5-167.07-309.35-319.11-390.96-152.04-81.62-321.95-94.75-478.31-37.1l-334.32,123.32c-276.87,102.13-421.08,419.14-328.3,721.7l60.68,197.9Z"/>
          <g>
            <path class="cls-26" d="m1626.44,612.07c-27.54,8.68-58.74,5.4-86.19-11.81-140.03-87.74-305.77-106.53-454.65-51.63l-334.32,123.32c-116.76,43.07-210.52,131.55-264.01,249.14-25.29,55.6-89.2,77.12-142.76,48.09-53.56-29.04-76.47-97.65-51.18-153.24,77.04-169.36,212.08-296.79,380.24-358.81l334.31-123.32c208.4-76.89,440.16-50.54,636.01,72.17,51.85,32.49,70.69,102.32,42.07,155.97-13.46,25.24-35.04,42.41-59.51,50.12Z"/>
            <path class="cls-6" d="m1413.5,435.63c-274.24.8-298.16-70.39-430.38-34.71-247.22,66.72-268.23,343.81-516.09,386.27-58.1,9.95-111.96,4.14-156.5-6.5-6.01,11.54-11.78,23.28-17.22,35.24-25.29,55.59-2.38,124.2,51.18,153.24,53.56,29.04,117.47,7.51,142.76-48.09,53.49-117.59,147.25-206.07,264.01-249.14l334.32-123.32c148.88-54.9,314.62-36.11,454.65,51.63,27.45,17.2,58.66,20.49,86.19,11.81,24.47-7.71,46.05-24.88,59.51-50.12,25.94-48.63,12.9-110.55-28.38-145.91-69.31,10.98-151.6,19.33-244.06,19.59Z"/>
          </g>
          <g>
            <path class="cls-19" d="m1865,866.65l59.41-18.73c244.63-77.11,527.3,128.03,631.37,458.18l5.84,18.53c104.07,330.15-9.89,660.31-254.51,737.41l-59.41,18.73c-123.4,38.9-309.11-201.36-414.79-536.63-105.68-335.27-91.31-638.6,32.1-677.49Z"/>
            <path class="cls-9" d="m1693.48,1588.09c115.67,366.97,352.4,619.4,534.69,561.94,182.29-57.46,241.12-403.05,125.45-770.01-115.67-366.97-362.03-616.36-544.33-558.9-182.29,57.46-231.48,400.01-115.81,766.98Z"/>
            <rect class="cls-25" x="1956.96" y="796.85" width="72.98" height="1393.37" transform="translate(-356.78 668.36) rotate(-17.49)"/>
            <ellipse class="cls-28" cx="1958.65" cy="1504.5" rx="346.08" ry="696.68" transform="translate(-361.69 658.41) rotate(-17.49)"/>
            <ellipse class="cls-5" cx="1958.65" cy="1504.5" rx="188.17" ry="378.81" transform="translate(-361.69 658.4) rotate(-17.49)"/>
          </g>
          <g>
            <path class="cls-16" d="m2192.33,1767.22c0,451.05-297.86,859.5-712.27,919.03-477.39,68.58-921.14-340.55-921.14-923.87s443.75-989.82,921.14-918.41c414.41,61.99,712.27,472.2,712.27,923.25Z"/>
            <path class="cls-14" d="m1736.89,1765.87c0,162.64-112.35,299.65-256.84,306.28-151.46,6.95-279.71-130.75-279.71-307.88s128.25-314.07,279.71-306.22c144.49,7.49,256.84,145.16,256.84,307.81Z"/>
            <path class="cls-4" d="m1692.22,1765.74c0,134.36-93.19,246.73-212.17,251.15-123.66,4.59-227.54-108.36-227.54-252.45s103.88-256.43,227.54-251.1c118.98,5.12,212.17,118.05,212.17,252.41Z"/>
            <g class="cls-23">
              <path class="cls-2" d="m1590.53,1759.18c-120.57-327.83-371.76-359.51-446.18-671.32-17.35-72.7-20.61-143.29-14.71-209.66-325.15,116.03-570.72,456.47-570.72,884.18,0,583.32,443.75,992.45,921.14,923.87,80.16-11.52,155.61-35.88,225.08-70.47-30.89-66.53-50.49-129.72-63.35-186.32-66.75-293.92,44.71-409.34-51.26-670.28Z"/>
            </g>
            <path class="cls-30" d="m1553.49,1765.33c0,46.5-32.67,84.55-73.44,84.98-41.31.44-75.19-37.81-75.19-85.42s33.89-85.66,75.19-84.98c40.77.67,73.44,38.91,73.44,85.42Z"/>
            <g class="cls-23">
              <path class="cls-2" d="m2116.07,1374.85c-84.86-207.06-238.17-379.35-433.19-469.83-74.88,310.43-202.82,860.09-202.82,860.09l636.02-390.26Z"/>
              <path class="cls-2" d="m698.22,2281.88c55.58,93.74,125.22,174.45,204.88,239.02l576.95-755.78-781.83,516.77Z"/>
            </g>
          </g>
          <g>
            <g>
              <ellipse class="cls-8" cx="708.05" cy="1985.57" rx="349.89" ry="704.36" transform="translate(-564.15 304.7) rotate(-17.49)"/>
              <ellipse class="cls-7" cx="642.43" cy="2006.25" rx="349.89" ry="704.36" transform="translate(-573.41 285.93) rotate(-17.49)"/>
              <path class="cls-18" d="m372.47,1416.61l-60.07,18.93c-247.33,77.96-362.53,411.75-257.32,745.54l5.91,18.74c105.21,333.79,391,541.19,638.33,463.23l60.07-18.93c124.76-39.33,139.29-345.99,32.45-684.96-106.84-338.97-294.6-581.87-419.36-542.55Z"/>
            </g>
            <ellipse class="cls-3" cx="275.7" cy="2111.49" rx="231.34" ry="464.5" transform="translate(-622.01 180.55) rotate(-17.49)"/>
          </g>
        </g>
        <g>
          <path class="cls-20" d="m1799.05,182.81c10.11,7.68,23.16,11.5,36.73,9.64,157.3-21.52,313.78,19.66,440.62,115.97,126.82,96.3,208.52,235.97,230.05,393.28,3.71,27.14,28.74,46.16,55.88,42.43,27.15-3.71,46.16-28.73,42.44-55.89-25.11-183.56-120.43-346.54-268.35-458.86h0c-147.94-112.33-330.51-160.37-514.08-135.25-27.16,3.71-46.16,28.73-42.44,55.89,1.85,13.57,9.04,25.11,19.15,32.79Z"/>
          <path class="cls-20" d="m1825.96,379.47c10.11,7.68,23.16,11.5,36.73,9.64,104.87-14.34,209.18,13.11,293.74,77.32,84.56,64.21,139.02,157.31,153.37,262.18,3.7,27.14,28.74,46.16,55.88,42.43,27.16-3.71,46.16-28.73,42.44-55.89-17.93-131.13-86-247.53-191.67-327.76-105.67-80.23-236.07-114.54-367.2-96.6-27.16,3.71-46.16,28.73-42.44,55.89,1.85,13.57,9.04,25.11,19.15,32.79Z"/>
          <path class="cls-20" d="m1852.86,576.11c10.11,7.68,23.16,11.5,36.73,9.64,108.44-14.83,208.72,61.32,223.56,169.75,3.71,27.14,28.74,46.16,55.88,42.43,27.16-3.71,46.16-28.73,42.44-55.89-22.26-162.65-172.68-276.86-335.32-254.62-27.16,3.71-46.16,28.73-42.44,55.89,1.85,13.57,9.04,25.11,19.15,32.79Z"/>
        </g>
      </g>
    </g>
  </g>
</svg>