<svg xmlns="http://www.w3.org/2000/svg" viewBox="0 0 515.103 398.383" id="guy-listening-to-music"><g data-name="Layer 2"><g data-name="Layer 1"><path fill="#efedef" d="M342.76281,397.39486c16.25-5.08,30.83-10.27,48.37-20.12,18.09-10.16,98.45-58.51,108.9-142.19a159.61541,159.61541,0,0,0-6.66-68.16c-3.23-9.47-9.93-28.49-26.84-47.3-20.7-23.04-44.32-31.97-58.17-37.02-29.14-10.63-53.58-10.07-65.22-9.69-12.56.41-34.73,1.33-59.93,12.34-16.44,7.18-26.66,15.37-41.72,27.61-23.86,19.41-27,27.49-68.74,67.57-11.46,11-20.88,19.67-35.26,28.21-9.97,5.92-18.03,9.23-32.9,15.27-36.55,14.85-46.95657,17.85676-58.91657,26.21676-23.26,16.27-21.75343,34.01324-22.75343,37.83324a75.12694,75.12694,0,0,0-1.77,29.97c3.05,20.07,13.86,33.19,20.57,41.13a113.09822,113.09822,0,0,0,32.9,26.44,210.24676,210.24676,0,0,0,26.96,11.89Z"></path><path fill="#d1cfd1" d="M394.35436,383.20926l-.49024-.87109c23.90039-13.42676,102.69727-63.7627,113.17774-147.73633a166.23853,166.23853,0,0,0-6.91406-70.77246c-2.97657-8.73145-9.94727-29.17773-27.84766-49.0957C450.36119,90.344,425.33483,81.2161,411.89049,76.3118a174.09583,174.09583,0,0,0-67.74707-10.06836c-12.4248.4043-35.55078,1.15625-62.24316,12.81055l-.40039-.916c26.86816-11.73144,51.00879-12.5166,62.61035-12.89453a174.99067,174.99067,0,0,1,68.12207,10.12891c13.52734,4.93359,38.70605,14.11719,60.792,38.69336,18.03711,20.06933,25.05371,40.65234,28.05078,49.4414a167.3062,167.3062,0,0,1,6.959,71.21778C497.496,319.16434,418.35826,369.72489,394.35436,383.20926Z"></path><rect width="36.66" height="16.194" x="55.453" y="152.647" fill="#d1cfd1" transform="rotate(-180 73.783 160.744)"></rect><rect width="36.66" height="16.194" x="34.178" y="131.402" fill="#d1cfd1" transform="rotate(-180 52.508 139.499)"></rect><rect width="36.66" height="16.194" x="12.063" y="152.647" fill="#d1cfd1" transform="rotate(-180 30.393 160.744)"></rect><rect width="36.66" height="16.194" x="41.76" y="173.892" fill="#d1cfd1" transform="rotate(-180 60.09 181.99)"></rect><rect width="36.66" height="16.194" y="173.892" fill="#d1cfd1" transform="rotate(-180 18.33 181.99)"></rect><rect width="36.66" height="16.194" x="348.656" y="51.29" fill="#d1cfd1" transform="rotate(-180 366.986 59.387)"></rect><rect width="36.66" height="16.194" x="327.381" y="30.045" fill="#d1cfd1" transform="rotate(-180 345.71 38.142)"></rect><rect width="36.66" height="16.194" x="305.265" y="51.29" fill="#d1cfd1" transform="rotate(-180 323.595 59.387)"></rect><rect width="36.66" height="16.194" x="334.962" y="72.535" fill="#d1cfd1" transform="rotate(-180 353.292 80.632)"></rect><rect width="36.66" height="16.194" x="293.202" y="72.535" fill="#d1cfd1" transform="rotate(-180 311.532 80.632)"></rect><rect width="36.66" height="16.194" x="444.12" y="204.925" fill="#d1cfd1" transform="rotate(-180 462.45 213.022)"></rect><rect width="36.66" height="16.194" x="422.845" y="183.68" fill="#d1cfd1" transform="rotate(-180 441.175 191.777)"></rect><rect width="36.66" height="16.194" x="400.729" y="204.925" fill="#d1cfd1" transform="rotate(-180 419.06 213.022)"></rect><rect width="36.66" height="16.194" x="430.426" y="226.171" fill="#d1cfd1" transform="rotate(-180 448.756 234.268)"></rect><rect width="36.66" height="16.194" x="388.666" y="226.171" fill="#d1cfd1" transform="rotate(-180 406.996 234.268)"></rect><rect width="33.835" height="33" x="169.437" y="80.802" fill="#7ca1b1" rx="1.089"></rect><rect width="31.408" height="30.633" x="170.65" y="81.985" fill="#ffba55" rx="1.089"></rect><path fill="#f65b2b" d="M185.58865,109.34612c-.48612.01134-1.37525-.17148-5.291-6.68364-3.07119-5.10763-3.48781-6.59752-3.62-8.07589-.11218-1.251-.40264-4.498,1.53163-5.70876a3.53176,3.53176,0,0,1,3.75939.13919c.45816.34069.77544.8083,1.39225,2.78469,1.03229,3.30764,1.01869,4.80282,1.53163,4.87345.52048.07176.80868-1.42946,2.5065-3.89876a7.88026,7.88026,0,0,1,2.78488-2.92388c.13183-.06912,2.38035-1.21907,3.62-.41775,1.3677.88385,1.45495,4.10839-.41775,7.79733a56.77676,56.77676,0,0,1-3.06326,6.26589C188.12386,107.37465,186.99526,109.31345,185.58865,109.34612Z"></path><rect width="48.468" height="363.354" x="76.331" y="34.041" fill="#a3716a"></rect><polygon fill="#935b50" points="296.411 28.65 296.411 397.395 283.76 397.395 283.76 44.597 88.983 44.597 88.983 397.395 76.331 397.395 76.331 28.65 296.411 28.65"></polygon><circle cx="111.733" cy="187.196" r="7.679" fill="#ffba55"></circle><polygon fill="#a5716a" points="439.304 308.831 333.499 304.676 389.73 302.717 482.976 308.191 489.458 310.939 439.304 308.831"></polygon><polygon fill="#d3a39c" points="491.215 335.356 432.251 350.011 433.977 308.607 489.458 310.939 491.215 335.356"></polygon><path fill="#d3a39c" d="M482.74732,310.6567l6.71063.28206,11.38786-69.14009a12.06084,12.06084,0,0,0-10.22835-13.90446l-5.69414-.79715Z"></path><path fill="#935b50" d="M374.36745,397.39486a5.3126,5.3126,0,0,1-.38-2v-49.28a5.5,5.5,0,0,1,11,0v49.28a5.3126,5.3126,0,0,1-.38,2Z"></path><path fill="#935b50" d="M445.8761,356.66616c-.10156,0-.20313-.00292-.30566-.00781l-111.35157-6.09961a5.50042,5.50042,0,0,1,.60157-10.98437L446.172,345.674a5.5002,5.5002,0,0,1-.2959,10.99218Z"></path><path fill="#935b50" d="M328.65745,397.39486a5.50693,5.50693,0,0,1-.31-1.91l1.58-110.23a18.4575,18.4575,0,0,1,6.41-13.67,21.10679,21.10679,0,0,1,16.24-5.05l39.92,4.43a5.49839,5.49839,0,0,1-1.21,10.93l-39.92-4.42a10.03231,10.03231,0,0,0-7.75,2.36,7.57294,7.57294,0,0,0-2.69,5.58l-1.58,110.23a5.32455,5.32455,0,0,1-.32,1.75Z"></path><path fill="#c38f86" d="M432.36574 345.04474l-99.62-4.61164a5.90744 5.90744 0 01-5.69765-5.89975l.20768-24.01911a5.96643 5.96643 0 016.24351-5.83843l99.93569 3.69083a5.90724 5.90724 0 015.75377 5.97309l-.52339 24.93993A5.96966 5.96966 0 01432.36574 345.04474zM482.97575 308.19145l-93.24535-5.47459 6.39064-69.256a8 8 0 017.992-7.26487l77.68788.25107a8 8 0 017.94 8.73812z"></path><path fill="#935b50" d="M501.92745,280.83486a5.44813,5.44813,0,0,1-4.43,1.42l-6.65-.84-30.06-3.82a7.94946,7.94946,0,0,0-8.93,7.82l-.81,110.18a5.12732,5.12732,0,0,1-.32,1.8h-10.36a5.58138,5.58138,0,0,1-.32-1.88l.81-110.18a18.93258,18.93258,0,0,1,21.31-18.65l29.56,3.75,7.15.91a5.45565,5.45565,0,0,1,3.65,2.08Z"></path><path fill="#935b50" d="M492.35745,397.39486a5.00122,5.00122,0,0,0,.31-1.4l9.26-115.16.6-7.41,3.53-43.96a5.50262,5.50262,0,0,0-10.97-.88l-3.36,41.85-.88,10.98-9.14,113.69a5.44584,5.44584,0,0,0,.31,2.29Z"></path><rect width="49.061" height="11.999" x="445.096" y="339.459" fill="#935b50" transform="rotate(-10.694 469.626 345.459)"></rect><path fill="#8b9d36" d="M143.11171,287.97172c2.87406,2.23323,7.93762,7.53678,8.07424,11.51444,0,0,9.306-10.11869,6.66022-18.77218a16.16168,16.16168,0,0,0-7.39006-7.44363s3.64918-2.04714,7.481,2.97756c0,0-1.36835-13.58486-20.29919-8.65348,0,0-7.39006-15.07355-22.03283-.83748,0,0,9.85317-1.256,7.93726,1.81448,0,0-5.93039,1.58183-9.83053,4.96262a9.84978,9.84978,0,0,0-3.30728,6.87761c-.22793,3.67535-.57763,10.94842.137,11.04932.95777.13952,7.25307-5.58277,11.49548-5.164s-9.71655,12.97984-9.71655,12.97984,2.874,10.88652,4.10579,10.747c1.23137-.13952,5.70208-3.2566,3.87712,0l-3.14728,2.51226,4.10542,5.67591,10.30941-4.55939s-4.56166-12.46816-.36492-9.072c0,0,3.19295,4.2338,3.23861,7.39726,0,0,13.799-6.00152,12.43061-10.11889a92.48272,92.48272,0,0,0-5.2154-11.12674,4.705,4.705,0,0,1-.57021-1.96952C141.044,287.71578,141.31756,286.576,143.11171,287.97172Zm-1.69541-14.4532c1.29262-.89181,4.47072-.318,5.66422,2.58969,1.2774,3.10932,1.22394,6.5753-.06831,7.46692-1.29262.89181-4.96482-.27127-5.88472-3.27989C140.10883,276.94569,140.12405,274.41015,141.4163,273.51852Z"></path><path fill="#5e7c24" d="M137.63781,267.59439a51.08986,51.08986,0,0,0-4.07264,5.29529,31.0272,31.0272,0,0,0-2.88635,5.976c-.75207,2.08472-1.35754,4.223-1.901,6.3855-.55054,2.16407-1.07642,4.32581-1.51489,6.509-.4646,2.177-.87049,4.3684-1.203,6.56848-.34228,2.20031-.53918,4.41406-.80957,6.639a37.11357,37.11357,0,0,1-3.93432,12.79992,44.64278,44.64278,0,0,0,2.1853-6.31445,35.592,35.592,0,0,0,1.16174-6.548,103.75426,103.75426,0,0,1,1.84913-13.30176c.464-2.19287,1.01721-4.36792,1.59057-6.52759a53.503,53.503,0,0,1,2.02722-6.42078,31.11623,31.11623,0,0,1,3.124-5.97339A44.29749,44.29749,0,0,1,137.63781,267.59439Z"></path><path fill="#5e7c24" d="M132.2639 274.6868a20.39252 20.39252 0 00-2.24231.56445c-.7395.20484-1.46728.45008-2.18737.71106-1.43775.53016-2.85376 1.1117-4.24353 1.75489-1.39734.62805-2.75391 1.34314-4.118 2.05249-1.35986.71948-2.68566 1.50232-4.05017 2.24707.59192-.50171 1.20972-.97083 1.82251-1.45044.64136-.43543 1.27307-.89014 1.92969-1.30652a34.36838 34.36838 0 014.0957-2.24 29.527 29.527 0 014.38611-1.6178A17.33071 17.33071 0 01132.2639 274.6868zM126.02684 296.2725c-1.06018.822-2.16381 1.49487-3.2417 2.197q-.81024.51983-1.58252 1.074a4.34418 4.34418 0 00-1.30969 1.3617 2.85846 2.85846 0 01.90979-1.80787 9.21425 9.21425 0 011.56568-1.27209A11.28932 11.28932 0 01126.02684 296.2725zM128.14061 286.33072a36.44266 36.44266 0 013.48719 3.76136 38.51275 38.51275 0 013.00146 4.17419 26.85486 26.85486 0 012.34253 4.594 13.98609 13.98609 0 011.07654 5.02246 19.79165 19.79165 0 00-1.61951-4.79 41.82689 41.82689 0 00-2.45105-4.42078c-.87915-1.44263-1.84595-2.83337-2.81775-4.22388C130.17919 289.06339 129.16661 287.698 128.14061 286.33072z"></path><path fill="#8b9d36" d="M115.51375,329.93586l3.8318,3.53579s3.74057-3.9545,4.15112-1.20961c0,0-.593,2.74488-1.32289,2.9775,0,0,9.16895,7.374,11.01642,1.30265a58.56556,58.56556,0,0,1,2.80543-7.95551s2.05275,1.11657.2737,9.9095c0,0,7.096-2.08524,9.731-5.91075a2.7365,2.7365,0,0,0,.46351-1.52637c.02539-2.187.31364-8.34245,2.80623-6.03142,0,0,1.43692.69785.34212,5.37346,0,0,5.7749-6.51047,3.03182-10.51193a4.001,4.001,0,0,0-4.906-1.29451c-1.60372.69616-4.57933,1.97824-10.10016,4.33943A110.18253,110.18253,0,0,1,115.51375,329.93586Z"></path><path fill="#5e7c24" d="M128.14061 335.33255a21.88145 21.88145 0 011.88623-5.7987 14.09765 14.09765 0 011.62012-2.62512 6.27428 6.27428 0 011.11292-1.10425 2.33356 2.33356 0 011.45776-.521 2.4785 2.4785 0 00-1.20825.80286 8.37 8.37 0 00-.87647 1.17285 26.6583 26.6583 0 00-1.41675 2.61169C129.83532 331.66178 129.05065 333.507 128.14061 335.33255zM140.60289 332.44815a18.20816 18.20816 0 01.48584-5.36145 13.749 13.749 0 01.89588-2.57214 4.03639 4.03639 0 011.81152-2.02246 5.49348 5.49348 0 00-1.25842 2.25281c-.26758.82739-.49732 1.66955-.70325 2.52258C141.41906 328.97574 141.07433 330.70658 140.60289 332.44815zM204.375 269.06362s-9.21456 1.32223-1.00356 7.83552c0 0 2.09836 1.76789 8.94086 3.81492C212.31229 280.71406 216.60026 262.06553 204.375 269.06362z"></path><path fill="#50661a" d="M212.31224,280.714c-.17053-.61071-.28234-1.22241-.43591-1.82361-.18579-.59252-.31641-1.19726-.53613-1.77148a17.62342,17.62342,0,0,0-1.54492-3.3031,13.25712,13.25712,0,0,0-2.32056-2.77588,10.98776,10.98776,0,0,0-3.09973-1.97632,7.81007,7.81007,0,0,1,3.471,1.51685,10.401,10.401,0,0,1,2.60095,2.8302,12.6182,12.6182,0,0,1,1.45715,3.54162c.15747.61658.22839,1.2511.34045,1.8711C212.27538,279.45743,212.31383,280.087,212.31224,280.714Z"></path><path fill="#5e7c24" d="M192.68069,231.3864s10.21579-6.50857,13.27561,7.94327c0,0-5.30164-4.5634-5.37187-1.92352a20.2345,20.2345,0,0,1,3.84569,6.852,7.50276,7.50276,0,0,1-.739,5.53967c-1.29857,2.36333-3.92221,7.0054-4.38333,6.79523-.61739-.28139-2.08782-6.24763-4.7443-7.61743s.65368,11.78068.65368,11.78068-5.93032,5.64676-6.59982,5.08716-2.08356-4.20785-2.27939-1.48844l.87167,2.76593-4.62418,1.94265-4.28286-6.78685s7.53855-5.97935,3.74888-5.48531c0,0-3.5261,1.39877-4.78542,3.343,0,0-5.772-9.02151-3.36359-11.049a68.35459,68.35459,0,0,1,7.382-4.88737,3.45922,3.45922,0,0,0,1.256-1.22567c.33966-.5852.40584-1.20887-1.01585-1.0528-2.559.28092-7.60125,1.62485-9.23138,4.03885,0,0-1.52708-9.84881,3.39918-14.19844a11.37575,11.37575,0,0,1,7.24328-1.77741s-1.34732-2.671-5.55689-1.0271C177.37886,228.95549,183.4757,221.05733,192.68069,231.3864Z"></path><path fill="#50661a" d="M197.25878 247.56583c-.838-2.03088-1.60779-4.052-2.56775-5.96912a15.99087 15.99087 0 00-1.65149-2.7146 4.222 4.222 0 00-2.54541-1.75219 3.72026 3.72026 0 012.99463 1.35583 11.2355 11.2355 0 011.8883 2.76709A19.63669 19.63669 0 01197.25878 247.56583zM176.27513 252.42777a15.35612 15.35612 0 011.95276-3.15833 14.665 14.665 0 012.65-2.648 9.74166 9.74166 0 013.36316-1.72656 6.47859 6.47859 0 013.72375.12061 8.478 8.478 0 00-3.545.45129 11.78287 11.78287 0 00-3.07569 1.764 21.34206 21.34206 0 00-2.66479 2.42908C177.85228 250.5452 177.03954 251.45768 176.27513 252.42777z"></path><path fill="#50661a" d="M185.8546,232.70182a4.72948,4.72948,0,0,1,3.15418-1.85315,7.40945,7.40945,0,0,1,1.88855-.05042c.31408.02991.62341.09412.93542.1438l.9148.23694.22632.05859-.09339.23609c-1.19348,3.01428-2.2074,6.111-3.20874,9.20044-.97986,3.09936-1.86255,6.228-2.72668,9.36193q-1.24641,4.71442-2.33326,9.472c-.729,3.17114-1.37011,6.3617-2.02636,9.55554.401-3.23413.88269-6.4624,1.51428-9.66284.57434-3.21277,1.35388-6.38354,2.14514-9.54932.798-3.16516,1.74573-6.291,2.76624-9.39135,1.014-3.10413,2.15039-6.1637,3.46972-9.16077l.13282.29443-.87183-.25976c-.29663-.05615-.59155-.13025-.88977-.17932a7.11381,7.11381,0,0,0-1.809-.0586A4.77546,4.77546,0,0,0,185.8546,232.70182Z"></path><path fill="#50661a" d="M189.01293,260.63993a16.91433,16.91433,0,0,0-1.22376-3.2262,2.90463,2.90463,0,0,0-1.04687-1.128,3.55574,3.55574,0,0,0-1.63465-.30444,2.40742,2.40742,0,0,1,1.865-.24866,2.78426,2.78426,0,0,1,1.47962,1.29492A5.417,5.417,0,0,1,189.01293,260.63993Z"></path><path fill="#c4ce6e" d="M154.92654,335.33258s-1.81611-6.269-6.42625-2.72489a9.25161,9.25161,0,0,0-3.19484,4.90151c-.83142,3.00035-1.5501,8.43752.49776,16.15362,0,0,4.71951-6.52931,8.211-8.83945C157.95181,342.21805,160.49177,336.26305,154.92654,335.33258Z"></path><path fill="#8b9d36" d="M154.9265 335.33255a7.90288 7.90288 0 00-1.79053 1.84192 18.01833 18.01833 0 00-1.412 2.14685 47.53283 47.53283 0 00-2.27234 4.62317c-.67652 1.58386-1.28894 3.19641-1.89331 4.81726l-1.75513 4.90113c.1499-.858.34827-1.70508.52149-2.56018.20031-.84754.4497-1.68213.67272-2.52552a44.70831 44.70831 0 011.74927-4.93567 29.49546 29.49546 0 012.47913-4.63244A10.508 10.508 0 01154.9265 335.33255zM161.58037 248.24823s.1538-6.53505-5.29912-4.60128a9.0923 9.0923 0 00-4.51326 3.668c-1.69249 2.59646-4.00945 7.54784-4.37721 15.5328 0 0 6.4535-4.74132 10.47095-5.84982C162.3925 255.74779 166.59872 250.87236 161.58037 248.24823z"></path><path fill="#5e7c24" d="M161.58031,248.2482a7.76921,7.76921,0,0,0-2.25854,1.19336,17.6958,17.6958,0,0,0-1.99024,1.60291,46.67914,46.67914,0,0,0-3.55212,3.69177c-1.11939,1.29675-2.1864,2.64014-3.24781,3.99438l-3.14086,4.11719c.4-.76867.84277-1.51208,1.26416-2.271.4447-.74329.93261-1.45948,1.39794-2.192a44.16946,44.16946,0,0,1,3.14686-4.15137,29.06716,29.06716,0,0,1,3.75292-3.63843A10.3411,10.3411,0,0,1,161.58031,248.2482Z"></path><path fill="#8b9d36" d="M202.736,335.33258s1.81612-6.269,6.42625-2.72489a9.25163,9.25163,0,0,1,3.19485,4.90151c.83142,3.00035,1.55009,8.43752-.49776,16.15362,0,0-4.71951-6.52931-8.211-8.83945C199.71069,342.21805,197.17073,336.26305,202.736,335.33258Z"></path><path fill="#5e7c24" d="M202.736,335.33255a10.508,10.508,0,0,1,3.70068,3.67652,29.49528,29.49528,0,0,1,2.47925,4.63244,44.75565,44.75565,0,0,1,1.74927,4.93567c.223.84339.47229,1.678.67261,2.52552.17334.8551.3717,1.70214.52148,2.56018l-1.75513-4.90113c-.60424-1.62085-1.21679-3.2334-1.89331-4.81726a47.53409,47.53409,0,0,0-2.27221-4.62317,18.01932,18.01932,0,0,0-1.41211-2.14685A7.90288,7.90288,0,0,0,202.736,335.33255Z"></path><path fill="#50661a" d="M175.85631,364.05692l-.76758-.03906c3.78711-72.94727,14.37207-92.4668,22.58594-95.99707a6.75226,6.75226,0,0,1,6.94922.751l-.498.584a6.00229,6.00229,0,0,0-6.166-.62207C191.40514,271.57059,179.81823,287.72586,175.85631,364.05692Z"></path><path fill="#50661a" d="M177.64635 364.16532c-6.7959-19.26953 4.09277-92.06934 4.55957-95.15918l.75977.11523c-.11426.75488-11.32813 75.69922-4.59473 94.78809zM173.28307 364.13016c-.0625-.249-6.30566-24.96973-14.29492-28.5625a4.20745 4.20745 0 00-3.88379.10449l-.35547-.67968a4.98677 4.98677 0 014.55469-.125c8.32617 3.74511 14.46679 28.04492 14.72363 29.07714z"></path><path fill="#50661a" d="M175.25768 353.90458l-.76563-.04493c.0586-1.01367 5.76856-101.39453-7.4873-107.30566-1.47559-.65723-3.21.00293-5.15234 1.96484l-.54493-.541c2.19043-2.21192 4.21094-2.92383 6.01075-2.125C181.05358 251.97782 175.50084 349.7454 175.25768 353.90458zM184.37975 364.13016l-.74414-.18555c.25683-1.03222 6.39746-25.332 14.72363-29.07714a4.987 4.987 0 014.55469.125l-.35547.67968a4.199 4.199 0 00-3.88379-.10449C190.68444 339.16141 184.44225 363.88114 184.37975 364.13016z"></path><path fill="#50661a" d="M176.4442 363.31571c-5.16113-28.294-12.81543-38.49024-18.32812-42.0625-3.52246-2.28125-6.001-1.71094-6.02442-1.70508l-.18359-.74609c.11523-.02832 2.82812-.65235 6.625 1.80664 5.63965 3.65429 13.457 14.00586 18.667 42.56836zM179.18444 363.33915c-17.374-69.76465-22.06055-73.56348-22.10547-73.59375l.42578-.63868c.19531.12989 4.97851 3.99219 22.42383 74.04688zM182.65416 364.05692l-.76758-.03906c1.6045-30.77637 18.89649-58.47657 19.07129-58.75293l.64844.41015C201.43346 305.9495 184.24694 333.48661 182.65416 364.05692z"></path><path fill="#d6694b" d="M155.01777,355.90968V362.281a2.20813,2.20813,0,0,0,2.18608,2.22954h43.799A2.20813,2.20813,0,0,0,203.189,362.281v-5.87156a2.20871,2.20871,0,0,0-2.16162-2.22939l-43.799-.49976A2.20753,2.20753,0,0,0,155.01777,355.90968Z"></path><polygon fill="#e19974" points="157.108 364.511 158.666 397.395 198.51 397.395 201.098 364.511 157.108 364.511"></polygon><path fill="#5e7c24" d="M194.11119,303.59577c.06088-3.00066,6.26486,2.4426,6.26486,2.4426-3.69521-16.58572-15.50216-9.66929-15.50216-9.66929-10.79609-12.18893-17.80564-3.49683-17.80564-3.49683,4.87312-1.66721,6.46236,1.43436,6.46236,1.43436a12.9754,12.9754,0,0,0-8.40129,1.67477c-5.67907,4.71444-3.81624,15.98865-3.81624,15.98865,1.87025-2.6673,7.72417-3.95457,10.68918-4.156,1.86283-.12418,1.53577.79092,1.03424,1.48869a3.76706,3.76706,0,0,1-1.2696,1.08547,74.49192,74.49192,0,0,0-8.55313,5.21837c-2.78273,2.18665,4.01411,12.72428,4.01411,12.72428,1.44445-2.14785,5.52723-3.57463,5.52723-3.57463,4.402-.37994-4.30329,6.0636-4.30329,6.0636l5.04055,7.92447,5.36018-1.9928-1.04167-3.18675c.20529-3.086,1.87805,1.132,2.661,1.79877.78293.67468,7.62542-5.46636,7.62542-5.46636s-3.96844-15.12011-.87424-13.42982c3.102,1.68254,4.8657,8.53706,5.58811,8.88595.53977.2637,3.543-4.89276,5.03313-7.52125a8.22163,8.22163,0,0,0,.80594-6.25746A24.444,24.444,0,0,0,194.11119,303.59577Zm-17.31154-.124c-1.97679,1.636-5.0179.72882-5.50421-.48841-.49448-1.20965,1.01865-3.6212,3.28426-5.15646,2.12121-1.44231,4.56167-.36441,5.04835.853C180.12215,299.88938,178.997,301.642,176.79965,303.47178Z"></path><path fill="#50661a" d="M184.87218,296.36905a36.99323,36.99323,0,0,1,.76965,5.48792,25.74168,25.74168,0,0,1-.4934,5.54614,42.791,42.791,0,0,1-1.46424,5.36279c-.57031,1.75257-1.16076,3.50782-1.821,5.23584A83.90658,83.90658,0,0,1,177.157,328.0336a29.14442,29.14442,0,0,0-2.14941,5.03723,37.5041,37.5041,0,0,0-1.35254,5.33985,30.214,30.214,0,0,1,2.97534-10.64453c.80591-1.66492,1.66394-3.28174,2.411-4.95764.75476-1.67078,1.45337-3.36939,2.10657-5.0835.67627-1.70544,1.28271-3.43567,1.87439-5.17908.59607-1.73864,1.13171-3.488,1.55078-5.26367a25.65833,25.65833,0,0,0,.69458-5.42A44.27876,44.27876,0,0,0,184.87218,296.36905Z"></path><path fill="#50661a" d="M185.39232 303.7377a14.01365 14.01365 0 012.89051 2.60413 23.84772 23.84772 0 012.30517 3.14563 27.51335 27.51335 0 011.79822 3.45264c.259.59448.48413 1.20324.72363 1.80346.19568.61927.40393 1.23145.57129 1.85718l-1.825-3.40027c-.63049-1.11364-1.24243-2.2323-1.92127-3.31018-.66406-1.08667-1.373-2.14306-2.11157-3.18176-.37195-.51733-.75683-1.02722-1.16736-1.51611A18.294 18.294 0 00185.39232 303.7377zM180.02745 321.46a8.48594 8.48594 0 011.881 2.73388 7.29925 7.29925 0 01.495 1.61267 2.34809 2.34809 0 01-.2345 1.68653 3.93105 3.93105 0 00-.34448-1.53272c-.19849-.48669-.40283-.97266-.619-1.45886A25.18072 25.18072 0 01180.02745 321.46zM183.01952 313.65042c-1.30933.4878-2.61023.96607-3.89832 1.47034-1.28381.51367-2.567 1.02014-3.81274 1.60254a35.44064 35.44064 0 00-3.65881 1.87964 16.55011 16.55011 0 00-3.27869 2.49426 10.89648 10.89648 0 012.954-2.98767 20.73908 20.73908 0 013.66614-2.08484 29.27187 29.27187 0 013.93921-1.46A27.01706 27.01706 0 01183.01952 313.65042z"></path><path fill="#c4ce6e" d="M221.6416,284.84706s8.8999-13.29474,20.03067,2.40507c0,0-8.71734-2.63-7.4391.57562a25.90433,25.90433,0,0,1,8.15139,6.158,9.8,9.8,0,0,1,1.97237,7.04442c-.33854,3.53318-1.09106,10.51224-1.75289,10.50759-.88612-.00623-5.73-6.37643-9.62479-6.59409s6.86473,13.7861,6.86473,13.7861-4.20206,9.9599-5.2943,9.64778-4.67208-3.93094-3.50353-.56247l2.47359,2.85121L228.97329,335.48l-8.64237-5.84511s5.96031-11.22237,1.66761-8.595c0,0-3.50945,3.57152-4.01721,6.58064,0,0-11.58268-7.7273-9.739-11.45324a91.54724,91.54724,0,0,1,6.32406-9.81132,4.6969,4.6969,0,0,0,.88253-2.12853c.11553-.89795-.11247-1.71364-1.75829-.75124-2.92592,1.71093-8.283,6.03057-8.99327,9.80253,0,0-6.91574-10.99893-3.24909-18.86322a15.19352,15.19352,0,0,1,7.7747-6.02146s-2.99537-2.48195-7.19848,1.75066C202.02447,290.14467,205.26435,277.39366,221.6416,284.84706Z"></path><path fill="#8b9d36" d="M221.64159,284.84708a96.26863,96.26863,0,0,1,3.84936,12.28381c1.04407,4.16785,1.85218,8.39429,2.48487,12.64515a126.72409,126.72409,0,0,1,1.19348,12.8319,110.3025,110.3025,0,0,1-.196,12.87207c-.03369-4.29064-.05529-8.57214-.39367-12.84-.12757-2.13538-.33948-4.26367-.53723-6.39282-.25721-2.12244-.47876-4.25061-.82544-6.36084-.56629-4.23951-1.38147-8.44214-2.29822-12.62085C223.99657,293.08744,222.933,288.9368,221.64159,284.84708Z"></path><path fill="#8b9d36" d="M223.863 291.92386a20.44584 20.44584 0 00-1.92334 2.85413 31.05313 31.05313 0 00-1.50989 3.06091c-.44849 1.04675-.83875 2.1189-1.2002 3.20642-.35779 1.08924-.67773 2.19434-1.01819 3.31262.01978-.58239.07825-1.16272.13123-1.746.0968-.57434.16663-1.15844.30933-1.72607a19.80146 19.80146 0 011.07238-3.34888 17.4196 17.4196 0 011.71228-3.08032A10.50488 10.50488 0 01223.863 291.92386zM227.56615 309.53263a8.7946 8.7946 0 015.665 4.14929 7.20281 7.20281 0 01.85486 2.23083c-.45056-.65991-.86792-1.30261-1.35083-1.89465a15.07016 15.07016 0 00-1.52527-1.6803 17.80813 17.80813 0 00-1.72693-1.48327C228.87011 310.39774 228.24279 309.94754 227.56615 309.53263zM392.19713 276.77567c-.98535-1.6416-24.18555-40.30664-27.93847-50.31445l.93554-.35157c3.72168 9.92285 27.61914 49.75 27.86035 50.15039z"></path><path fill="#8b9d36" d="M372.826 205.22571a42.95973 42.95973 0 00-2.31 7.74273 72.38275 72.38275 0 00-1.18067 7.85022 70.94146 70.94146 0 00-.32519 7.93152 42.37884 42.37884 0 00.81543 8.04 42.41829 42.41829 0 002.31543-7.74231 71.05957 71.05957 0 001.17529-7.85071 72.38354 72.38354 0 00.31982-7.932A42.92125 42.92125 0 00372.826 205.22571zM381.6463 217.2857a40.97746 40.97746 0 00-2.99756 7.3003 68.81657 68.81657 0 00-1.8833 7.51428 67.76828 67.76828 0 00-1.03955 7.67633 40.52853 40.52853 0 00.08593 7.89239 40.49076 40.49076 0 003.00293-7.29925 67.76843 67.76843 0 001.87793-7.51538 68.93077 68.93077 0 001.03418-7.67731A41.01563 41.01563 0 00381.6463 217.2857zM386.50616 231.32568a34.76935 34.76935 0 00-2.55176 6.78558 57.76106 57.76106 0 00-1.42773 6.946 56.79106 56.79106 0 00-.57764 7.06732 34.32983 34.32983 0 00.55664 7.22925 34.332 34.332 0 002.55713-6.78485 56.6953 56.6953 0 001.42236-6.94672 57.76044 57.76044 0 00.57227-7.06811A34.73569 34.73569 0 00386.50616 231.32568zM392.62628 245.33972a26.61755 26.61755 0 00-2.58741 5.7746 43.37735 43.37735 0 00-1.46875 5.96771 42.57314 42.57314 0 00-.62255 6.11383 26.30862 26.30862 0 00.50634 6.30878 26.28858 26.28858 0 002.59278-5.77369 42.64272 42.64272 0 001.46386-5.96862 43.44554 43.44554 0 00.61719-6.11475A26.61708 26.61708 0 00392.62628 245.33972zM398.02618 254.099a23.96424 23.96424 0 00-2.73145 5.07031 41.31968 41.31968 0 00-1.71728 5.25976 47.2138 47.2138 0 00-1.03711 5.39393c-.11231.91552-.21533 1.82592-.28369 2.7539a20.49426 20.49426 0 01-.30176 2.81983 5.53622 5.53622 0 00.66406-.41919l.53907-.54016a9.96877 9.96877 0 00.94287-1.17933 18.88832 18.88832 0 001.4497-2.52307 28.09564 28.09564 0 001.90235-5.32019 31.49177 31.49177 0 00.8955-5.53955A20.85388 20.85388 0 00398.02618 254.099zM367.58136 232.47735a34.44909 34.44909 0 00-6.084-5.27569 56.37912 56.37912 0 00-6.72461-4.01 55.38957 55.38957 0 00-7.21-3.05194 34.055 34.055 0 00-7.85644-1.77411 34.04582 34.04582 0 006.08056 5.28174 55.39541 55.39541 0 006.728 4.0039 56.35549 56.35549 0 007.21289 3.0459A34.4458 34.4458 0 00367.58136 232.47735zM373.55743 243.63958a42.4367 42.4367 0 00-7.50391-4.91229 70.65507 70.65507 0 00-8.00293-3.58417 69.39163 69.39163 0 00-8.38037-2.5791 41.95341 41.95341 0 00-8.88379-1.23834 41.9616 41.9616 0 007.501 4.91864 69.40235 69.40235 0 008.00537 3.57782 70.63882 70.63882 0 008.38281 2.57275A42.43635 42.43635 0 00373.55743 243.63958zM380.5921 256.04681a36.18949 36.18949 0 00-6.76416-4.74267 59.47093 59.47093 0 00-7.28028-3.421 58.41715 58.41715 0 00-7.67041-2.42078 35.77047 35.77047 0 00-8.19091-1.08649 35.78238 35.78238 0 006.76171 4.749 58.4254 58.4254 0 007.28272 3.41474 59.47866 59.47866 0 007.67285 2.41449A36.18757 36.18757 0 00380.5921 256.04681zM386.15167 265.59668a27.13015 27.13015 0 00-5.94092-3.91315 43.3282 43.3282 0 00-6.36475-2.55914 42.55175 42.55175 0 00-6.686-1.53455 26.84217 26.84217 0 00-7.11377-.16766 26.84062 26.84062 0 005.939 3.91955 42.54838 42.54838 0 006.36719 2.55274 43.30559 43.30559 0 006.6875 1.528A27.1444 27.1444 0 00386.15167 265.59668z"></path><path fill="#8b9d36" d="M390.54034 274.16565a35.68414 35.68414 0 00-6.53027-4.9618 58.56624 58.56624 0 00-7.09375-3.65979 57.54473 57.54473 0 00-7.52051-2.67456 35.28284 35.28284 0 00-8.08936-1.3601 35.26945 35.26945 0 006.52735 4.968 57.52047 57.52047 0 007.09668 3.65369 58.553 58.553 0 007.523 2.66821A35.682 35.682 0 00390.54034 274.16565zM365.63946 227.72571a25.11585 25.11585 0 00-.19482-8.01984 37.78993 37.78993 0 00-2.04346-7.2959 37.16923 37.16923 0 00-3.44385-6.74756 24.86483 24.86483 0 00-5.311-6.01672 24.85 24.85 0 00.18554 8.02325 37.20253 37.20253 0 002.05225 7.29248 37.79329 37.79329 0 003.45312 6.74408A25.12 25.12 0 00365.63946 227.72571z"></path><path fill="#50661a" d="M395.869,278.40946c-.01075-.666-1.22461-66.87305-13.96192-87.041l.84571-.5332c12.88671,20.4043,14.07226,84.82617,14.11621,87.55859Z"></path><path fill="#50661a" d="M386.47 200.03738a45.82733 45.82733 0 01-.29981-9.01806 81.07505 81.07505 0 01.97461-8.748c.4668-2.88482 1.102-5.741 1.84912-8.57336.7461-2.85108 1.68848-5.59418 2.69532-8.516a12.49539 12.49539 0 01.645 2.24206 19.97879 19.97879 0 01.35254 2.27826 38.609 38.609 0 01.20313 4.52258 58.06729 58.06729 0 01-.814 8.86359 64.41682 64.41682 0 01-2.05078 8.63025A40.57818 40.57818 0 01386.47 200.03738zM370.62969 159.242a32.40161 32.40161 0 015.64112 7.248 50.93808 50.93808 0 013.78076 7.94428 50.05564 50.05564 0 012.373 8.47125 32.05247 32.05247 0 01.49511 9.17407 32.052 32.052 0 01-5.6499-7.24475 50.00938 50.00938 0 01-3.772-7.94763 50.93782 50.93782 0 01-2.36426-8.47455A32.38532 32.38532 0 01370.62969 159.242zM360.00958 175.6608a74.64122 74.64122 0 017.42871 6.845c2.2959 2.38 4.48682 4.81323 6.63037 7.25964l6.36865 7.30878c1.06836 1.19684 2.14795 2.37616 3.28858 3.49322a15.016 15.016 0 003.88623 2.93573 6.74544 6.74544 0 01-2.65967-.06744 12.45175 12.45175 0 01-2.5625-.806 24.747 24.747 0 01-4.564-2.61688 44.79374 44.79374 0 01-7.51806-6.95514 59.34855 59.34855 0 01-5.97412-8.16138A42.47513 42.47513 0 01360.00958 175.6608zM360.00958 192.07962a61.48143 61.48143 0 019.23486 5.67981 104.62322 104.62322 0 018.28565 6.73413 102.85658 102.85658 0 017.56738 7.532 60.78971 60.78971 0 016.60889 8.59638 60.76559 60.76559 0 01-9.23975-5.67481 102.77269 102.77269 0 01-8.28125-6.73913 104.61649 104.61649 0 01-7.5625-7.53705A61.4734 61.4734 0 01360.00958 192.07962zM361.08966 204.962a60.79427 60.79427 0 019.33007 5.39563 103.3907 103.3907 0 018.40918 6.4743 101.6137 101.6137 0 017.71143 7.29059 60.111 60.111 0 016.78076 8.37945 60.08144 60.08144 0 01-9.335-5.39044 101.55017 101.55017 0 01-8.4043-6.47943 103.39022 103.39022 0 01-7.707-7.29572A60.76389 60.76389 0 01361.08966 204.962zM361.80938 218.732a56.5212 56.5212 0 019.34571 4.53376 95.71645 95.71645 0 018.49707 5.67047 94.12111 94.12111 0 017.85449 6.53088 55.8521 55.8521 0 016.99756 7.67853 55.902 55.902 0 01-9.34961-4.52832 94.119 94.119 0 01-8.49317-5.676 95.781 95.781 0 01-7.85009-6.53632A56.51957 56.51957 0 01361.80938 218.732zM361.08966 228.722a62.884 62.884 0 019.77832 4.96485 107.11294 107.11294 0 018.92041 6.09479 105.23017 105.23017 0 018.27148 6.95 62.1441 62.1441 0 017.40479 8.09064 62.14952 62.14952 0 01-9.78223-4.95942 105.228 105.228 0 01-8.9165-6.10022 107.09235 107.09235 0 01-8.26709-6.95538A62.87836 62.87836 0 01361.08966 228.722zM358.56964 238.08194a81.97481 81.97481 0 0110.22119 5.67273c3.24511 2.07739 6.38476 4.2735 9.4458 6.56561 3.06982 2.27875 6.05469 4.65448 8.98681 7.10932 2.96241 2.43377 5.76075 4.96862 8.82569 7.479a24.7131 24.7131 0 01-5.72315-1.67017 55.96635 55.96635 0 01-5.31445-2.55853 87.2257 87.2257 0 01-9.7666-6.35547 100.7028 100.7028 0 01-8.87256-7.4873A63.785 63.785 0 01358.56964 238.08194zM355.50958 247.802a84.30556 84.30556 0 0111.09912 5.27448c3.54443 1.97455 6.98437 4.09466 10.34521 6.32635q5.042 3.34653 9.84082 7.03778 2.3987 1.85083 4.75147 3.76819a42.34093 42.34093 0 004.82324 3.69324 9.317 9.317 0 01-3.11816-.53552c-1.00489-.29761-1.98047-.65967-2.94532-1.03626-1.92431-.76391-3.78369-1.63769-5.60742-2.5636a106.418 106.418 0 01-10.51318-6.202 120.1843 120.1843 0 01-9.78565-7.25214A74.38118 74.38118 0 01355.50958 247.802zM389.57257 211.47281a49.74961 49.74961 0 011.43457-9.62586 83.59433 83.59433 0 012.7666-9.13854 82.28125 82.28125 0 013.77539-8.76978 49.21368 49.21368 0 015.12012-8.27783 49.2201 49.2201 0 01-1.42774 9.62817 82.28244 82.28244 0 01-2.77344 9.13623 83.71007 83.71007 0 01-3.78173 8.76746A49.75121 49.75121 0 01389.57257 211.47281zM391.70636 222.71262a50.83562 50.83562 0 012.76269-9.44587 85.60493 85.60493 0 014.01758-8.78448 84.18371 84.18371 0 014.96777-8.284 50.29463 50.29463 0 016.23487-7.61633 50.29517 50.29517 0 01-2.75635 9.449 84.28448 84.28448 0 01-4.02393 8.78131 85.709 85.709 0 01-4.97363 8.28082A50.9006 50.9006 0 01391.70636 222.71262zM393.3211 233.58194a55.68333 55.68333 0 014.04395-9.483 94.36217 94.36217 0 015.21923-8.68866 92.70852 92.70852 0 016.10938-8.0874 55.06032 55.06032 0 017.2959-7.28553 55.05447 55.05447 0 01-4.03858 9.48682 92.59713 92.59713 0 01-5.22509 8.68482 94.26055 94.26055 0 01-6.11475 8.08367A55.68583 55.68583 0 01393.3211 233.58194zM394.50421 245.5737a71.8013 71.8013 0 015.78955-10.17779q3.22777-4.81705 6.88818-9.27985 3.6482-4.47281 7.71924-8.60028a70.68953 70.68953 0 018.82812-7.69385 70.68112 70.68112 0 01-5.78418 10.18207q-3.22777 4.81677-6.89306 9.27557-3.657 4.46631-7.72461 8.596A71.71571 71.71571 0 01394.50421 245.5737zM395.46466 258.00864a72.51161 72.51161 0 016.856-9.5669q3.731-4.47876 7.856-8.56006 4.11328-4.09267 8.61182-7.79809a71.41682 71.41682 0 019.62109-6.78162 71.41867 71.41867 0 01-6.85107 9.57166q-3.731 4.4783-7.86036 8.5553-4.12133 4.08527-8.61669 7.79327A72.48541 72.48541 0 01395.46466 258.00864zM396.04913 265.982a63.19418 63.19418 0 017.44873-8.08764 107.663 107.663 0 018.3042-6.95593 105.75926 105.75926 0 018.95166-6.09949 62.46934 62.46934 0 019.81592-4.957 62.48749 62.48749 0 01-7.44483 8.093 105.84807 105.84807 0 01-8.3081 6.95056 107.74137 107.74137 0 01-8.95606 6.09405A63.206 63.206 0 01396.04913 265.982zM396.36944 272.642a66.89641 66.89641 0 018.70215-7.23547q4.56445-3.24482 9.40674-6.00391 4.83471-2.77267 9.93994-5.072a66.11294 66.11294 0 0110.65137-3.82874 66.12135 66.12135 0 01-8.69922 7.24128q-4.56446 3.24444-9.40967 5.998-4.83984 2.7638-9.94336 5.06616A66.90642 66.90642 0 01396.36944 272.642zM396.12091 276.962a72.24827 72.24827 0 0110.18115-5.86426c3.49316-1.6864 7.05469-3.189 10.67431-4.53406q5.42873-2.01947 11.04737-3.52734a71.19418 71.19418 0 0111.5459-2.18433 71.19691 71.19691 0 01-10.17871 5.87061q-5.24049 2.529-10.67676 4.52771c-3.62158 1.33984-7.30176 2.52233-11.04981 3.521A72.23767 72.23767 0 01396.12091 276.962z"></path><path fill="#5e7c24" d="M397.92076,276.77567l-.85742-.51563c.24121-.40039,24.13965-40.22754,27.86133-50.15039l.93555.35157C422.10729,236.469,398.90612,275.13407,397.92076,276.77567Z"></path><path fill="#5e7c24" d="M417.29241 205.22571a42.96058 42.96058 0 012.31006 7.74273 72.38517 72.38517 0 011.18066 7.85022 70.94146 70.94146 0 01.32519 7.93152 42.37884 42.37884 0 01-.81543 8.04 42.41746 42.41746 0 01-2.31542-7.74231 71.05723 71.05723 0 01-1.1753-7.85071 72.38354 72.38354 0 01-.31982-7.932A42.92125 42.92125 0 01417.29241 205.22571zM408.47209 217.2857a40.97672 40.97672 0 012.99756 7.3003 68.81657 68.81657 0 011.8833 7.51428 67.76828 67.76828 0 011.03955 7.67633 40.52853 40.52853 0 01-.08593 7.89239 40.49076 40.49076 0 01-3.00293-7.29925 67.76843 67.76843 0 01-1.87793-7.51538 68.93077 68.93077 0 01-1.03418-7.67731A41.01563 41.01563 0 01408.47209 217.2857zM403.61223 231.32568a34.76935 34.76935 0 012.55176 6.78558 57.76106 57.76106 0 011.42773 6.946 56.79106 56.79106 0 01.57764 7.06732 34.32983 34.32983 0 01-.55664 7.22925 34.332 34.332 0 01-2.55713-6.78485 56.69905 56.69905 0 01-1.42236-6.94672 57.76044 57.76044 0 01-.57227-7.06811A34.73569 34.73569 0 01403.61223 231.32568zM397.49211 245.33972a26.61755 26.61755 0 012.58741 5.7746 43.37735 43.37735 0 011.46875 5.96771 42.57314 42.57314 0 01.62255 6.11383 26.30862 26.30862 0 01-.50634 6.30878 26.28858 26.28858 0 01-2.59278-5.77369 42.64272 42.64272 0 01-1.46386-5.96862 43.44554 43.44554 0 01-.61719-6.11475A26.61708 26.61708 0 01397.49211 245.33972zM392.09221 254.099a23.96379 23.96379 0 012.73145 5.07031 41.31968 41.31968 0 011.71728 5.25976 47.2138 47.2138 0 011.03711 5.39393c.11231.91552.21533 1.82592.28369 2.7539a20.49426 20.49426 0 00.30176 2.81983 5.53622 5.53622 0 01-.66406-.41919l-.53906-.54016a9.96785 9.96785 0 01-.94288-1.17933 18.88832 18.88832 0 01-1.4497-2.52307 28.09564 28.09564 0 01-1.90235-5.32019 31.49177 31.49177 0 01-.8955-5.53955A20.85388 20.85388 0 01392.09221 254.099zM422.537 232.47735a34.44867 34.44867 0 016.084-5.27569 56.37912 56.37912 0 016.72461-4.01 55.38957 55.38957 0 017.21-3.05194 34.055 34.055 0 017.85645-1.77411 34.04622 34.04622 0 01-6.08057 5.28174 55.39541 55.39541 0 01-6.728 4.0039 56.35549 56.35549 0 01-7.21289 3.0459A34.44583 34.44583 0 01422.537 232.47735zM416.561 243.63958a42.4367 42.4367 0 017.50391-4.91229 70.65507 70.65507 0 018.00293-3.58417 69.39218 69.39218 0 018.38037-2.5791 41.95341 41.95341 0 018.88379-1.23834 41.9616 41.9616 0 01-7.501 4.91864 69.40235 69.40235 0 01-8.00537 3.57782 70.63882 70.63882 0 01-8.38281 2.57275A42.43635 42.43635 0 01416.561 243.63958zM409.52629 256.04681a36.18949 36.18949 0 016.76416-4.74267 59.47093 59.47093 0 017.28028-3.421 58.41715 58.41715 0 017.67041-2.42078 35.77048 35.77048 0 018.19092-1.08649 35.78276 35.78276 0 01-6.76172 4.749 58.4254 58.4254 0 01-7.28272 3.41474 59.47866 59.47866 0 01-7.67285 2.41449A36.18757 36.18757 0 01409.52629 256.04681zM403.96672 265.59668a27.13015 27.13015 0 015.94092-3.91315 43.3282 43.3282 0 016.36475-2.55914 42.55175 42.55175 0 016.686-1.53455 26.84218 26.84218 0 017.11377-.16766 26.84062 26.84062 0 01-5.939 3.91955 42.54838 42.54838 0 01-6.36719 2.55274 43.30559 43.30559 0 01-6.6875 1.528A27.1444 27.1444 0 01403.96672 265.59668z"></path><path fill="#5e7c24" d="M399.57805 274.16565a35.68414 35.68414 0 016.53027-4.9618 58.56624 58.56624 0 017.09375-3.65979 57.54473 57.54473 0 017.52051-2.67456 35.28284 35.28284 0 018.08936-1.3601 35.26912 35.26912 0 01-6.52735 4.968 57.52047 57.52047 0 01-7.09668 3.65369 58.55345 58.55345 0 01-7.52294 2.66821A35.6822 35.6822 0 01399.57805 274.16565zM424.47893 227.72571a25.11585 25.11585 0 01.19482-8.01984 37.78993 37.78993 0 012.04346-7.2959 37.16923 37.16923 0 013.44385-6.74756 24.86483 24.86483 0 015.311-6.01672 24.85 24.85 0 01-.18554 8.02325 37.20253 37.20253 0 01-2.05225 7.29248 37.79329 37.79329 0 01-3.45312 6.74408A25.12 25.12 0 01424.47893 227.72571z"></path><path fill="#e19974" d="M403.53988,304.95476h-18.0714L379.65472,274.111A1.22592,1.22592,0,0,1,380.851,272.652h27.30633a1.22592,1.22592,0,0,1,1.19629,1.45891Z"></path><path fill="#d6694b" d="M408.93361,276.33957l.42009-2.2286a1.22592,1.22592,0,0,0-1.19629-1.45892H380.851a1.22593,1.22593,0,0,0-1.19629,1.45892l.42009,2.2286Z"></path><polygon fill="#d6694b" points="386.913 296.22 383.096 292.366 386.913 288.513 390.731 292.366 386.913 296.22"></polygon><polygon fill="#d6694b" points="394.548 296.22 390.731 292.366 394.548 288.513 398.365 292.366 394.548 296.22"></polygon><polygon fill="#d6694b" points="402.095 296.22 398.278 292.366 402.095 288.513 405.912 292.366 402.095 296.22"></polygon><rect width="500" height="1.977" x="14.561" y="396.407" fill="#935b50"></rect><path fill="#50661a" d="M62.06737,370.15018A116.96168,116.96168,0,0,1,60.4536,353.469a123.01252,123.01252,0,0,1,.66089-16.76721,89.48071,89.48071,0,0,1,3.42834-16.42932,72.55325,72.55325,0,0,1,3.06019-7.82044,59.71659,59.71659,0,0,1,4.18762-7.262,62.9,62.9,0,0,0-6.77454,15.22937c-.76929,2.67468-1.46313,5.3706-2.00281,8.10205q-.789,4.10028-1.2594,8.25342a131.43416,131.43416,0,0,0-.807,16.6842q.03882,4.18122.323,8.358C61.44652,364.60086,61.683,367.384,62.06737,370.15018Z"></path><path fill="#5e7c24" d="M62.06739,328.31365s-29.38216,3.70051-42.16928-8.90757c-9.4892-9.35633-.46339-25.45988,12.5413-22.55062C41.14575,298.80314,51.88429,306.54193,62.06739,328.31365Z"></path><path fill="#50661a" d="M62.06737,328.31363c-4.12451-1.25537-8.18408-2.72546-12.1803-4.35278q-5.99157-2.4483-11.74853-5.44226-2.863-1.5174-5.61829-3.233a56.52806,56.52806,0,0,1-5.33569-3.689,39.84356,39.84356,0,0,1-4.80042-4.36645,19.32072,19.32072,0,0,1-3.52771-5.4104,19.16645,19.16645,0,0,0,3.75782,5.19494,39.99937,39.99937,0,0,0,4.8706,4.18762,82.147,82.147,0,0,0,10.95471,6.74744c3.78479,2.03687,7.69764,3.83154,11.6388,5.5564q2.95788,1.29162,5.96032,2.482C58.03258,326.80106,60.03917,327.58548,62.06737,328.31363Z"></path><path fill="#50661a" d="M30.20653 313.45645l.02881-4.33471c-.00806-1.4408.00037-2.87927-.08154-4.313a37.70879 37.70879 0 00-.38086-4.27429l-.19934-1.04993c-.07093-.34949-.19373-.6814-.28565-1.02649a7.57126 7.57126 0 00-.38745-.99231 8.68593 8.68593 0 00-.577-.90649 7.29993 7.29993 0 011.93592 3.88061 29.125 29.125 0 01.53735 4.34143c.02893 1.45508.02991 2.90857-.06836 4.35694A36.4589 36.4589 0 0130.20653 313.45645zM16.37865 313.45645c1.727-.30065 3.43066-.54833 5.09583-.932a15.30079 15.30079 0 002.41638-.76074 3.493 3.493 0 001.88806-1.591 3.03076 3.03076 0 01-1.65845 2.03821 9.84769 9.84769 0 01-2.49914.94043A15.88366 15.88366 0 0116.37865 313.45645zM21.69054 320.98478a48.92938 48.92938 0 006.8208-1.3711 12.80244 12.80244 0 003.12915-1.34241 4.472 4.472 0 002.08179-2.5935 4.05247 4.05247 0 01-1.79468 3.00635 10.42434 10.42434 0 01-3.23 1.54589A20.24951 20.24951 0 0121.69054 320.98478zM38.11974 318.14933q.73463-2.15351 1.34924-4.32361c.398-1.45069.79041-2.90174 1.05-4.379a25.9661 25.9661 0 00.4021-8.94336 15.0631 15.0631 0 01.68665 4.50952 26.969 26.969 0 01-.45716 4.55676 35.64311 35.64311 0 01-1.21118 4.40467A28.09209 28.09209 0 0138.11974 318.14933zM33.72228 326.65152c.93677-.24585 1.843-.5531 2.73083-.88147a15.25864 15.25864 0 002.54163-1.20739 9.35446 9.35446 0 002.1477-1.74219 7.583 7.583 0 001.34192-2.46387 5.45345 5.45345 0 01-.94494 2.77234 7.618 7.618 0 01-2.2135 1.986 10.62383 10.62383 0 01-2.71839 1.13159A10.94545 10.94545 0 0133.72228 326.65152zM48.61046 307.11771a14.30028 14.30028 0 011.38147 3.8429 16.49929 16.49929 0 01.32276 4.10217 13.38022 13.38022 0 01-.86145 4.03027 12.08845 12.08845 0 01-2.08338 3.51514 18.33791 18.33791 0 001.615-3.677 14.66209 14.66209 0 00.68738-3.90528 18.86045 18.86045 0 00-.16614-3.97925A24.14764 24.14764 0 0048.61046 307.11771zM46.71068 328.31363c1.06787-.53528 2.11743-.99438 3.12439-1.53381a12.45116 12.45116 0 002.81909-1.94739 5.29035 5.29035 0 01-2.51684 2.516A8.212 8.212 0 0146.71068 328.31363zM56.01158 317.03226a14.38519 14.38519 0 011.0094 4.567 10.27038 10.27038 0 01-.11328 2.364 4.54526 4.54526 0 01-.89612 2.18274 7.19659 7.19659 0 00.39649-2.23938 20.01977 20.01977 0 00-.03-2.27112C56.2993 320.11356 56.11571 318.59378 56.01158 317.03226z"></path><path fill="#c4ce6e" d="M60.99949,328.16562s-22.89271-18.78641-22.53305-36.74037c.26691-13.32346,18.165-17.84522,24.99628-6.40319C68.03608,292.68223,69.80268,305.80031,60.99949,328.16562Z"></path><path fill="#8b9d36" d="M60.9995,328.16568a125.62981,125.62981,0,0,1-5.34387-11.78833q-2.38587-6.02307-4.172-12.27234-.86206-3.12871-1.50391-6.31677a53.85752,53.85752,0,0,1-.96875-6.42908,39.90505,39.90505,0,0,1-.08252-6.50781,18.59734,18.59734,0,0,1,1.58924-6.27649,19.94211,19.94211,0,0,0-1.09986,6.30591,39.95564,39.95564,0,0,0,.35791,6.396,83.82306,83.82306,0,0,0,2.67005,12.5603c1.10815,4.14648,2.49695,8.21606,3.92651,12.27051q1.07245,3.04193,2.24988,6.04858C59.37511,324.17374,60.18834,326.16715,60.9995,328.16568Z"></path><path fill="#8b9d36" d="M49.875 294.81754c2.031-2.08911 4.121-4.0564 6.11413-6.10925.994-1.02613 1.953-2.07813 2.853-3.17481a18.27454 18.27454 0 001.21106-1.73474 7.486 7.486 0 00.48743-.93921 10.04218 10.04218 0 00.30652-1.02942 7.02206 7.02206 0 01-1.37 4.157 24.38 24.38 0 01-2.77051 3.41687A33.57386 33.57386 0 0149.875 294.81754zM40.36559 284.7786c1.50439.94617 2.86511 1.97925 4.27869 2.91015a18.72827 18.72827 0 002.16235 1.24866 3.7168 3.7168 0 002.40735.40747 2.93985 2.93985 0 01-2.66626.32862 9.10781 9.10781 0 01-2.45313-1.15015A13.04517 13.04517 0 0140.36559 284.7786zM38.553 293.81217c1.94494 1.34241 3.79431 2.72632 5.77417 3.85461a13.84558 13.84558 0 003.06665 1.36707 4.65372 4.65372 0 003.28625-.13623 3.95289 3.95289 0 01-3.44494.90027 10.0032 10.0032 0 01-3.40357-1.26319 17.527 17.527 0 01-2.88574-2.10351A15.76409 15.76409 0 0138.553 293.81217zM51.9099 303.78983c1.35889-.68872 2.68372-1.40967 4.00464-2.12158 1.31091-.73072 2.615-1.46314 3.86792-2.27161a42.47366 42.47366 0 003.63721-2.5835 27.0977 27.0977 0 003.22766-3.12475 13.76693 13.76693 0 01-2.70679 3.70569 23.191 23.191 0 01-3.62207 2.84607A27.37364 27.37364 0 0151.9099 303.78983zM42.71324 306.44425c.87366.446 1.72669.86694 2.58411 1.25488a17.59508 17.59508 0 002.60608.96521 10.16745 10.16745 0 002.68042.394 8.65694 8.65694 0 002.7251-.582 5.05329 5.05329 0 01-2.64905 1.35877 7.33107 7.33107 0 01-3.02527-.20825 9.89013 9.89013 0 01-2.70935-1.24512A9.25537 9.25537 0 0142.71324 306.44425zM67.13317 303.81949a14.11871 14.11871 0 01-4.4812 6.837 15.67848 15.67848 0 01-1.694 1.22754c-.2992.17944-.61756.32776-.92456.49206a5.26742 5.26742 0 01-.95594.42041 11.06334 11.06334 0 01-4.04333.77515 21.53885 21.53885 0 003.72131-1.486 16.56429 16.56429 0 003.25183-2.19287 22.15642 22.15642 0 002.77539-2.80567A30.01087 30.01087 0 0067.13317 303.81949zM50.43859 317.01676c1.19653.28662 2.24792.69568 3.31872 1.04492a20.97828 20.97828 0 003.296.876 3.64759 3.64759 0 01-1.803.3977 6.33774 6.33774 0 01-1.811-.32617 7.5344 7.5344 0 01-1.63367-.79187A5.43354 5.43354 0 0150.43859 317.01676zM65.02513 316.0109a9.506 9.506 0 01-1.0437 2.12549A12.76251 12.76251 0 0162.533 320.0065a9.18506 9.18506 0 01-1.84 1.53223 4.1471 4.1471 0 01-2.28442.73975 8.9068 8.9068 0 001.81494-1.363c.543-.5094 1.07422-1.0365 1.5824-1.59473C62.85241 318.2305 63.84618 317.08158 65.02513 316.0109z"></path><path fill="#c4ce6e" d="M60.31149,359.63162s-29.59515,1.06406-41.20628-12.6347c-8.61651-10.1657,1.81018-25.39967,14.50342-21.34164C42.10645,328.372,52.11164,337.03813,60.31149,359.63162Z"></path><path fill="#8b9d36" d="M60.31151,359.63163a125.60848,125.60848,0,0,1-11.80725-5.30188c-3.84961-1.95789-7.59936-4.11585-11.2489-6.44019q-2.71674-1.77539-5.30762-3.74084a53.83713,53.83713,0,0,1-4.98059-4.179,39.91753,39.91753,0,0,1-4.36841-4.82458,18.59868,18.59868,0,0,1-2.96191-5.75733,19.949,19.949,0,0,0,3.34827,5.45557,39.96977,39.96977,0,0,0,4.50085,4.55847,83.82966,83.82966,0,0,0,10.31348,7.65c3.57458,2.37537,7.309,4.50757,11.06372,6.60132q2.81708,1.57106,5.68933,3.046C56.452,357.71366,58.38085,358.67008,60.31151,359.63163Z"></path><path fill="#8b9d36" d="M29.90343 341.99076c.14038-2.91028.4054-5.76819.54126-8.62622.06628-1.42713.08911-2.85047.03821-4.26819a18.30891 18.30891 0 00-.24-2.102 7.50238 7.50238 0 00-.25611-1.02661 10.04459 10.04459 0 00-.45129-.97474 7.0222 7.0222 0 011.72351 4.02332 24.37128 24.37128 0 01.184 4.395A33.56921 33.56921 0 0129.90343 341.99076zM16.13073 340.757c1.754-.28613 3.45788-.412 5.13354-.64953a18.732 18.732 0 002.44763-.49476 3.7167 3.7167 0 002.07447-1.28747 2.94015 2.94015 0 01-1.7815 2.01074 9.10808 9.10808 0 01-2.60034.761A13.04607 13.04607 0 0116.13073 340.757zM20.74962 348.72928c2.34644-.28064 4.64881-.46692 6.87976-.931a13.85307 13.85307 0 003.20386-1.00439A4.65342 4.65342 0 0033.2069 344.517a3.95262 3.95262 0 01-1.98706 2.95471 10.00113 10.00113 0 01-3.38758 1.30506 17.52626 17.52626 0 01-3.55566.33264A15.771 15.771 0 0120.74962 348.72928zM37.36632 347.37113c.56311-1.41565 1.07935-2.83277 1.59863-4.24072.49927-1.41529.99231-2.8274 1.39661-4.26258a42.47141 42.47141 0 001.01733-4.34387 27.09511 27.09511 0 00.35218-4.47864 13.76806 13.76806 0 01.42285 4.56946 23.19659 23.19659 0 01-.83228 4.53064A27.37234 27.37234 0 0137.36632 347.37113zM32.22777 355.44693c.9502-.24365 1.86829-.49255 2.76782-.769a17.60412 17.60412 0 002.59253-1.001 10.16718 10.16718 0 002.27051-1.47827 8.658 8.658 0 001.65784-2.23962 5.05284 5.05284 0 01-1.08692 2.7716 7.33106 7.33106 0 01-2.406 1.84583 9.88794 9.88794 0 01-2.85523.85938A9.25383 9.25383 0 0132.22777 355.44693zM48.79943 337.31949a14.11959 14.11959 0 011.16455 8.09143 15.65846 15.65846 0 01-.45777 2.04126c-.10547.33252-.246.65442-.36743.98072a5.263 5.263 0 01-.4386.94775 11.0627 11.0627 0 01-2.51843 3.25684 21.5408 21.5408 0 001.80664-3.57666 16.553 16.553 0 00.98694-3.7959 22.14024 22.14024 0 00.22424-3.94007A30.02583 30.02583 0 0048.79943 337.31949zM45.016 358.26139c1.08679-.57679 2.14575-.96582 3.17969-1.41272a20.973 20.973 0 003.05078-1.5243 3.64809 3.64809 0 01-1.08862 1.49134 6.33291 6.33291 0 01-1.57361.95373 7.53 7.53 0 01-1.7489.48743A5.43007 5.43007 0 0145.016 358.26139zM55.28649 347.85489a9.50763 9.50763 0 01.624 2.28418 12.75313 12.75313 0 01.15137 2.3606 9.19 9.19 0 01-.36536 2.36633 4.14712 4.14712 0 01-1.22327 2.06629 8.90569 8.90569 0 00.45874-2.22291c.07007-.74121.11951-1.48791.13111-2.24279C55.12621 350.95682 55.11107 349.43778 55.28649 347.85489z"></path><path fill="#5e7c24" d="M62.05956,330.30161s29.53663,2.14316,41.63984-11.12283c8.98167-9.84456-.88225-25.44881-13.71509-21.85661C81.393,299.72707,71.0783,308.02234,62.05956,330.30161Z"></path><path fill="#50661a" d="M62.05956,330.30167c1.98681-.83435,3.94922-1.72363,5.89734-2.64075q2.9328-1.35186,5.82092-2.79345c3.8446-1.93067,7.6571-3.92957,11.3291-6.16346a82.158,82.158,0,0,0,10.58289-7.31677,39.98181,39.98181,0,0,0,4.64258-4.43909,19.16524,19.16524,0,0,0,3.47815-5.38623,19.31923,19.31923,0,0,1-3.23694,5.58924,39.86507,39.86507,0,0,1-4.563,4.614,56.54551,56.54551,0,0,1-5.13342,3.96558q-2.65851,1.85724-5.4397,3.52539-5.5783,3.29883-11.44458,6.0553C70.08824,327.14762,66.11205,328.83011,62.05956,330.30167Z"></path><path fill="#50661a" d="M93.09105 313.782a36.45874 36.45874 0 01-.74926-4.28467c-.17469-1.44116-.25037-2.89258-.29834-4.34717a29.09493 29.09493 0 01.30725-4.36377 7.29928 7.29928 0 011.72827-3.97754 8.67226 8.67226 0 00-.52844.93579 7.56819 7.56819 0 00-.33448 1.01136c-.07348.34948-.17871.6875-.23095 1.04016l-.14368 1.059a37.69638 37.69638 0 00-.15454 4.28845c-.00611 1.436.07837 2.87207.14648 4.31128zM106.89965 313.05155a15.87911 15.87911 0 01-5.25147-.02771 9.85058 9.85058 0 01-2.54529-.807 3.03032 3.03032 0 01-1.76379-1.94775 3.492 3.492 0 001.96936 1.48889 15.31376 15.31376 0 002.45325.63208C103.44481 312.68521 105.15905 312.84256 106.89965 313.05155zM101.99291 320.85a20.25191 20.25191 0 01-7.03723-.38355 10.42591 10.42591 0 01-3.30713-1.37316 4.05266 4.05266 0 01-1.951-2.90735 4.47278 4.47278 0 002.21594 2.48 12.80224 12.80224 0 003.1958 1.17517A48.94027 48.94027 0 00101.99291 320.85zM85.43676 318.88639a28.10328 28.10328 0 01-2.03772-4.07312 35.62694 35.62694 0 01-1.44214-4.33448 26.96808 26.96808 0 01-.69715-4.52624 15.06651 15.06651 0 01.44739-4.53955 25.96527 25.96527 0 00.874 8.90967c.33729 1.46142.80591 2.88989 1.27991 4.3175Q84.5849 316.77848 85.43676 318.88639zM90.27721 327.14444a10.947 10.947 0 01-2.90247-.25207 10.62886 10.62886 0 01-2.77441-.98645 7.618 7.618 0 01-2.31531-1.86621 5.45356 5.45356 0 01-1.09009-2.71851 7.58218 7.58218 0 001.4701 2.38941 9.35243 9.35243 0 002.23681 1.62634 15.25827 15.25827 0 002.60193 1.07153C88.40758 326.68949 89.32885 326.94828 90.27721 327.14444zM74.378 308.42435a24.14079 24.14079 0 00-.68689 3.97083 18.85755 18.85755 0 00.04431 3.98242 14.65179 14.65179 0 00.89282 3.86352 18.34183 18.34183 0 001.80689 3.58655 12.08883 12.08883 0 01-2.26611-3.40015 13.38065 13.38065 0 01-1.07325-3.97912 16.50289 16.50289 0 01.10559-4.11353A14.29948 14.29948 0 0174.378 308.42435zM77.39489 329.49039a8.21149 8.21149 0 01-3.4729-.783 5.28944 5.28944 0 01-2.64625-2.37952 12.44674 12.44674 0 002.9181 1.79578C75.22777 328.60916 76.30016 329.01224 77.39489 329.49039zM67.51085 318.7161c-.02148 1.56482-.12439 3.09216-.12268 4.61609a19.99688 19.99688 0 00.09 2.26965 7.19786 7.19786 0 00.51428 2.21521 4.544 4.544 0 01-1.01013-2.13232 10.26364 10.26364 0 01-.238-2.35462A14.38765 14.38765 0 0167.51085 318.7161z"></path><path fill="#8b9d36" d="M60.936,359.29538s29.53663,2.14315,41.63984-11.12284c8.98167-9.84456-.88225-25.44881-13.71509-21.8566C80.26948,328.72084,69.95477,337.01611,60.936,359.29538Z"></path><path fill="#5e7c24" d="M60.936,359.29532c1.96448-.89038,3.92688-1.77575,5.86219-2.72021q2.92089-1.37495,5.79675-2.83643c3.82861-1.95544,7.63818-3.94983,11.29712-6.19336a83.81747,83.81747,0,0,0,10.58569-7.26855,39.9436,39.9436,0,0,0,4.66419-4.39124,19.943,19.943,0,0,0,3.545-5.32983,18.5956,18.5956,0,0,1-3.16992,5.64551,39.91529,39.91529,0,0,1-4.54151,4.662,53.8408,53.8408,0,0,1-5.12976,3.99451q-2.65923,1.86712-5.44055,3.54468c-3.73193,2.1897-7.55786,4.20923-11.47644,6.02539A125.60079,125.60079,0,0,1,60.936,359.29532Z"></path><path fill="#5e7c24" d="M91.96752 342.77579a33.57275 33.57275 0 01-1.22559-8.63 24.37124 24.37124 0 01.34424-4.38538 7.02241 7.02241 0 011.86926-3.95776 10.04875 10.04875 0 00-.48669.95764 7.49069 7.49069 0 00-.29334 1.0166 18.31576 18.31576 0 00-.31653 2.0918c-.10253 1.415-.13171 2.83813-.11755 4.26684C91.77282 336.99662 91.93346 339.86234 91.96752 342.77579zM105.77611 342.0452a13.04717 13.04717 0 01-5.28284.14746 9.10573 9.10573 0 01-2.57067-.85547 2.93978 2.93978 0 01-1.707-2.07434 3.71684 3.71684 0 002.02613 1.36231 18.72819 18.72819 0 002.42785.58374C102.33556 341.50736 104.03356 341.69535 105.77611 342.0452zM100.86937 349.84366a15.76294 15.76294 0 01-3.53857.25134 17.53031 17.53031 0 01-3.54114-.46215 10.00116 10.00116 0 01-3.33777-1.42786 3.95292 3.95292 0 01-1.87793-3.02527 4.65408 4.65408 0 002.28907 2.36206 13.85159 13.85159 0 003.165 1.12049C96.24071 349.20755 98.53478 349.4777 100.86937 349.84366zM84.31322 347.88016a27.36841 27.36841 0 01-3.65247-8.3645 23.18383 23.18383 0 01-.6665-4.558 13.76775 13.76775 0 01.58936-4.55091 27.07829 27.07829 0 00.18847 4.48853 42.48409 42.48409 0 00.85816 4.37793c.35168 1.44909.793 2.87817 1.24023 4.31079C83.338 345.00992 83.80223 346.445 84.31322 347.88016zM89.15367 356.13822a9.25509 9.25509 0 01-2.93811-.11853 9.89019 9.89019 0 01-2.822-.96289 7.33036 7.33036 0 01-2.337-1.93238 5.05447 5.05447 0 01-.98511-2.80944 8.659 8.659 0 001.57507 2.29858 10.16412 10.16412 0 002.21509 1.56018 17.59509 17.59509 0 002.55432 1.09485C87.30468 355.57767 88.213 355.86 89.15367 356.13822zM73.2545 337.41812a30.02092 30.02092 0 00-.546 3.98816 22.15286 22.15286 0 00.08033 3.94556 16.56448 16.56448 0 00.84777 3.82947 21.53285 21.53285 0 001.675 3.64014 11.063 11.063 0 01-2.39807-3.34656 5.27056 5.27056 0 01-.40368-.96314c-.1095-.33056-.238-.65735-.33143-.99341a15.68661 15.68661 0 01-.38293-2.05664A14.11973 14.11973 0 0173.2545 337.41812zM76.27135 358.48416a5.43048 5.43048 0 01-1.818-.07092 7.52583 7.52583 0 01-1.72986-.5509 6.33261 6.33261 0 01-1.53784-1.01062 3.64749 3.64749 0 01-1.03345-1.53 20.972 20.972 0 002.99316 1.63464C74.16234 357.44059 75.20641 357.86808 76.27135 358.48416zM66.38732 347.70975c.11767 1.58826.047 3.10571.055 4.61682-.016.75476.00623 1.50281.04907 2.2461a8.91152 8.91152 0 00.37744 2.23816 4.14587 4.14587 0 01-1.14709-2.1095 9.19494 9.19494 0 01-.27881-2.378 12.7599 12.7599 0 01.23743-2.35364A9.51346 9.51346 0 0166.38732 347.70975z"></path><path fill="#8b9d36" d="M70.806,306.7843s-8.18919-28.45949,2.2952-43.03865c7.78035-10.81905,25.08357-4.3857,24.21546,8.91213C96.73547,281.56037,90.746,293.36425,70.806,306.7843Z"></path><path fill="#5e7c24" d="M70.806,306.78434a125.58089,125.58089,0,0,1,2.28931-12.7389c.96887-4.209,2.15588-8.36914,3.5288-12.47253q1.06568-3.06519,2.34632-6.05457A53.80948,53.80948,0,0,1,81.821,269.675a39.89224,39.89224,0,0,1,3.625-5.40539,18.59673,18.59673,0,0,1,4.87024-4.26624,19.94557,19.94557,0,0,0-4.484,4.56812,39.96839,39.96839,0,0,0-3.33484,5.4696,83.83294,83.83294,0,0,0-4.929,11.8573c-1.44043,4.043-2.60632,8.182-3.73,12.33166q-.84319,3.11336-1.57983,6.25708C71.73375,302.5756,71.27208,304.6785,70.806,306.78434Z"></path><path fill="#5e7c24" d="M80.56993 273.01285c2.85791-.56763 5.69507-1.00146 8.5011-1.56079 1.40088-.28088 2.78748-.6029 4.15088-.99524a18.31375 18.31375 0 001.98157-.74109 7.487 7.487 0 00.9342-.4967 10.073 10.073 0 00.83667-.67371 7.02347 7.02347 0 01-3.48706 2.64539A24.38068 24.38068 0 0189.2672 272.432 33.57759 33.57759 0 0180.56993 273.01285zM78.43663 259.3505c.70191 1.63281 1.236 3.25561 1.87171 4.82422a18.71082 18.71082 0 001.0719 2.25525 3.71648 3.71648 0 001.751 1.70153 2.94007 2.94007 0 01-2.38195-1.24243 9.10513 9.10513 0 01-1.36719-2.339A13.04739 13.04739 0 0178.43663 259.3505zM71.818 265.76017c.8396 2.209 1.57715 4.39795 2.567 6.45044a13.8472 13.8472 0 001.74927 2.86584 4.65369 4.65369 0 002.78332 1.75269 3.95289 3.95289 0 01-3.34753-1.21351 10.00146 10.00146 0 01-2.08557-2.97155 17.52034 17.52034 0 01-1.1825-3.36963A15.76 15.76 0 0171.818 265.76017zM77.154 281.55521c1.50977.2041 3.00964.3623 4.50134.52576 1.494.14221 2.9834.27917 4.47388.32434a42.478 42.478 0 004.46094-.06323 27.08206 27.08206 0 004.43078-.74134 13.766 13.766 0 01-4.33154 1.51526 23.19511 23.19511 0 01-4.59741.28809A27.3691 27.3691 0 0177.154 281.55521zM68.07518 278.52213c.46631.863.92981 1.69372 1.41565 2.49963a17.61493 17.61493 0 001.59815 2.27356A10.16516 10.16516 0 0073.0725 285.141a8.65755 8.65755 0 002.574 1.067 5.05245 5.05245 0 01-2.95215-.3844 7.32929 7.32929 0 01-2.3728-1.88818 9.88743 9.88743 0 01-1.52429-2.56275A9.25518 9.25518 0 0168.07518 278.52213zM89.672 290.21842a14.11906 14.11906 0 01-7.56958 3.08667 15.69265 15.69265 0 01-2.09144.04944c-.34814-.022-.69445-.08045-1.0404-.11939a5.25687 5.25687 0 01-1.02564-.19641 11.06061 11.06061 0 01-3.76916-1.65613 21.53516 21.53516 0 003.90723.88806 16.55941 16.55941 0 003.922.0398 22.1506 22.1506 0 003.87732-.73523A30.01838 30.01838 0 0089.672 290.21842zM68.43676 291.61136c.82251.915 1.456 1.84851 2.13977 2.74378a20.98022 20.98022 0 002.21679 2.59155A3.6462 3.6462 0 0171.083 296.251a6.33322 6.33322 0 01-1.306-1.29626 7.53448 7.53448 0 01-.89588-1.57911A5.43285 5.43285 0 0168.43676 291.61136zM81.01805 299.06058a9.51091 9.51091 0 01-2.06543 1.15784 12.75309 12.75309 0 01-2.254.71777 9.185 9.185 0 01-2.38452.21765 4.14558 4.14558 0 01-2.30066-.68725 8.906 8.906 0 002.26782-.09241c.7362-.11133 1.47265-.2439 2.208-.41516C77.96947 299.65519 79.43969 299.27311 81.01805 299.06058z"></path><path fill="#d6694b" d="M41.10072,362.58371V367.93a1.85289,1.85289,0,0,0,1.83439,1.87085H79.68787A1.85289,1.85289,0,0,0,81.52226,367.93v-4.927a1.85339,1.85339,0,0,0-1.81387-1.87074L42.95563,360.713A1.85239,1.85239,0,0,0,41.10072,362.58371Z"></path><polygon fill="#e19974" points="42.855 369.801 44.162 397.395 77.596 397.395 79.768 369.801 42.855 369.801"></polygon><rect width="121.022" height="145.512" x="355.974" fill="#e5e1e5" rx="6.926"></rect><rect width="84.61" height="63.041" x="372.896" y="17.756" fill="#a2aee6"></rect><rect width="83.151" height="1.215" x="374.355" y="93.591" fill="#a2aee6"></rect><rect width="2.431" height="12.91" x="371.681" y="113.599" fill="#a2aee6"></rect><rect width="2.431" height="12.91" x="376.908" y="113.599" fill="#a2aee6"></rect><path fill="#a2aee6" d="M410.68386 114.45842a1.09952 1.09952 0 011.66192-.94645l9.40388 5.59561a1.10255 1.10255 0 010 1.8929l-9.40388 5.59559a1.09951 1.09951 0 01-1.66192-.94644zM454.46265 109.50638a9.71357 9.71357 0 106.86869 2.84565 9.64446 9.64446 0 00-6.86869-2.84565zm6.00908 15.72221a8.49607 8.49607 0 112.4899-6.00909 8.43965 8.43965 0 01-2.4899 6.00909z"></path><path fill="#a2aee6" d="M453.5141 115.334a.60861.60861 0 00-.64015.07011l-4.24949 3.33889a.60463.60463 0 000 .95311l4.24949 3.33887a.6057.6057 0 00.98163-.47655v-6.67776a.609.609 0 00-.34148-.54667zm-.87266 5.976l-2.65958-2.09045 2.65958-2.09045zM459.5848 115.334a.60609.60609 0 00-.64015.07011l-4.24949 3.33889a.60463.60463 0 000 .95311l4.24949 3.33887a.6057.6057 0 00.98163-.47655v-6.67776a.609.609 0 00-.34148-.54667zm-.87267 5.976l-2.65957-2.09045 2.65957-2.09045z"></path><path fill="#f9977a" d="M335.6471,118.44467l-2.1174-8.17089a6.612,6.612,0,0,1-.1-2.86746l1.05088-5.6509a4.65049,4.65049,0,0,1,2.45989-3.33457,10.77386,10.77386,0,0,1,5.19716-.94938s.41336,3.12693-3.97584,5.4551l.49657.58a1.27478,1.27478,0,0,0,1.84319.09815l3.71586-3.506,3.37074-2.49026s1.82008-6.24867,2.58636-6.85527c0,0,5.29556-3.65785-.28305,8.41524l.585,4.937a6.35863,6.35863,0,0,1-2.36777,5.73384l-3.23491,2.5608-.32687,5.76286Z"></path><polygon points="342.799 108.879 340.099 108.167 351.78 83.784 353.863 84.84 342.799 108.879"></polygon><path fill="#f9977a" d="M349.66449,108.03817l-4.87991,2.65984a1.01993,1.01993,0,0,1-1.28781-.26249h0a1.01992,1.01992,0,0,1,.22523-1.4758l5.57181-3.798-4.34505,1.90637a1.2975,1.2975,0,0,1-1.71708-.68451h0a1.29752,1.29752,0,0,1,.68645-1.69706l4.40246-1.87893-4.154.52277a1.11081,1.11081,0,0,1-1.23263-.9092h0a1.11081,1.11081,0,0,1,.75274-1.25005l6.20481-2.00267"></path><path fill="#dd765e" d="M349.66454,108.03812l-3.3468,1.90588c-.572.31092-1.08387.65052-1.7052.93775a1.14084,1.14084,0,0,1-1.46045-1.11658,1.157,1.157,0,0,1,.497-.92l.78979-.55054,1.57947-1.1012,3.17151-2.18408.1781.32141-3.11328,1.37891-.77832.3446a3.468,3.468,0,0,1-.84864.31116,1.495,1.495,0,0,1-1.1051-2.67432,4.17525,4.17525,0,0,1,.80689-.392l.78418-.33142,3.13623-1.32557.09314.344-3.47266.4126c-.30078.02648-.55383.08178-.8938.08471a1.24278,1.24278,0,0,1-.77637-2.16345,2.06142,2.06142,0,0,1,.83387-.3761l.83544-.25781,1.674-.50586,3.348-1.01172-3.30774,1.13648-1.65393.56823-.82849.27918a1.86006,1.86006,0,0,0-.741.34314.98773.98773,0,0,0-.04968,1.39087.96874.96874,0,0,0,.67761.30444c.24268-.00488.5647-.06934.84314-.10107l3.46655-.4607a.18.18,0,0,1,.202.15454.18262.18262,0,0,1-.10889.18958l-3.127,1.34741-.78174.33691a4.03643,4.03643,0,0,0-.72046.34852,1.09746,1.09746,0,0,0,.81152,1.95849,3.23072,3.23072,0,0,0,.74268-.27527l.78064-.33923,3.1228-1.3573a.18449.18449,0,0,1,.1781.32153l-3.19226,2.15369-1.60229,1.06775-.80115.53381a.89437.89437,0,0,0-.39856.704.90844.90844,0,0,0,1.14978.90576c.54553-.239,1.13184-.57739,1.6958-.86108Z"></path><path fill="#f9977a" d="M310.69879,370.46607l2.204,9.16343s12.075,9.59309,27.53835,12.17051c0,0,4.72488,2.16961,4.72488,5.59471H298.58478V379.6295l-2.05422-9.16344Z"></path><path fill="#d6694b" d="M298.58135,379.626v17.76348h46.58778c0-3.42281-4.73244-5.59107-4.73244-5.59107C324.97339,389.2232,312.9,379.626,312.9,379.626S305.48205,387.85849,298.58135,379.626Z"></path><path fill="#935b50" d="M344.42773,395.07558H298.58478v2.31914l47.22534.00014S347.126,395.98885,344.42773,395.07558Z"></path><path fill="#935b50" d="M330.2528 389.04691c-.44165.65173-.84717 1.14368-1.199 1.6145a10.46542 10.46542 0 00-.85339 1.25513 3.76771 3.76771 0 00-.45386 1.24109 16.01194 16.01194 0 00-.19189 1.918 2.847 2.847 0 01-1.526-1.70679 3.07457 3.07457 0 01.24427-2.5138 3.75327 3.75327 0 011.76123-1.58471A3.42017 3.42017 0 01330.2528 389.04691zM312.9 379.626a8.58383 8.58383 0 01-2.92126 3.16821 8.425 8.425 0 01-4.25806 1.46619 6.74375 6.74375 0 01-1.17383-.02844c-.38855-.06824-.77881-.12488-1.1593-.21179a7.18506 7.18506 0 01-2.07593-1.01648 7.49113 7.49113 0 01-1.63781-1.50757 9.885 9.885 0 01-1.09241-1.87012c.67053.3252 1.20312.74231 1.79761 1.051a12.77986 12.77986 0 001.74389.81262 11.17475 11.17475 0 001.73377.49609 9.82179 9.82179 0 001.75415.07691 12.62255 12.62255 0 003.58032-.78748C310.39611 380.82181 311.61254 380.263 312.9 379.626z"></path><path fill="#f9977a" d="M256.43074,370.46606l.078,9.16344s12.075,9.59309,27.53835,12.17051c0,0,4.72488,2.16961,4.72488,5.59471H242.19073V379.6295l.07178-9.16345Z"></path><path fill="#d6694b" d="M242.1873,379.626v17.76348h46.58778c0-3.42281-4.73244-5.59107-4.73244-5.59107-15.46329-2.5752-27.5367-12.17241-27.5367-12.17241S249.088,387.85849,242.1873,379.626Z"></path><path fill="#935b50" d="M288.03368,395.07558H242.19073v2.31914l47.22534.00014S290.73192,395.98885,288.03368,395.07558Z"></path><path fill="#935b50" d="M273.85875 389.04691c-.44165.65173-.84717 1.14368-1.199 1.6145a10.46561 10.46561 0 00-.8534 1.25513 3.76793 3.76793 0 00-.45385 1.24109 16.01373 16.01373 0 00-.1919 1.918 2.847 2.847 0 01-1.526-1.70679 3.075 3.075 0 01.24414-2.5138 3.75416 3.75416 0 011.76135-1.58471A3.42018 3.42018 0 01273.85875 389.04691zM256.506 379.626a8.58318 8.58318 0 01-2.92139 3.16821 8.42409 8.42409 0 01-4.25793 1.46619 6.74373 6.74373 0 01-1.17383-.02844c-.38855-.06824-.77881-.12488-1.1593-.21179a7.18506 7.18506 0 01-2.07593-1.01648 7.49118 7.49118 0 01-1.63782-1.50757 9.89259 9.89259 0 01-1.09253-1.87012c.67066.3252 1.20325.74231 1.79773 1.051a12.78052 12.78052 0 001.7439.81262 11.175 11.175 0 001.73376.49609 9.82141 9.82141 0 001.75416.07691 12.62255 12.62255 0 003.58032-.78748C254.00206 380.82181 255.21849 380.263 256.506 379.626z"></path><polygon fill="#8b9d36" points="301.178 198.519 314.073 375.108 293.221 374.163 277.484 281.721 259.031 374.172 240.639 373.338 246.825 196.056 301.178 198.519"></polygon><path fill="#f9977a" d="M282.67546,130.77618c8.65484-4.50662-.219-15.6-.219-15.6l-.14975-.56257a.70754.70754,0,0,1,.698-.91913c1.904.16161,5.80576.05713,4.3345-3.79575a3.67481,3.67481,0,0,1,.88542-2.99115,1.035,1.035,0,0,0-.14714-1.51388,9.74085,9.74085,0,0,1-2.86884-2.88084.6915.6915,0,0,1,.61622-1.03518l3.67325.311a.54612.54612,0,0,0,.5547-.66191l-.0888-.50839a.59448.59448,0,0,1,.4567-.69991l1.24919-.22042a1.43633,1.43633,0,0,0,.9814-2.01142l-2.18723-4.978a4.20835,4.20835,0,0,1-.2052-2.77847c.72834-2.70625,2.72664-1.96978,1.19748-8.0002,0,0-6.33549-7.31452-19.15634,2.10259,0,0,.55905-.61589-5.48234,5.15834,0,0-2.36258,2.15055-1.00872,9.18038,0,0-2.9462,13.83652-.79971,18.41817C265.00924,116.7895,274.02062,135.2828,282.67546,130.77618Z"></path><path fill="#dd765e" d="M266.66489,100.56866s2.179,26.77542,16.29784,15.292l-.50632-.68443-.14975-.56257a.70753.70753,0,0,1,.698-.91913c.12278.01041.25443.01957.39182.02679l.06291-.25058C269.435,114.80494,266.66489,100.56866,266.66489,100.56866Z"></path><path d="M282.63573,90.37559a.50547.50547,0,0,1-.5316-.25141.57563.57563,0,0,1,.16045-.76188,18.79822,18.79822,0,0,1,7.969-2.81119.55452.55452,0,0,1,.08916,1.10278,18.18148,18.18148,0,0,0-7.50669,2.64687A.49346.49346,0,0,1,282.63573,90.37559Z"></path><path fill="#350500" d="M285.33629,91.51358a2.176,2.176,0,0,1,.7688-.87793,3.07228,3.07228,0,0,1,1.0459-.46093,2.32431,2.32431,0,0,1,2.20264.55334c-.40088.14038-.72242.20752-1.04053.29419l-.9231.22608A9.64116,9.64116,0,0,1,285.33629,91.51358Z"></path><ellipse cx="287.916" cy="91.823" fill="#050505" rx=".651" ry="1.215" transform="rotate(-9.443 287.916 91.823)"></ellipse><path fill="#dd765e" d="M266.82035,92.80073a6.431,6.431,0,0,1,2.30739-.67654,2.359,2.359,0,0,1,1.0978.22884,4.45651,4.45651,0,0,1,1.01477.71539,2.37485,2.37485,0,0,0-.8201-1.09218,2.1196,2.1196,0,0,0-1.30732-.40479,2.91892,2.91892,0,0,0-1.28337.3716A3.12807,3.12807,0,0,0,266.82035,92.80073Z"></path><path fill="#dd765e" d="M267.5577,97.0219a3.479,3.479,0,0,0,1.0296-.9622,4.55092,4.55092,0,0,0,.66187-1.30631,5.721,5.721,0,0,0,.16946-.72935,4.496,4.496,0,0,0,.02874-.75042,3.66517,3.66517,0,0,0-.33867-1.42707,12.17029,12.17029,0,0,1-.06357,1.40885,6.309,6.309,0,0,1-.28438,1.31777A10.04359,10.04359,0,0,1,267.5577,97.0219Z"></path><path d="M262.59914,105.29692c-3.3016-.60141-4.60976-6.21925-5.88155-11.68088a28.86414,28.86414,0,0,1-.70576-12.36016c.55176-3.09224,1.08611-6.08684,3.47112-8.827,3.31368-3.80705,7.99637-4.59133,11.7312-5.21687,4.18055-.70018,7.52223-1.25986,10.77166.45092,3.44418,1.81332,4.314,1.437,6.54633,4.261.76951.97345,3.67355,1.14919,5.31478,2.169.32722.20333,2.22529,1.38271,2.10814,2.49422-.05052.47927-.7336,4.46012-7.49469,5.90646-3.90287.83491-5.184.37612-7.01153,1.394-4.02518,2.24193-6.45156.81832-7.35774,1.05648-1.0907.28667.10389,1.797.87548,4.37952a29.49733,29.49733,0,0,1,1.08948,5.9791c.29832,3.17526-.1213,3.93148.53824,6.17531a7.41086,7.41086,0,0,0,1.82871,3.59363c1.35323,1.3076,3.0491,1.58125,5.37,1.92486,4.02982.59659,4.25346-.67274,4.77815.27457.525.94783-.02865,4.337-.96285,5.20913-2.58067,2.40928-5.8192,1.18186-8.03455,1.03072-2.99169-.20411-9.56377-2.95657-9.77376-6.88626-.11284-2.11153,1.04818-7.59469,1.78555-10.81837a5.324,5.324,0,0,0-1.71669-5.35581,2.15207,2.15207,0,0,0-1.25546-.53861,2.99406,2.99406,0,0,0-2.54931,1.76459c-.12087.27174-.49316,1.23682.72631,3.98605C268.075,98.55852,265.47319,105.82045,262.59914,105.29692Z"></path><path d="M290.68964,102.09761a.9664.9664,0,0,1-.26409.01454l-4.32625-.35287a3.88572,3.88572,0,0,1-2.64323-1.37948,1.16271,1.16271,0,0,1,.061-1.56306.98512.98512,0,0,1,1.4584.0732,1.86734,1.86734,0,0,0,1.27019.663l4.32624.35287a1.09075,1.09075,0,0,1,.95631,1.18716A1.07534,1.07534,0,0,1,290.68964,102.09761Z"></path><path fill="#ffba55" d="M222.729,180.72172l25.19554,41.75189,12.45313-9.17639-7.88838-15.83952,48.69556,1.05743.71961-33.78247,6.80761,1.82164a8.57356,8.57356,0,0,0,9.31712-1.98272c6.9288-7.13,19.38836-19.28769,27.0642-48.38887l-10.56563-.54479-22.84646,28.31379s-21.1542-26.97523-28.57006-27.87848c0,0,6.3373,31.05951-18.10522.71688,0,0-12.02692-2.31467-31.99523,29.90682-8.4245,13.60114-11.06134,21.99294-11.75905,26.66271A11.06273,11.06273,0,0,0,222.729,180.72172Zm20.23938-7.20256c1.04425-.0876,4.18208-4.33614,7.2962-8.96407L249.15486,189.052Z"></path><path fill="#5e7c24" d="M254.27709 289.93521a27.24571 27.24571 0 01-2.24964 2.00989 25.42136 25.42136 0 01-2.47851 1.74365 16.76865 16.76865 0 01-2.73047 1.39991 8.08372 8.08372 0 01-3.12378.65039l.50147-.82276a12.71658 12.71658 0 001.77063 2.24817 11.849 11.849 0 002.23059 1.81507 8.48452 8.48452 0 002.66015 1.09033 9.06467 9.06467 0 002.953.16369 7.82646 7.82646 0 01-3.03431.3711 7.99242 7.99242 0 01-2.9978-.87366 11.05564 11.05564 0 01-2.5459-1.82507 12.90971 12.90971 0 01-1.98962-2.442l-.54627-.87622 1.04785.05322a7.41446 7.41446 0 002.712-.5249 20.66979 20.66979 0 002.6731-1.17139C250.87658 292.03983 252.58873 291.01859 254.27709 289.93521zM292.09032 291.55594a27.25044 27.25044 0 01-2.24963 2.01 25.42039 25.42039 0 01-2.47852 1.74353 16.75329 16.75329 0 01-2.73035 1.3999 8.08467 8.08467 0 01-3.1239.65052l.50147-.82288a12.72171 12.72171 0 001.77063 2.24829 11.84548 11.84548 0 002.23071 1.81494 8.48 8.48 0 002.66 1.09034 9.05806 9.05806 0 002.953.16369 7.82416 7.82416 0 01-3.0343.3711 7.99033 7.99033 0 01-2.99781-.87366 11.05484 11.05484 0 01-2.5459-1.82507 12.90716 12.90716 0 01-1.98962-2.442l-.54626-.87622 1.04785.05322a7.41673 7.41673 0 002.712-.52478 20.66979 20.66979 0 002.6731-1.17139C288.68993 293.66068 290.402 292.63944 292.09032 291.55594zM284.95385 221.28922c-.02442 2.5459-.14051 5.08716-.22327 7.631l-.40906 7.62183c-.313 5.07922-.74707 10.1499-1.21594 15.219-.56677 5.05884-1.10169 10.124-1.92883 15.15418-.87842 5.00073-1.6659 10.11035-3.69239 14.80615a33.46363 33.46363 0 001.02845-3.66358l.40747-1.85608.30932-1.87854c.22742-1.24707.43823-2.4967.60083-3.75659.1731-1.25732.37268-2.509.50843-3.77234.65051-5.03381 1.193-10.08569 1.67285-15.14294.55957-5.04993.97644-10.11536 1.46972-15.17481l.714-7.59338z"></path><path fill="#e6952a" d="M257.66564 152.97464c-1.03467 1.84717-2.12952 3.65979-3.19422 5.49268l-3.29492 5.439c-1.085 1.82325-2.31555 3.55445-3.54431 5.291-.62256.8634-1.25732 1.71936-1.93689 2.55334-.3446.41517-.68713.82959-1.07605 1.22681a6.88022 6.88022 0 01-.62451.58557 2.61192 2.61192 0 01-.38782.2782 1.55455 1.55455 0 01-.24353.12927 2.69137 2.69137 0 01-.34888.0951l.46326-.749 2.3595 5.99292c.76269 2.00708 1.557 4.00171 2.29272 6.01953l2.2367 6.04163c.70593 2.02966 1.44775 4.045 2.12256 6.08691-.90845-1.94909-1.74988-3.92492-2.6272-5.88635l-2.52283-5.92773c-.8529-1.97119-1.64734-3.96558-2.47339-5.94739l-2.40661-5.97388-.03321-.08215.49646-.66712c.01026-.01367.01844-.01867.032-.01635a.70544.70544 0 00.10449-.058 1.62141 1.62141 0 00.25732-.18115 5.86179 5.86179 0 00.53906-.4917c.35767-.35315.6969-.74975 1.03382-1.14343.67016-.79627 1.30993-1.631 1.938-2.47437 1.25268-1.691 2.46215-3.42175 3.65222-5.16723l3.54272-5.25989C255.23668 156.44742 256.42089 154.69376 257.66564 152.97464zM226.54967 169.05252c.40259 2.05188.68933 4.04371 1.25061 5.948a14.17887 14.17887 0 001.04 2.74756 8.81567 8.81567 0 001.79395 2.38233 5.21707 5.21707 0 01-2.5221-1.92676 8.99524 8.99524 0 01-1.36963-2.90137 12.84486 12.84486 0 01-.47729-3.12573A11.28637 11.28637 0 01226.54967 169.05252zM317.73705 155.69742a6.67634 6.67634 0 01-1.26428 2.323 7.83944 7.83944 0 01-2.02967 1.771 6.169 6.169 0 01-2.59387.8468 5.03188 5.03188 0 01-2.62842-.45349 12.41544 12.41544 0 002.47766-.392 9.01273 9.01273 0 002.18616-.94885A21.01409 21.01409 0 00317.73705 155.69742zM311.67589 143.9567a25.39629 25.39629 0 012.06958 2.93323q.4627.72582.96277 1.38757a2.80845 2.80845 0 001.3114 1.03577 1.96674 1.96674 0 01-1.896-.40662 5.6258 5.6258 0 01-1.30176-1.41943A7.07064 7.07064 0 01311.67589 143.9567z"></path><path fill="#e6952a" d="M242.973 173.523c-.8324-.86316-1.50256-1.67187-2.26831-2.35827a8.49648 8.49648 0 00-1.21521-.90711 10.39468 10.39468 0 00-1.49719-.68677 2.86011 2.86011 0 011.814-.11157 4.08 4.08 0 011.63306.88684 5.03123 5.03123 0 011.08508 1.451A3.94277 3.94277 0 01242.973 173.523zM296.10363 177.64969a14.15478 14.15478 0 01-2.042 4.49561 16.79634 16.79634 0 01-3.3396 3.70386 16.26853 16.26853 0 01-4.27124 2.57739 15.25411 15.25411 0 01-2.358.78467 22.36435 22.36435 0 01-2.43567.39685 35.10408 35.10408 0 004.42481-1.95716 22.32443 22.32443 0 003.9375-2.64807 23.2821 23.2821 0 003.35437-3.36633A26.82944 26.82944 0 00296.10363 177.64969zM301.90465 164.72647c-.574-3.1051-.8656-6.2135-1.127-9.325-.23474-3.11548-.4281-6.21838-.45777-9.3739a46.885 46.885 0 011.55433 9.28723A57.1388 57.1388 0 01301.90465 164.72647zM250.26451 164.55509a121.19485 121.19485 0 01-.00549 12.27331 119.75333 119.75333 0 01-1.10425 12.22364 119.75259 119.75259 0 01.0055-12.27332A121.19908 121.19908 0 01250.26451 164.55509z"></path><path fill="#f9977a" d="M258.79028,214.466l1.66551,3.42026,2.4764.11218a4.3298,4.3298,0,0,1,3.90636,2.94029l2.59091,7.67355s.66382,4.32987-2.145,3.056a27.34449,27.34449,0,0,1-4.74206-6.80784l-9.55391,8.61172.30521-6.73746-3.717-5.47657Z"></path><path fill="#5e7c24" d="M270.07738,214.309a47.445,47.445,0,0,1-8.198,12.10071,43.27966,43.27966,0,0,1-5.40857,4.97559,32.49941,32.49941,0,0,1-6.25866,3.80945,66.17485,66.17485,0,0,0,5.71276-4.47254,68.11321,68.11321,0,0,0,5.146-5.05823c1.63635-1.76525,3.1886-3.61059,4.689-5.50354C267.243,218.25443,268.7025,216.32145,270.07738,214.309Z"></path><path fill="#f9977a" d="M260.45579,217.88628l2.4764.11218a4.3298,4.3298,0,0,1,3.90636,2.94029l2.59091,7.67355s.66382,4.32987-2.145,3.056a27.34449,27.34449,0,0,1-4.74206-6.80784Z"></path><ellipse cx="268.834" cy="96.262" rx="1.276" ry="2.267"></ellipse><path d="M285.16393,122.41239c-6.04492,0-10.63965-1.87207-13.65918-5.56543-6.06641-7.4209-3.64258-19.43067-3.53711-19.9375l1.07812.22461c-.02539.11914-2.41992,12.00976,3.31446,19.01953,2.77344,3.3916,7.02636,5.126,12.64453,5.1582.42187-.89648,1.60449-4.09863-.18555-9.03613l1.03516-.375c2.31543,6.38769.0459,10.09961-.05176,10.25488l-.16113.25488-.30176.001C285.28112,122.41239,285.22252,122.41239,285.16393,122.41239Z"></path><path d="M310.91783 171.12918c-5.13085 0-10.35839-2.94433-13.76367-6.42187-5.57812-5.69727-6.17383-14.33008-6.49414-18.96777-.07812-1.13282-.10644-2.251-.13769-3.54493-.05371-2.18554-.1211-4.90625-.457-9.3291-.26856-3.54687-2.668-6.873-4.10059-8.86035-.9209-1.27734-1.30176-1.80566-1.15527-2.2998l1.05468.3125a.30914.30914 0 00.01172-.14844 10.04535 10.04535 0 00.98145 1.49219c1.501 2.08105 4.01269 5.56543 4.30566 9.41992.33789 4.45215.40528 7.1875.459 9.38574.03222 1.28125.05957 2.3877.13574 3.49512.31055 4.498.88867 12.86719 6.18359 18.27539 2.97168 3.03515 9.74707 7.62988 16.28223 5.60449 8.14355-2.52539 11.33887-14.22754 11.5-21.47754a19.75885 19.75885 0 00-.25293-3.708 10.025 10.025 0 01.06641-4.11816c.959-4.56836 3.60937-7.11133 6.416-9.80371a35.28693 35.28693 0 004.76563-5.25781c3.25-4.63086 4.75-10.71582 4.457-18.08594l1.09961-.043c.30273 7.61523-1.26368 13.92773-4.65625 18.76172a36.17487 36.17487 0 01-4.9043 5.41992c-2.7959 2.68262-5.21191 4.999-6.10156 9.23535a8.91563 8.91563 0 00-.05371 3.73145 20.85289 20.85289 0 01.26367 3.89258c-.168 7.56835-3.5752 19.80664-12.27344 22.5039A12.223 12.223 0 01310.91783 171.12918zM66.0067 398.3743H14.0194V216.32938H66.0067zm-50.02832-1.959H64.04772v-178.127H15.97838z"></path><path d="M116.035,398.3743H64.04772V216.32938H116.035Zm-50.02832-1.959H114.076v-178.127H66.0067Z"></path><path d="M165.72545,398.3743H113.73717V216.32938h51.98828Zm-50.02929-1.959h48.07031v-178.127H115.69616Z"></path><path d="M215.75377,398.3743h-51.9873V216.32938h51.9873Zm-50.02832-1.959h48.06934v-178.127H165.72545Z"></path><path d="M265.535,398.3743H213.54674V216.32938H265.535Zm-50.02929-1.959H263.576v-178.127H215.50573Z"></path><path d="M315.56334,398.3743H263.576V216.32938h51.9873Zm-50.02832-1.959h48.06934v-178.127H265.535Z"></path><path d="M365.2528,398.3743H313.26549V216.32938H365.2528Zm-50.02832-1.959h48.06933v-178.127H315.22448Z"></path><path d="M415.28112,398.3743H363.29381V216.32938h51.98731Zm-50.02832-1.959h48.06933v-178.127H365.2528Z"></path><path d="M465.07506,398.3743h-51.9873V216.32938h51.9873Zm-50.02832-1.959h48.06934v-178.127H415.04674Z"></path><path d="M515.10338,398.3743h-51.9873V216.32938h51.9873Zm-50.02832-1.959H513.1444v-178.127H465.07506Z"></path></g></g></svg>