<svg xmlns="http://www.w3.org/2000/svg" data-name="Layer 1" viewBox="0 0 700 550" id="indian-male-dancing"><path fill="#ffba55" d="M177.36028,285.855h-32.3804V254.40272a16.19019,16.19019,0,0,1,16.19018-16.19019h0a16.19019,16.19019,0,0,1,16.19018,16.19019Z"></path><circle cx="161.737" cy="255.176" r="12.117" fill="#fff"></circle><path fill="#080200" d="M165.19185,245.63734c-.8407,3.29215-1.91614,6.4993-3.05225,9.68447l-.179-.51045c3.0061,1.84144,5.97259,3.74778,8.79986,5.88185-3.18811-1.54389-6.23694-3.31549-9.24615-5.152l-.29962-.18286.12054-.32788C162.502,251.85646,163.72957,248.70439,165.19185,245.63734Z"></path><path fill="#ffe3cb" d="M268.1617,173.062c-51.30622,40.04913-81.90992,208.63738,14.29161,209.83446,50.63853.63,140.70661,33.91026,200.08788,64.80305,57.74018,30.03873,44.90761-133.99494-14.29164-209.834S319.46791,133.01286,268.1617,173.062Z"></path><path fill="#ffe3cb" d="M507.99812,464.37148c-4.35644,0-9.13964-1.3291-14.26855-3.99805l.44141-.84765c11.89941,6.18945,21.46093,5.08789,28.416-3.2754,12.70606-15.27539,15.39063-53.62109,7.00488-100.07519-8.80468-48.77832-28.13085-95.92285-51.69628-126.11328-31.34961-40.16113-71.39551-69.65723-112.7627-83.05469-41.2998-13.37793-78.96484-9.09766-106.05664,12.04981l-.58789-.75391c27.34961-21.34961,65.3291-25.68457,106.93945-12.20606,41.54688,13.45508,81.75586,43.06641,113.22168,83.377,23.65723,30.30664,43.05274,77.60742,51.88379,126.53125,8.43457,46.72461,5.67188,85.37011-7.21094,100.85644C519.16512,461.85976,513.98543,464.37148,507.99812,464.37148Z"></path><path fill="#935b50" d="M589.14027,465.36719H110.86a1,1,0,1,1,0-2H589.14027a1,1,0,0,1,0,2Z"></path><rect width="207.36" height="165.6" x="125.98" y="290.847" fill="#d6694b"></rect><rect width="236.88" height="5.04" x="110.86" y="285.807" fill="#e19974"></rect><rect width="197.64" height="38.88" x="130.84" y="295.887" fill="#935b50"></rect><rect width="197.64" height="38.88" x="130.84" y="334.767" fill="#935b50"></rect><rect width="197.64" height="38.88" x="130.84" y="373.647" fill="#935b50"></rect><rect width="197.64" height="38.88" x="130.84" y="412.527" fill="#935b50"></rect><rect width="16.56" height="5.04" x="221.38" y="429.447" fill="#d6694b"></rect><rect width="16.56" height="5.04" x="221.38" y="390.567" fill="#d6694b"></rect><rect width="16.56" height="5.04" x="221.38" y="351.687" fill="#d6694b"></rect><rect width="16.56" height="5.04" x="221.38" y="312.807" fill="#d6694b"></rect><rect width="18" height="7.92" x="135.98" y="456.447" fill="#e19974"></rect><rect width="18" height="7.92" x="305.34" y="456.447" fill="#e19974"></rect><rect width="197.64" height="1" x="130.84" y="334.268" fill="#e19974"></rect><rect width="197.64" height="1" x="130.84" y="373.147" fill="#e19974"></rect><rect width="197.64" height="1" x="130.84" y="412.027" fill="#e19974"></rect><path fill="#8b9d36" d="M487.846,354.944c2.87406,2.23322,7.93763,7.53678,8.07424,11.51444,0,0,9.306-10.1187,6.66022-18.77218a16.16167,16.16167,0,0,0-7.39006-7.44364s3.64919-2.04713,7.481,2.97757c0,0-1.36836-13.58486-20.29919-8.65348,0,0-7.39006-15.07355-22.03283-.83748,0,0,9.85316-1.256,7.93725,1.81448,0,0-5.93039,1.58183-9.83052,4.96261a9.84979,9.84979,0,0,0-3.30728,6.87762c-.22794,3.67535-.57764,10.94842.137,11.04932.95777.13952,7.25308-5.58278,11.49549-5.164s-9.71656,12.97984-9.71656,12.97984,2.87406,10.88652,4.1058,10.747c1.23136-.13952,5.70208-3.2566,3.87711,0l-3.14728,2.51226,4.10543,5.67591,10.30941-4.5594s-4.56167-12.46815-.36492-9.072c0,0,3.19294,4.23379,3.2386,7.39726,0,0,13.799-6.00152,12.43062-10.11889a92.48417,92.48417,0,0,0-5.21541-11.12674,4.70515,4.70515,0,0,1-.5702-1.96953C485.77827,354.688,486.05186,353.54823,487.846,354.944Zm-1.6954-14.4532c1.29262-.89181,4.47071-.318,5.66421,2.58968,1.2774,3.10933,1.224,6.5753-.0683,7.46693-1.29262.89181-4.96482-.27128-5.88473-3.27989C484.84314,343.91794,484.85836,341.38239,486.15061,340.49077Z"></path><path fill="#5e7c24" d="M482.37215,334.56668a51.08958,51.08958,0,0,0-4.07273,5.2952,31.027,31.027,0,0,0-2.88626,5.976c-.75207,2.08478-1.35754,4.223-1.901,6.3855-.5506,2.16409-1.07651,4.3258-1.51492,6.509-.46457,2.177-.87052,4.36841-1.20294,6.56854-.34232,2.20032-.53925,4.4141-.80964,6.63907a37.11444,37.11444,0,0,1-3.93432,12.79984,44.63148,44.63148,0,0,0,2.1853-6.31436,35.59873,35.59873,0,0,0,1.16174-6.54807,103.74666,103.74666,0,0,1,1.84913-13.3017c.464-2.19287,1.01718-4.36792,1.59057-6.52755a53.49555,53.49555,0,0,1,2.02719-6.42084,31.11138,31.11138,0,0,1,3.12409-5.97333A44.27845,44.27845,0,0,1,482.37215,334.56668Z"></path><path fill="#5e7c24" d="M476.99828 341.65906a20.39812 20.39812 0 00-2.24238.56442c-.73953.2048-1.46725.45007-2.18734.71112-1.43775.53015-2.85379 1.11173-4.24356 1.75479-1.3974.62811-2.75394 1.34323-4.118 2.05255-1.35986.71946-2.68566 1.50226-4.05014 2.247.59186-.50165 1.20972-.97079 1.82242-1.45035.64145-.43548 1.2731-.89022 1.92978-1.30661a34.36871 34.36871 0 014.09567-2.23989 29.528 29.528 0 014.38614-1.61789A17.33251 17.33251 0 01476.99828 341.65906zM470.76118 363.24469c-1.06018.82208-2.16388 1.49487-3.24173 2.19708q-.81024.51984-1.58252 1.07392a4.34477 4.34477 0 00-1.30969 1.36178 2.85887 2.85887 0 01.90973-1.80789 9.22253 9.22253 0 011.56568-1.27209A11.291 11.291 0 01470.76118 363.24469zM472.87489 353.303a36.45551 36.45551 0 013.48728 3.76135 38.51907 38.51907 0 013.00134 4.17423 26.84856 26.84856 0 012.34253 4.59393 13.985 13.985 0 011.07663 5.02249 19.79323 19.79323 0 00-1.61954-4.79 41.83523 41.83523 0 00-2.451-4.42081c-.87918-1.44259-1.846-2.83331-2.81784-4.22381C474.91353 356.03561 473.90089 354.67032 472.87489 353.303z"></path><path fill="#8b9d36" d="M460.24805,396.90811l3.8318,3.53578s3.74057-3.95449,4.15112-1.20961c0,0-.593,2.74489-1.32288,2.9775,0,0,9.16894,7.374,11.01642,1.30266a58.565,58.565,0,0,1,2.80542-7.95551s2.05275,1.11656.2737,9.90949c0,0,7.096-2.08524,9.731-5.91074a2.73653,2.73653,0,0,0,.46351-1.52637c.0254-2.187.31365-8.34245,2.80623-6.03142,0,0,1.43692.69785.34212,5.37345,0,0,5.7749-6.51046,3.03183-10.51192a4.001,4.001,0,0,0-4.906-1.29451c-1.60371.69616-4.57933,1.97824-10.10016,4.33942A110.18222,110.18222,0,0,1,460.24805,396.90811Z"></path><path fill="#5e7c24" d="M472.87489 402.30484a21.88234 21.88234 0 011.88623-5.79874 14.09692 14.09692 0 011.62018-2.62515 6.27294 6.27294 0 011.11292-1.10425 2.33355 2.33355 0 011.4577-.52093 2.47872 2.47872 0 00-1.20822.80276 8.36927 8.36927 0 00-.87644 1.17292 26.643 26.643 0 00-1.41674 2.61163C474.56963 398.63406 473.785 400.47922 472.87489 402.30484zM485.3372 399.42038a18.20571 18.20571 0 01.48584-5.36145 13.75137 13.75137 0 01.89582-2.57211 4.0365 4.0365 0 011.81152-2.02246 5.495 5.495 0 00-1.25839 2.25274c-.26749.82749-.49726 1.66968-.70322 2.52268C486.15337 395.94806 485.80867 397.67886 485.3372 399.42038zM549.1093 336.03587s-9.21457 1.32223-1.00357 7.83551c0 0 2.09837 1.76789 8.94087 3.81493C557.0466 347.68631 561.33456 329.03778 549.1093 336.03587z"></path><path fill="#50661a" d="M557.0466,347.68631c-.17061-.61075-.28239-1.2225-.436-1.82364-.18584-.59256-.31634-1.19726-.53609-1.77145a17.61981,17.61981,0,0,0-1.545-3.3031,13.25628,13.25628,0,0,0-2.32048-2.776,10.98781,10.98781,0,0,0-3.09976-1.97629,7.81032,7.81032,0,0,1,3.4709,1.51687,10.40093,10.40093,0,0,1,2.601,2.83017,12.61591,12.61591,0,0,1,1.45718,3.54166c.15747.61652.22833,1.25107.34042,1.87112C557.00972,346.42966,557.04816,347.05917,557.0466,347.68631Z"></path><path fill="#5e7c24" d="M537.415,298.35865s10.21579-6.50857,13.2756,7.94327c0,0-5.30164-4.56341-5.37186-1.92353a20.23466,20.23466,0,0,1,3.84568,6.852,7.50277,7.50277,0,0,1-.739,5.53967c-1.29858,2.36333-3.92221,7.0054-4.38334,6.79523-.61739-.28139-2.08782-6.24763-4.7443-7.61743s.65369,11.78068.65369,11.78068-5.93032,5.64676-6.59982,5.08715-2.08356-4.20784-2.27939-1.48844l.87167,2.76593-4.62419,1.94266-4.28285-6.78686s7.53855-5.97934,3.74887-5.4853c0,0-3.5261,1.39876-4.78542,3.34295,0,0-5.772-9.02151-3.36358-11.049a68.35334,68.35334,0,0,1,7.382-4.88736,3.4594,3.4594,0,0,0,1.256-1.22567c.33966-.5852.40584-1.20887-1.01586-1.0528-2.559.28092-7.60124,1.62485-9.23137,4.03884,0,0-1.52708-9.8488,3.39918-14.19844a11.37577,11.37577,0,0,1,7.24327-1.7774s-1.34731-2.671-5.55688-1.0271C522.11317,295.92774,528.21,288.02958,537.415,298.35865Z"></path><path fill="#50661a" d="M541.9931 314.53809c-.838-2.031-1.60776-4.052-2.56775-5.96918a15.98759 15.98759 0 00-1.65155-2.71457 4.22192 4.22192 0 00-2.54539-1.7522 3.72067 3.72067 0 012.9947 1.35584 11.23715 11.23715 0 011.88826 2.76715A19.63709 19.63709 0 01541.9931 314.53809zM521.00944 319.40005a15.35773 15.35773 0 011.95279-3.15838 14.66819 14.66819 0 012.64994-2.648 9.74318 9.74318 0 013.36322-1.7265 6.47834 6.47834 0 013.72377.12063 8.47855 8.47855 0 00-3.54505.45127 11.78538 11.78538 0 00-3.07565 1.764 21.34575 21.34575 0 00-2.66484 2.42905C522.58664 317.5174 521.77379 318.42993 521.00944 319.40005z"></path><path fill="#50661a" d="M530.58894,299.6741a4.72934,4.72934,0,0,1,3.15419-1.85321,7.41141,7.41141,0,0,1,1.88852-.05041c.31412.03.62335.09414.93544.14377l.91472.237.22638.05863-.09344.236c-1.19344,3.01435-2.20736,6.111-3.20868,9.2005-.97985,3.0994-1.86255,6.228-2.72676,9.36191q-1.24636,4.71437-2.33326,9.47208c-.72895,3.17114-1.3701,6.36166-2.02627,9.55551.40094-3.23416.88269-6.46234,1.51419-9.66278.57434-3.21283,1.354-6.38361,2.14514-9.54932.79808-3.16516,1.74582-6.291,2.76627-9.39142,1.01408-3.10412,2.15036-6.16366,3.4698-9.16073l.13281.29443-.87186-.2598c-.2966-.05609-.59152-.13021-.88983-.17926a7.111,7.111,0,0,0-1.809-.05865A4.77552,4.77552,0,0,0,530.58894,299.6741Z"></path><path fill="#50661a" d="M533.74727,327.61212a16.92092,16.92092,0,0,0-1.22377-3.22616,2.90452,2.90452,0,0,0-1.04694-1.12809,3.55649,3.55649,0,0,0-1.6346-.30438,2.4078,2.4078,0,0,1,1.865-.24869,2.784,2.784,0,0,1,1.47958,1.295A5.4175,5.4175,0,0,1,533.74727,327.61212Z"></path><path fill="#c4ce6e" d="M499.66084,402.30483s-1.81611-6.269-6.42624-2.72489a9.2516,9.2516,0,0,0-3.19485,4.9015c-.83142,3.00036-1.5501,8.43753.49776,16.15363,0,0,4.71951-6.52932,8.211-8.83946C502.68612,409.1903,505.22608,403.2353,499.66084,402.30483Z"></path><path fill="#8b9d36" d="M499.66084 402.30484a7.90165 7.90165 0 00-1.79053 1.84186 18.02318 18.02318 0 00-1.412 2.14685 47.5372 47.5372 0 00-2.27231 4.62317c-.67648 1.58389-1.289 3.19641-1.89325 4.81726l-1.75519 4.90109c.14987-.858.34824-1.705.52152-2.56018.20031-.84744.44961-1.6821.67266-2.52551a44.7368 44.7368 0 011.74927-4.93561 29.49966 29.49966 0 012.47916-4.63248A10.50823 10.50823 0 01499.66084 402.30484zM506.31467 315.22047s.1538-6.535-5.29911-4.60127a9.09235 9.09235 0 00-4.51327 3.668c-1.69249 2.59646-4.00945 7.54785-4.3772 15.53281 0 0 6.4535-4.74132 10.471-5.84983C507.1268 322.72 511.333 317.84461 506.31467 315.22047z"></path><path fill="#5e7c24" d="M506.31467,315.22046a7.76848,7.76848,0,0,0-2.25859,1.19336,17.712,17.712,0,0,0-1.99021,1.6029,46.69056,46.69056,0,0,0-3.55218,3.69178c-1.11933,1.29675-2.18644,2.64013-3.24781,3.99438l-3.1408,4.11713c.4-.76865.84274-1.51206,1.26416-2.27091.4447-.74337.93261-1.45953,1.39791-2.19211a44.16292,44.16292,0,0,1,3.14686-4.15127,29.06554,29.06554,0,0,1,3.753-3.63852A10.34067,10.34067,0,0,1,506.31467,315.22046Z"></path><path fill="#8b9d36" d="M547.47027,402.30483s1.81611-6.269,6.42624-2.72489a9.25155,9.25155,0,0,1,3.19485,4.9015c.83142,3.00036,1.5501,8.43753-.49776,16.15363,0,0-4.71951-6.52932-8.211-8.83946C544.445,409.1903,541.905,403.2353,547.47027,402.30483Z"></path><path fill="#5e7c24" d="M547.47028,402.30484a10.50826,10.50826,0,0,1,3.70069,3.67645,29.499,29.499,0,0,1,2.47919,4.63248,44.7408,44.7408,0,0,1,1.74925,4.93561c.223.84341.47234,1.67807.67267,2.52551.17328.85519.37163,1.70215.52152,2.56018l-1.75519-4.90109c-.60426-1.62085-1.21677-3.23337-1.89325-4.81726a47.54162,47.54162,0,0,0-2.27229-4.62317,18.02586,18.02586,0,0,0-1.41207-2.14685A7.90141,7.90141,0,0,0,547.47028,402.30484Z"></path><path fill="#50661a" d="M520.59,431.0293l-.7666-.03907c3.78662-72.94628,14.37207-92.46679,22.58545-95.99707a6.76192,6.76192,0,0,1,6.95019.751l-.498.584a6.00377,6.00377,0,0,0-6.16651-.62208C536.13979,338.543,524.55238,354.69824,520.59,431.0293Z"></path><path fill="#50661a" d="M522.381 431.1377c-6.79639-19.26954 4.09228-92.06934 4.55957-95.15918l.75879.11523c-.11377.75488-11.32666 75.69922-4.59473 94.78809zM518.01674 431.10254c-.062-.249-6.30567-24.96973-14.29444-28.5625a4.21012 4.21012 0 00-3.88378.10449l-.35547-.67969a4.98888 4.98888 0 014.5542-.125c8.32714 3.74512 14.46728 28.04493 14.72461 29.07715z"></path><path fill="#50661a" d="M519.99232 420.876l-.7666-.04493c.05908-1.01367 5.769-101.39453-7.48584-107.30468-1.47754-.65528-3.20947.002-5.15234 1.96484l-.5459-.541c2.18994-2.21094 4.21289-2.92579 6.01074-2.125C525.78822 318.9502 520.23549 416.7168 519.99232 420.876zM529.11439 431.10254l-.74511-.18555c.25732-1.03222 6.39746-25.332 14.72461-29.07715a4.98884 4.98884 0 014.5542.125l-.35547.67969a4.20416 4.20416 0 00-3.88379-.10449C535.41859 406.13379 529.17641 430.85352 529.11439 431.10254z"></path><path fill="#50661a" d="M521.17934 430.28809c-5.14893-28.22461-12.78077-38.4336-18.27686-42.02832-3.52539-2.30664-6.05371-1.74707-6.07861-1.73926l-.18116-.7461c.1128-.02734 2.82715-.65332 6.625 1.80664 5.63965 3.6543 13.45606 14.00586 18.66651 42.56836zM523.91859 430.31152c-17.07666-68.57031-21.93066-73.4375-22.1289-73.61132l.44922-.6211c.19531.12988 4.97851 3.99219 22.4248 74.04688zM527.38832 431.0293l-.7666-.03907c1.603-30.77636 18.89551-58.47656 19.06982-58.75293l.64942.41016C546.16762 372.92188 528.98061 400.459 527.38832 431.0293z"></path><path fill="#d6694b" d="M499.75208,422.88193v6.37132a2.20812,2.20812,0,0,0,2.18607,2.22953h43.799a2.20812,2.20812,0,0,0,2.18608-2.22953v-5.87156a2.20872,2.20872,0,0,0-2.16162-2.2294l-43.799-.49975A2.20753,2.20753,0,0,0,499.75208,422.88193Z"></path><polygon fill="#e19974" points="501.843 431.483 503.4 464.367 543.245 464.367 545.833 431.483 501.843 431.483"></polygon><path fill="#5e7c24" d="M538.84549,370.568c.06088-3.00066,6.26487,2.44259,6.26487,2.44259-3.69522-16.58571-15.50217-9.66929-15.50217-9.66929-10.79609-12.18893-17.80564-3.49683-17.80564-3.49683,4.87313-1.6672,6.46236,1.43436,6.46236,1.43436a12.97544,12.97544,0,0,0-8.40129,1.67478c-5.67906,4.71443-3.81624,15.98865-3.81624,15.98865,1.87026-2.6673,7.72417-3.95457,10.68918-4.156,1.86283-.12419,1.53578.79091,1.03425,1.48869a3.76709,3.76709,0,0,1-1.26961,1.08547,74.49308,74.49308,0,0,0-8.55312,5.21836c-2.78274,2.18666,4.0141,12.72429,4.0141,12.72429,1.44445-2.14785,5.52723-3.57464,5.52723-3.57464,4.402-.37993-4.30329,6.06361-4.30329,6.06361l5.04056,7.92447,5.36017-1.99281-1.04166-3.18675c.20529-3.086,1.878,1.132,2.661,1.79877.78292.67469,7.62542-5.46635,7.62542-5.46635s-3.96844-15.12012-.87425-13.42982c3.102,1.68254,4.86571,8.53706,5.58812,8.886.53976.2637,3.543-4.89276,5.03312-7.52125a8.22158,8.22158,0,0,0,.80594-6.25746A24.44378,24.44378,0,0,0,538.84549,370.568Zm-17.31153-.124c-1.9768,1.636-5.01791.72883-5.50422-.4884-.49448-1.20966,1.01865-3.6212,3.28427-5.15646,2.1212-1.44231,4.56166-.36441,5.04834.853C524.85646,366.86163,523.73126,368.61421,521.534,370.444Z"></path><path fill="#50661a" d="M529.60643,363.34128a36.99321,36.99321,0,0,1,.7697,5.488,25.74179,25.74179,0,0,1-.49341,5.54612,42.79775,42.79775,0,0,1-1.46422,5.36279c-.57025,1.75253-1.16072,3.50778-1.82106,5.23584a83.88716,83.88716,0,0,1-4.70622,10.03183,29.15476,29.15476,0,0,0-2.14937,5.03726,37.5076,37.5076,0,0,0-1.35251,5.33984,30.21619,30.21619,0,0,1,2.97528-10.64453c.806-1.66485,1.664-3.28177,2.411-4.9577.75485-1.67075,1.45341-3.36938,2.10658-5.0834.67636-1.70551,1.28278-3.43573,1.87444-5.17911.59611-1.73865,1.13167-3.48807,1.55075-5.26373a25.65631,25.65631,0,0,0,.69459-5.42A44.2468,44.2468,0,0,0,529.60643,363.34128Z"></path><path fill="#50661a" d="M530.12666 370.7099a14.01315 14.01315 0 012.89049 2.60419 23.85311 23.85311 0 012.30516 3.1456 27.50664 27.50664 0 011.79825 3.45263c.25894.59449.48408 1.20322.72354 1.8035.19571.6192.404 1.23142.57135 1.85712l-1.825-3.40018c-.63042-1.11368-1.24234-2.23233-1.92128-3.31027-.664-1.08658-1.373-2.143-2.11157-3.1817-.37194-.51731-.75678-1.02726-1.16736-1.51618A18.27489 18.27489 0 00530.12666 370.7099zM524.76179 388.43228a8.48521 8.48521 0 011.88094 2.73386 7.30292 7.30292 0 01.49506 1.61267 2.34844 2.34844 0 01-.2345 1.68646 3.9326 3.9326 0 00-.34457-1.53268c-.19848-.48667-.40276-.9726-.619-1.45887A25.17012 25.17012 0 01524.76179 388.43228zM527.75384 380.62268c-1.3094.48779-2.61027.9661-3.89828 1.47034-1.28392.5137-2.567 1.02011-3.81285 1.60254a35.42984 35.42984 0 00-3.65877 1.8796 16.55626 16.55626 0 00-3.2787 2.49424 10.897 10.897 0 012.954-2.98755 20.73647 20.73647 0 013.66614-2.08493 29.26945 29.26945 0 013.93921-1.45993A27.01836 27.01836 0 01527.75384 380.62268z"></path><path fill="#c4ce6e" d="M566.3759,351.8193s8.8999-13.29473,20.03068,2.40508c0,0-8.71734-2.63-7.43911.57561a25.90444,25.90444,0,0,1,8.15139,6.158,9.79991,9.79991,0,0,1,1.97237,7.04442c-.33853,3.53317-1.09106,10.51224-1.75289,10.50759-.88611-.00623-5.73-6.37644-9.62479-6.59409s6.86473,13.7861,6.86473,13.7861-4.202,9.95989-5.29429,9.64778-4.67209-3.93094-3.50353-.56247l2.47358,2.85121-4.54645,4.81371-8.64237-5.84511s5.96031-11.22238,1.66762-8.59505c0,0-3.50945,3.57153-4.01721,6.58065,0,0-11.58268-7.72731-9.739-11.45325a91.54951,91.54951,0,0,1,6.32407-9.81131,4.69715,4.69715,0,0,0,.88253-2.12854c.11552-.89794-.11247-1.71364-1.7583-.75124-2.92592,1.71094-8.283,6.03057-8.99327,9.80254,0,0-6.91574-10.99894-3.24909-18.86323a15.19364,15.19364,0,0,1,7.7747-6.02146s-2.99537-2.48194-7.19847,1.75067C546.75878,357.11692,549.99865,344.36591,566.3759,351.8193Z"></path><path fill="#8b9d36" d="M566.3759,351.81931a96.275,96.275,0,0,1,3.84941,12.28384c1.04407,4.16788,1.85208,8.39426,2.48488,12.64511a126.73439,126.73439,0,0,1,1.19339,12.83188,110.30733,110.30733,0,0,1-.196,12.8721c-.03377-4.29059-.05538-8.57211-.39374-12.83994-.1276-2.1354-.33951-4.26367-.53719-6.39285-.25725-2.12243-.47871-4.25058-.82541-6.36078-.56634-4.23959-1.38148-8.44217-2.29821-12.62085C568.73091,360.05966,567.66733,355.90909,566.3759,351.81931Z"></path><path fill="#8b9d36" d="M568.59729 358.89609a20.45507 20.45507 0 00-1.92334 2.85415 31.05807 31.05807 0 00-1.50986 3.06095c-.44844 1.04669-.83874 2.11886-1.20022 3.20639-.35778 1.08923-.67772 2.19436-1.0181 3.31259.01978-.58243.07814-1.16266.13119-1.746.09681-.57434.16666-1.15848.30936-1.726a19.801 19.801 0 011.0723-3.34884 17.41562 17.41562 0 011.71232-3.08032A10.50459 10.50459 0 01568.59729 358.89609zM572.3004 376.50488a8.79478 8.79478 0 015.66507 4.14926 7.20251 7.20251 0 01.8549 2.23087c-.45063-.65988-.868-1.30264-1.35083-1.89465a15.09233 15.09233 0 00-1.52528-1.68036 17.80911 17.80911 0 00-1.72691-1.48319C573.60442 377.36993 572.97705 376.9198 572.3004 376.50488z"></path><path fill="#f9977a" d="M446.02782,213.71087s.01751-14.086,3.5358-16.56184,3.51829,1.95461,3.51829,1.95461,3.25767-2.08491,3.25767,1.8243c0,0,2.86676-.08763,2.47584,4.126,0,0,2.99706-1.78049,1.9546,3.30149a82.43858,82.43858,0,0,1-3.55413,11.403Z"></path><path fill="#dd765e" d="M448.91209,203.01285c1.5575.59076,3.0705,1.2709,4.58493,1.94826,1.50559.69505,3.00022,1.41218,4.47742,2.16433l.14862.07569.034.1425a2.57586,2.57586,0,0,1-.391,2.217,2.76947,2.76947,0,0,1-1.99866.89,7.5475,7.5475,0,0,1-2.05316-.19769,14.8151,14.8151,0,0,1-1.93546-.59445c.66968.089,1.32019.24057,1.98465.278a8.32186,8.32186,0,0,0,1.94773.00268,2.42166,2.42166,0,0,0,1.5372-.77635,2.02977,2.02977,0,0,0,.22735-1.61967l.18244.21791c-1.49088-.72464-2.96436-1.48432-4.42682-2.26605C451.77772,204.69554,450.32265,203.8989,448.91209,203.01285Z"></path><path fill="#dd765e" d="M453.08189 199.10364a9.54466 9.54466 0 01-.27182 2.76343 9.43529 9.43529 0 01-.97647 2.59941 9.4358 9.4358 0 01.27182-2.76343A9.547 9.547 0 01453.08189 199.10364zM456.33958 200.92793a8.96207 8.96207 0 01-.22982 2.6794 8.8595 8.8595 0 01-.93583 2.52116 8.85908 8.85908 0 01.22983-2.67939A8.9626 8.9626 0 01456.33958 200.92793zM457.81639 207.44328a2.33757 2.33757 0 01.16577-1.33421.698.698 0 11.66751.2791A2.33744 2.33744 0 01457.81639 207.44328z"></path><path fill="#f9977a" d="M367.55361,114.00387s9.6567-10.255,8.79785-14.47046-3.90015-.99382-3.90015-.99382-.93768-3.75234-3.62119-.90968c0,0-2.02446-2.03162-4.63268,1.30077,0,0-.95715-3.35207-3.68766,1.059a82.43923,82.43923,0,0,0-5.24322,10.73172Z"></path><path fill="#dd765e" d="M372.8,104.24466c-1.63394-.324-3.23889-.74353-4.84472-1.16007-1.6001-.43545-3.19306-.8945-4.7746-1.391l.28222-.03324a2.03,2.03,0,0,0-.9465,1.33386,2.42173,2.42173,0,0,0,.58487,1.61975,8.32366,8.32366,0,0,0,1.41818,1.33509c.50885.42892,1.08594.76526,1.634,1.16022a14.81532,14.81532,0,0,1-1.81546-.89634,7.54726,7.54726,0,0,1-1.6287-1.26564,2.76931,2.76931,0,0,1-.84237-2.0192,2.57582,2.57582,0,0,1,1.23751-1.88052l.12256-.08027.16.047c1.59051.46707,3.16961.97159,4.74157,1.49971C369.69478,103.06105,371.26189,103.60509,372.8,104.24466Z"></path><path fill="#dd765e" d="M372.45131 98.53959a9.54631 9.54631 0 01-1.07431 2.56053 9.43631 9.43631 0 01-1.69931 2.19608 9.43626 9.43626 0 011.07431-2.56053A9.54712 9.54712 0 01372.45131 98.53959zM368.83012 97.62991a8.96252 8.96252 0 01-1.05017 2.47572 8.85813 8.85813 0 01-1.67215 2.10615 8.85842 8.85842 0 011.05017-2.47571A8.96292 8.96292 0 01368.83012 97.62991zM363.28371 101.35392a2.33785 2.33785 0 01.11837-1.33925 2.3116 2.3116 0 01.79535-1.084 2.31111 2.31111 0 01-.11837 1.33925A2.33737 2.33737 0 01363.28371 101.35392z"></path><path fill="#f9977a" d="M400.2662,132.64236a21.09508,21.09508,0,0,0-9.88756.18926c-1.518.42727-7.06994,1.98988-10.055,6.94963-1.13375,1.8836-1.51658,4.21473-2.2828,8.87694-.47856,2.91209-1.7469,4.93625-1.98278,8.51114a30.26716,30.26716,0,0,0,.8439,8.624c1.02725,4.40882.01765,6.80774.61948,7.6591,2.42538,3.43119,10.61516,1.40983,10.45326,5.66607-.1,2.62813-6.936,8.43907-6.09315,11.40269,4.579,16.09971,15.74908,24.523,19.67119,22.78588.53466-.23681,5.38675-20.51917,5.18333-25.1927-.10873-2.49668-.30488-23.92988-.00312-25.417,1.09113-5.37487,3.868-5.85463,6.45831-12.2673a10.21993,10.21993,0,0,0-1.03194-9.94369A20.87554,20.87554,0,0,0,400.2662,132.64236Z"></path><path fill="#1e1d22" d="M384.30943 151.23a.69625.69625 0 00.41795-1.25387 7.40244 7.40244 0 00-8.24252-.51981.69671.69671 0 00.76345 1.16565 5.90708 5.90708 0 016.64526.46941A.692.692 0 00384.30943 151.23zM394.59971 151.91472a.69625.69625 0 00.418-1.25387 7.40244 7.40244 0 00-8.24252-.51981.69686.69686 0 00.7624 1.1667 5.89179 5.89179 0 016.64631.46836A.692.692 0 00394.59971 151.91472z"></path><path fill="#dd765e" d="M385.19075 151.57526a6.228 6.228 0 01-.82173 3.277 13.86975 13.86975 0 01-1.92254 2.81542l-.6.62562a1.35244 1.35244 0 00-.41808.9039 2.21462 2.21462 0 00.82934 1.65764 3.99419 3.99419 0 003.399.66211 4.28712 4.28712 0 01-3.15474-.92281 1.98713 1.98713 0 01-.65161-1.37357c-.005-.46784.54423-.78734.93593-1.23706a12.64575 12.64575 0 001.89786-2.96664A5.465 5.465 0 00385.19075 151.57526zM403.204 153.23789a4.19662 4.19662 0 011.02021.59122 5.10219 5.10219 0 01.8317.79443 16.59575 16.59575 0 011.39616 1.9186c-.03111-.20451-.091-.4001-.137-.60383l-.22959-.57547a5.102 5.102 0 00-.68272-1.04725A2.89725 2.89725 0 00403.204 153.23789z"></path><path fill="#dd765e" d="M403.7191,159.00786a8.46231,8.46231,0,0,1,.197-2.54133,5.69948,5.69948,0,0,1,.387-1.19453c.15345-.397.37411-.7624.57679-1.163a3.71275,3.71275,0,0,0-.89367.99815,4.463,4.463,0,0,0-.52179,1.25413A4.03036,4.03036,0,0,0,403.7191,159.00786Z"></path><path fill="#1e1d22" d="M400.30572,160.7827a10.74868,10.74868,0,0,1,1.01976-4.51271c.919-1.9515,2.06468-4.61757,4.0367-4.669,1.453-.03792,2.05851-.38062,2.48586,1.04768.706,2.36279-.956,4.80706-2.11306,6.50958-1.65664,2.436-2.957,2.90544-3.09659,4.65773-.10661,1.33673,3.53237,4.30573,4.291,3.83134,1.5465-.967.95069-4.21271,5.48206-11.54142,2.8617-4.62774,4.09067-5.44987,4.58412-8.42472.17513-1.05626.90026-5.42921-1.57874-8.16531-1.14988-1.2691-1.87267-.95378-7.06527-3.57141a44.16553,44.16553,0,0,1-4.21183-2.29184c-4.10137-2.60766-3.92717-3.79718-6.37051-4.67064-2.20728-.789-2.40449.16272-6.68353-.37719-4.12556-.52042-4.43164-1.467-6.38266-1.04819-3.38742.727-5.22006,4.17154-5.71223,5.09712a11.46673,11.46673,0,0,0-1.63815,5.26175,10.34454,10.34454,0,0,0,1.67423,5.33788c.50343.586,2.9041-2.43924,4.17673-3.55278,1.2478-1.09088,2.54526-.524,4.34912-.291,1.75883.2272,1.5891,1.32075,4.13721,2.46011.90789.40591,4.74866-1.01708,5.81528,1.12708,1.13647,2.28457,2.11606,2.61733,1.37783,4.62378-.46125,1.25352-.3328,2.83978-.076,6.01248.18407,2.27684-2.16355,10.03082-2.16355,10.03082C395.87662,164.9994,400.28282,164.26382,400.30572,160.7827Z"></path><path fill="#dd765e" d="M387.621,166.50846a11.51859,11.51859,0,0,1-4.24662.95274,5.08373,5.08373,0,0,1-2.00313-.41795,12.44684,12.44684,0,0,1-1.9656-1.08086,4.40026,4.40026,0,0,0,1.5521,1.84247,4.63356,4.63356,0,0,0,1.13034.56812,5.61539,5.61539,0,0,0,1.26043.19743,5.28428,5.28428,0,0,0,2.41348-.55447A5.04028,5.04028,0,0,0,387.621,166.50846Z"></path><path fill="#1e1d22" d="M383.8601,161.54331c-2.33837-.23681-2.69947-1.43708-7.09648,3.63108,0,0,4.63965-1.11764,13.51117,1.66C390.27479,166.83442,387.20817,161.88237,383.8601,161.54331Z"></path><path fill="#dd765e" d="M387.34163,180.824c4.23469-.03676,9.94959-6.088,9.94959-6.088a23.89674,23.89674,0,0,1-10.83082,2.029h0a2.35192,2.35192,0,0,1,1.51431,2.35347,4.02944,4.02944,0,0,1-.63308,1.70554Z"></path><path fill="#1e1d22" d="M387.621 154.109a12.85937 12.85937 0 002.77969.33081 8.79667 8.79667 0 001.33646-.0988c.46042-.05484.9183-.16742 1.45282-.232a3.50532 3.50532 0 01-2.78592 1.3302 3.705 3.705 0 01-1.56534-.33672A2.80652 2.80652 0 01387.621 154.109zM377.35268 153.76a18.68254 18.68254 0 002.33908.37273 4.23131 4.23131 0 001.05935-.06131A11.158 11.158 0 00381.94 153.76a2.04167 2.04167 0 01-.9043 1.038 2.482 2.482 0 01-1.394.33284 2.99981 2.99981 0 01-1.33353-.40971A2.45313 2.45313 0 01377.35268 153.76z"></path><path fill="#f73c4f" d="M384.497,184.63948c-1.147,7.86424,4.86389,14.36475,11.11944,14.334,5.18079-.02545,10.29212-4.52985,11.11961-10.85892l11.33914,5.33608a15.17316,15.17316,0,0,1,8.20016,9.81943l8.60694,32.27628,10.0772-22.41314,12.857,6.94978s-10.94587,41.1773-23.28164,41.00338a19.516,19.516,0,0,1-8.86087-5.03851l4.04113,17.291s-10.64326-1.915-23.15276,6.42468-36.48609,0-36.48609,0l-2.86664-51.60146S362.17879,201.78506,352.24,184.36l-19.86583-32.38424s-1.73754-2.60586,2.08483-9.38208c3.82236-6.77587,20.32795-34.74855,20.32795-34.74855l14.59433,7.12369L356.69805,149.196l15.79446,26.03545a21.60345,21.60345,0,0,0,12.00447,9.408Z"></path><path fill="#b02336" d="M344.2755 148.15358a5.48149 5.48149 0 012.99679-1.33734 10.40957 10.40957 0 013.32154.03453c.55114.06885 1.081.226 1.619.346.52527.16385 1.05066.32669 1.56263.52239.50494.21376 1.00952.42647 1.49926.6672.47669.27182.96125.5201 1.42337.80962l-3.10147-.941a27.55669 27.55669 0 00-3.11377-.68937 13.87617 13.87617 0 00-3.1473-.19029A7.18882 7.18882 0 00344.2755 148.15358zM425.674 256.04782a30.3077 30.3077 0 01-3.86194-6.28657 44.79794 44.79794 0 01-2.57013-6.9426 46.76864 46.76864 0 01-1.33835-7.27869c-.156-1.22427-.16592-2.4608-.23084-3.68936-.01449-1.23115.04416-2.46316.096-3.68849.16028 2.45424.304 4.89586.68756 7.30952a54.3578 54.3578 0 001.48307 7.156 51.64832 51.64832 0 002.3786 6.907A43.17923 43.17923 0 00425.674 256.04782zM382.5858 271.68466a27.65959 27.65959 0 008.252 1.36609 20.01581 20.01581 0 008.10233-1.5433 18.55968 18.55968 0 006.67487-4.81421 30.17577 30.17577 0 004.59585-6.99683 24.74886 24.74886 0 01-4.17648 7.36322 18.56578 18.56578 0 01-6.81211 5.11359 19.70289 19.70289 0 01-8.39846 1.43167A22.79776 22.79776 0 01382.5858 271.68466zM434.96922 249.79309a22.32408 22.32408 0 01-1.04339-7.1169 28.82388 28.82388 0 01.238-3.6 23.63361 23.63361 0 01.71851-3.53l-.15558 3.5773c-.0545 1.18587-.06979 2.37038-.07745 3.55362-.00687 1.1837.02719 2.36643.07373 3.55115C434.78426 247.41206 434.84077 248.59932 434.96922 249.79309zM356.6981 184.90016a20.44832 20.44832 0 014.12861 3.23619 22.20011 22.20011 0 013.26928 4.14331 17.84517 17.84517 0 012.08411 4.85778 15.94234 15.94234 0 01.50824 5.22387c-.1604-.86483-.14853-1.73549-.38809-2.57309l-.26325-1.26345-.39059-1.22841a22.16322 22.16322 0 00-2.16889-4.64127 29.81967 29.81967 0 00-3.05456-4.1389c-.56967-.64661-1.16355-1.2747-1.79123-1.87006C358.02525 186.02544 357.3669 185.46147 356.6981 184.90016z"></path><path fill="#6c7fd8" d="M473.78705,334.594l-45.33319-66.03687-.38917-.08167a81.24321,81.24321,0,0,1-46.38621,12.01051l-10.93733-.5033-4.69957,155.0818a5,5,0,0,0,4.27615,5.09911l15.57554,2.2715a5,5,0,0,0,5.68072-4.30991l8.418-65.45866,60.25251-7.77906A19.44719,19.44719,0,0,0,473.78705,334.594Zm-70.64979,13.61476,5.24936-40.81993,32.57677,31.013Z"></path><rect width=".723" height="9.835" x="444.771" y="336.091" fill="#065082" transform="rotate(-57.991 445.133 341.008)"></rect><path fill="#065082" d="M402.653,278.46063c.51544,1.76529.95315,3.54654,1.37909,5.3302.43405,1.782.81238,3.57547,1.19049,5.369.36127,1.797.72107,3.59424,1.026,5.4028.31207,1.8071.613,3.61649.8349,5.44211-.51657-1.765-.954-3.54633-1.38034-5.32993-.43347-1.78213-.81207-3.57553-1.18924-5.36923-.36032-1.79718-.7204-3.59442-1.02478-5.40307C403.17665,282.09549,402.876,280.286,402.653,278.46063Z"></path><rect width="24.658" height=".724" x="389.235" y="360.076" fill="#065082" transform="rotate(-82.712 401.565 360.437)"></rect><path fill="#f9977a" d="M370.68327,440.21677l-1.12819,7.77336s3.51829,12.50948,7.81842,10.03364,8.73058-7.4275,8.73058-7.4275v-8.13061Z"></path><path fill="#ffba55" d="M336.78681,462.9863v-.10008a4.14233,4.14233,0,0,1,2.27807-3.69912l29.56775-14.90148a1.38085,1.38085,0,0,1,1.72534.40362l5.77946,7.692a1.38083,1.38083,0,0,0,1.81429.3546l6.78359-4.07015a1.38085,1.38085,0,0,1,2.09116,1.184v13.13651a1.38083,1.38083,0,0,1-1.3808,1.38083H338.16761A1.38081,1.38081,0,0,1,336.78681,462.9863Z"></path><rect width="114.819" height="46.18" x="201.079" y="239.628" fill="#f65b2b" rx="3.581"></rect><path fill="#7ca1b1" d="M298.4225,239.62744h-2.86426V232.523a1.43413,1.43413,0,0,0-1.43262-1.43262h-71.79A1.43413,1.43413,0,0,0,220.903,232.523v7.10449h-2.86426V232.523a4.30133,4.30133,0,0,1,4.29688-4.29688h71.79a4.30133,4.30133,0,0,1,4.29688,4.29688Z"></path><rect width="29.134" height="17.017" x="244.222" y="259.366" fill="#ffba55"></rect><rect width="29.134" height="5.414" x="244.222" y="249.053" fill="#ffba55"></rect><circle cx="251.57" cy="267.874" r="3.438" fill="#a2aee6"></circle><circle cx="266.008" cy="267.874" r="3.438" fill="#a2aee6"></circle><circle cx="224.283" cy="262.717" r="14.309" fill="#a2aee6"></circle><circle cx="292.693" cy="262.717" r="14.309" fill="#a2aee6"></circle><rect width="5.672" height="3.738" x="271.595" y="235.889" fill="#a2aee6"></rect><rect width="5.672" height="3.738" x="278.878" y="235.889" fill="#a2aee6"></rect><rect width="5.672" height="3.738" x="286.162" y="235.889" fill="#a2aee6"></rect><path fill="#ffba55" d="M543.60448 177.376H469.96025a2 2 0 01-2-2V95.64863a2 2 0 012-2h87.28846a2 2 0 012 2v66.67506zM557.24873 177.376a2 2 0 002-2V162.32371L543.6045 177.376z"></path><path fill="#e6952a" d="M483.60432 103.02842a1.49976 1.49976 0 01-1.5-1.5V87.12852a1.5 1.5 0 013 0v14.3999A1.49976 1.49976 0 01483.60432 103.02842zM473.60432 103.02842a1.49976 1.49976 0 01-1.5-1.5V87.12852a1.5 1.5 0 013 0v14.3999A1.49976 1.49976 0 01473.60432 103.02842zM493.60432 103.02842a1.49976 1.49976 0 01-1.5-1.5V87.12852a1.5 1.5 0 013 0v14.3999A1.49976 1.49976 0 01493.60432 103.02842zM503.60432 103.02842a1.49976 1.49976 0 01-1.5-1.5V87.12852a1.5 1.5 0 013 0v14.3999A1.49976 1.49976 0 01503.60432 103.02842zM513.60432 103.02842a1.49976 1.49976 0 01-1.5-1.5V87.12852a1.5 1.5 0 113 0v14.3999A1.49976 1.49976 0 01513.60432 103.02842zM523.60432 103.02842a1.49976 1.49976 0 01-1.5-1.5V87.12852a1.5 1.5 0 113 0v14.3999A1.49976 1.49976 0 01523.60432 103.02842zM533.60432 103.02842a1.49976 1.49976 0 01-1.5-1.5V87.12852a1.5 1.5 0 113 0v14.3999A1.49976 1.49976 0 01533.60432 103.02842zM543.60432 103.02842a1.49976 1.49976 0 01-1.5-1.5V87.12852a1.5 1.5 0 113 0v14.3999A1.49976 1.49976 0 01543.60432 103.02842zM553.60432 103.02842a1.49976 1.49976 0 01-1.5-1.5V87.12852a1.5 1.5 0 113 0v14.3999A1.49976 1.49976 0 01553.60432 103.02842z"></path><polygon fill="#e6952a" points="559.179 162.252 543.535 162.396 543.674 177.448 559.179 162.252"></polygon><circle cx="522.104" cy="118.528" r="6.48" fill="#e6952a"></circle><circle cx="540.084" cy="118.528" r="6.48" fill="#e6952a"></circle><circle cx="484.693" cy="134.528" r="6.48" fill="#e6952a"></circle><circle cx="503.604" cy="134.528" r="6.48" fill="#e6952a"></circle><circle cx="522.104" cy="134.528" r="6.48" fill="#e6952a"></circle><circle cx="540.084" cy="134.528" r="6.48" fill="#e6952a"></circle><circle cx="484.693" cy="150.528" r="6.48" fill="#e6952a"></circle><circle cx="503.604" cy="150.528" r="6.48" fill="#e6952a"></circle><circle cx="522.104" cy="150.528" r="6.48" fill="#e6952a"></circle><circle cx="540.084" cy="150.528" r="6.48" fill="#e6952a"></circle><circle cx="484.693" cy="165.528" r="6.48" fill="#e6952a"></circle><path fill="#af2f2f" d="M499.83849,144.18913a37.71436,37.71436,0,0,1,4.32029,6.00975c.61794,1.06227,1.222,2.13283,1.76139,3.24176a26.788,26.788,0,0,1,1.45,3.42675,26.78679,26.78679,0,0,1-2.31584-2.91239c-.71586-1.00412-1.36712-2.0466-2.00443-3.09736A37.71358,37.71358,0,0,1,499.83849,144.18913Z"></path><path fill="#af2f2f" d="M507.37015,144.18913a37.7128,37.7128,0,0,1-3.21137,6.66851c-.63733,1.05076-1.28859,2.09324-2.00444,3.09736a26.78567,26.78567,0,0,1-2.31585,2.91239,26.78656,26.78656,0,0,1,1.45-3.42675c.53943-1.10893,1.14346-2.17949,1.76141-3.24176A37.713,37.713,0,0,1,507.37015,144.18913Z"></path><path fill="#a2aee6" d="M212.31814 144.12672c-1.20425-1.65585-2.92-1.71577-4.87694-1.05373a1.45636 1.45636 0 00-.30107.12133c-.4516-.874-.96311-1.897-1.44541-2.83092a6.977 6.977 0 001.536-3.52216 1.95719 1.95719 0 00-2.07826-2.07674 3.34667 3.34667 0 00-1.20426.17973 2.19975 2.19975 0 00-1.56523 2.49914 8.3956 8.3956 0 001.14435 2.70959l-.09062.09062.05991-.05991c-.42089.5115-.87248 1.05373-1.29487 1.62515a7.813 7.813 0 00-1.3548 2.74029 4.93468 4.93468 0 001.65585 5.35775 5.47018 5.47018 0 003.04137 1.235 7.81184 7.81184 0 003.40233-.662c.11983-.03071.17973.51152.21045.57143a3.71689 3.71689 0 01.0307.99381c-.09063.63284-.60213.84329-1.02452.57142-.33027-.21044-.361-.4808-.4808-.60213a.80178.80178 0 00-.60213-.361.59015.59015 0 00-.60213.48231 1.08915 1.08915 0 00.11982.75267 2.11641 2.11641 0 00.78337.78186c1.59445.93391 3.52215-.361 3.2503-2.7388-.0292-.24114-.05992-.5115-.08912-.75265-.0307-.15054-.0307-.33178-.06142-.4823v-.02921c2.58977-1.80639 2.80021-4.155 1.8371-5.5405zm-7.46671-7.8876c.99381.05991.05992 1.77568-.17973 2.16737a2.47191 2.47191 0 01-.15054-.30107c-.15053-.361-.75266-1.92622.33027-1.8663zm.99381 13.15623a3.5845 3.5845 0 01-3.01064-4.60659 7.79075 7.79075 0 011.596-2.88932c.78186 1.44541 1.11364 2.04754 1.14434 2.10746a2.86623 2.86623 0 00-1.08444 1.74647.545.545 0 00.48231.63133.81009.81009 0 00.9032-.42088 1.85094 1.85094 0 01.42088-.662c.78338 1.35479 1.08444 1.65585 2.07675 3.49145a6.16338 6.16338 0 01-2.52835.60212zM209.7898 147.89c-1.20426-2.16737-1.44541-2.43773-1.92772-3.34093.03071 0 .05991-.03071.09063-.03071 1.17354-.30106 2.01683-.33177 2.58975.69276a2.22388 2.22388 0 01-.75266 2.67888zm0 0M305.13 103.0561c-1.20425-1.65585-2.92-1.71577-4.87694-1.05372a1.45636 1.45636 0 00-.30107.12133c-.4516-.874-.96311-1.897-1.44541-2.83092a6.977 6.977 0 001.536-3.52216 1.95719 1.95719 0 00-2.07826-2.07674 3.34646 3.34646 0 00-1.20426.17973 2.19973 2.19973 0 00-1.56522 2.49914 8.39539 8.39539 0 001.14434 2.70958l-.09062.09062.05991-.0599c-.42089.5115-.87248 1.05373-1.29487 1.62514a7.813 7.813 0 00-1.3548 2.7403 4.93468 4.93468 0 001.65585 5.35775 5.47028 5.47028 0 003.04137 1.235 7.81185 7.81185 0 003.40233-.66206c.11983-.0307.17973.51152.21045.57144a3.71689 3.71689 0 01.0307.99381c-.09063.63284-.60213.84328-1.02452.57142-.33027-.21044-.361-.4808-.4808-.60213a.80177.80177 0 00-.60213-.361.59014.59014 0 00-.60213.48231 1.08912 1.08912 0 00.11982.75266 2.11634 2.11634 0 00.78337.78186c1.59445.93391 3.52215-.361 3.2503-2.73879-.0292-.24114-.05992-.5115-.08911-.75265-.03071-.15054-.03071-.33178-.06143-.48231v-.0292c2.58977-1.80639 2.80021-4.155 1.8371-5.54051zm-7.46671-7.88759c.99381.0599.05992 1.77567-.17973 2.16737a2.469 2.469 0 01-.15053-.30108c-.15054-.361-.75267-1.92621.33026-1.86629zm.99381 13.15623a3.5845 3.5845 0 01-3.01064-4.60659 7.79067 7.79067 0 011.596-2.88932c.78186 1.44541 1.11364 2.04754 1.14434 2.10746a2.86629 2.86629 0 00-1.08444 1.74647.545.545 0 00.48231.63133.8101.8101 0 00.9032-.42088 1.85094 1.85094 0 01.42088-.662c.78338 1.3548 1.08444 1.65586 2.07675 3.49146a6.16351 6.16351 0 01-2.52835.60212zm3.94456-1.50532c-1.20426-2.16736-1.44541-2.43772-1.92772-3.34092.03071 0 .05991-.03071.09063-.03071 1.17354-.30107 2.01683-.33177 2.58976.69276a2.22389 2.22389 0 01-.75267 2.67887zm0 0M309.4771 176.10988c-1.29979.63117-3.29418.90464-3.96452-.26-.67277-1.17223.69738-2.575 2.02-3.21689a4.15442 4.15442 0 013.26853-.34245v-6.2362L301.5848 169.76c-.0066 7.41569.01905 6.99319-.0201 7.10132.21247 1.13758-1.05335 2.264-2.17048 2.811-1.29979.63222-3.29417.90569-3.96452-.25995-.67554-1.174.70155-2.5767 2.02421-3.21585a3.91449 3.91449 0 013.43766-.253V165.64123a.34427.34427 0 01.21942-.31819l9.9054-3.98323a.35712.35712 0 01.32235.03534.34908.34908 0 01.15562.28838c0 10.53487.00937 11.17678-.00277 11.21178l.00694.01109c.68108 1.17363-.70293 2.575-2.02143 3.22348zM198.81162 189.21962c-1.29979.63117-3.29418.90465-3.96452-.26-.67277-1.17222.69738-2.575 2.02-3.21688a4.1544 4.1544 0 013.26852-.34245v-6.2362l-9.21634 3.70561c-.0066 7.4157.019 6.9932-.02011 7.10133.21248 1.13758-1.05335 2.264-2.17048 2.811-1.29978.63222-3.29416.90568-3.96451-.26-.67555-1.174.70154-2.57669 2.02421-3.21585a3.91451 3.91451 0 013.43766-.253V178.751a.34425.34425 0 01.21941-.31818l9.90541-3.98323a.35707.35707 0 01.32234.03534.349.349 0 01.15563.28838c0 10.53486.00936 11.17678-.00277 11.21178l.00693.01109c.68109 1.17362-.70293 2.575-2.02142 3.22347zM254.16822 152.368c-.63964 1.21994-1.99669 2.4507-3.13523 1.85814-1.137-.58562-.91255-2.41783-.27278-3.63584a3.39657 3.39657 0 012.40945-1.99646l-4.23882-6.15506a1.15923 1.15923 0 01-.02759-1.26974l2.47571-3.98143a.33046.33046 0 11.56153.34856l-2.47971 3.9826a.50271.50271 0 00.01454.545c4.94151 7.19347 4.67342 6.74475 4.69983 6.87227.69971.64713.714 2.04967-.00693 3.43192zM269.56506 207.69325c-1.024.92131-2.72439 1.60324-3.58575.65169-.86232-.94449-.01466-2.58426 1.0088-3.50371a3.39655 3.39655 0 012.95339-1.03381l-1.83344-7.24506a1.15925 1.15925 0 01.41575-1.20006l3.7059-2.8718a.33046.33046 0 11.40524.5221l-3.71005 2.8715a.5027.5027 0 00-.17593.51607c2.13109 8.463 2.03581 7.94909 2.01621 8.07784.431.85008-.04346 2.17-1.20012 3.21524z"></path></svg>